<svg width="425" height="297" viewBox="0 0 425 297" fill="none" xmlns="http://www.w3.org/2000/svg">
<path d="M318.18 169.661C315.515 175.752 310.947 182.413 304.476 189.646C298.385 196.498 290.391 202.398 280.494 207.347C270.597 211.915 258.986 214.199 245.663 214.199C233.862 214.199 222.252 211.915 210.832 207.347C199.793 202.398 190.657 194.785 183.424 184.507C176.191 173.848 172.575 160.144 172.575 143.395C172.575 119.794 180.95 99.0473 197.699 81.156C214.829 62.884 240.905 48.4186 275.926 37.76C288.488 33.9533 301.05 30.1467 313.612 26.34C326.174 22.5333 338.736 18.7267 351.298 14.92C364.241 11.1133 376.993 7.30666 389.555 3.5C402.117 -0.306686 414.679 -4.11336 427.241 -7.92002C437.9 -11.346 449.129 -15.1527 460.93 -19.34C472.731 -23.5273 482.818 -29.2373 491.193 -36.47C499.568 -44.0834 503.755 -54.3613 503.755 -67.304C503.755 -82.15 498.235 -93.57 487.196 -101.564C476.157 -109.558 462.833 -113.555 447.226 -113.555C441.135 -113.555 435.996 -112.794 431.809 -111.271C442.848 -107.084 451.033 -101.374 456.362 -94.141C462.072 -87.289 464.927 -79.295 464.927 -70.159C464.927 -60.2617 461.882 -51.6967 455.791 -44.464C450.081 -37.2313 442.658 -31.7117 433.522 -27.905C424.386 -24.479 414.869 -22.766 404.972 -22.766C389.745 -22.766 377.183 -26.9533 367.286 -35.328C357.769 -43.7027 353.011 -54.3613 353.011 -67.304C353.011 -79.1047 356.627 -89.002 363.86 -96.996C371.473 -104.99 381.18 -111.081 392.981 -115.268C401.356 -118.694 410.111 -120.788 419.247 -121.549C428.764 -122.691 436.567 -123.262 442.658 -123.262C457.885 -123.262 471.589 -120.597 483.77 -115.268C496.332 -110.319 506.229 -101.754 513.462 -89.573C520.695 -77.7724 524.311 -61.2134 524.311 -39.896C524.311 -15.1527 518.982 5.40331 508.323 21.772C498.045 38.1407 482.818 51.8447 462.643 62.884C442.848 73.9233 418.676 83.8207 390.126 92.576C379.467 96.002 368.809 99.428 358.15 102.854C347.491 105.899 336.642 108.945 325.603 111.99C314.944 115.035 304.286 118.271 293.627 121.697C282.968 124.742 272.31 127.978 261.651 131.404C250.231 134.83 240.905 138.637 233.672 142.824C226.439 147.011 221.11 151.77 217.684 157.099C214.258 162.428 212.545 168.329 212.545 174.8C212.545 185.459 216.352 192.691 223.965 196.498C231.578 200.305 239.572 202.208 247.947 202.208C258.986 202.208 268.503 200.305 276.497 196.498C284.872 192.311 291.724 187.362 297.053 181.652C302.382 175.942 306.189 170.613 308.473 165.664L318.18 169.661ZM258.796 -41.038C266.79 -41.038 273.452 -43.5123 278.781 -48.461C284.491 -53.4097 287.346 -59.5004 287.346 -66.733C287.346 -73.2044 284.491 -78.5337 278.781 -82.721C273.452 -86.9084 265.838 -89.002 255.941 -89.002C243.76 -89.002 231.769 -85.7664 219.968 -79.295C208.548 -72.8237 199.031 -63.6877 191.418 -51.887C184.185 -40.0864 180.569 -26.192 180.569 -10.204C180.569 -7.53935 180.759 -4.68434 181.14 -1.639C181.521 1.02565 181.901 3.88065 182.282 6.92599C189.134 5.78399 195.986 5.02266 202.838 4.64199C209.69 3.88066 214.829 3.5 218.255 3.5C231.959 3.5 238.811 7.49699 238.811 15.491C238.811 19.6783 236.908 22.7237 233.101 24.627C229.294 26.5303 225.297 27.482 221.11 27.482C213.877 27.482 206.454 25.9593 198.841 22.914C191.608 19.488 185.898 16.8233 181.711 14.92C170.672 19.8687 160.584 28.4337 151.448 40.615C142.693 52.7963 135.65 67.2617 130.321 84.011C125.372 100.38 122.898 117.89 122.898 136.543C122.898 160.144 127.466 179.939 136.602 195.927C145.738 211.534 159.252 223.335 177.143 231.329C195.034 239.323 216.923 243.32 242.808 243.32C260.699 243.32 278.4 241.417 295.911 237.61C313.802 233.423 329.981 227.142 344.446 218.767C358.911 210.392 370.522 199.543 379.277 186.22C388.413 172.516 392.981 156.147 392.981 137.114C392.981 122.649 389.555 108.754 382.703 95.431C375.851 82.1077 363.099 71.6393 344.446 64.026L350.727 57.745C368.238 64.597 381.561 75.446 390.697 90.292C400.214 105.138 404.972 122.078 404.972 141.111C404.972 158.622 400.594 176.513 391.839 194.785C383.464 213.057 370.331 229.997 352.44 245.604C334.929 260.831 312.47 273.202 285.062 282.719C257.654 292.236 225.107 296.994 187.421 296.994C152.78 296.994 121.185 292.426 92.635 283.29C64.4657 273.773 42.0063 259.498 25.257 240.465C8.50767 221.432 0.133001 197.45 0.133001 168.519C0.133001 142.634 6.985 119.032 20.689 97.715C34.7737 76.017 54.7587 57.745 80.644 42.899C106.91 27.6723 138.125 16.8233 174.288 10.352C154.113 5.02265 139.457 -2.78102 130.321 -13.059C121.566 -23.337 117.188 -34.3764 117.188 -46.177C117.188 -61.023 122.517 -73.2044 133.176 -82.721C144.215 -92.6184 158.11 -99.851 174.859 -104.419C191.608 -109.368 209.119 -111.842 227.391 -111.842C253.276 -111.842 271.929 -107.655 283.349 -99.28C294.769 -91.286 300.479 -81.008 300.479 -68.446C300.479 -55.5033 295.721 -45.9867 286.204 -39.896C277.068 -33.8053 268.122 -30.76 259.367 -30.76L258.796 -41.038Z" fill="#EBD9F2"/>
</svg>
