<svg width="344" height="271" viewBox="0 0 344 271" fill="none" xmlns="http://www.w3.org/2000/svg">
<path d="M328.896 153.615C334.225 153.615 341.839 151.521 351.736 147.334C361.633 143.147 372.292 136.866 383.712 128.491C395.132 119.736 406.171 108.887 416.83 95.944C427.489 82.6207 436.054 66.823 442.525 48.551C449.377 30.279 452.803 9.53267 452.803 -13.688C452.803 -46.806 445.57 -74.0237 431.105 -95.341C416.64 -117.039 396.464 -133.027 370.579 -143.305C344.694 -153.583 314.621 -158.722 280.361 -158.722C245.72 -158.722 214.125 -153.773 185.575 -143.876C157.406 -134.359 132.472 -121.036 110.774 -103.906C89.076 -87.1567 70.804 -67.933 55.958 -46.235C41.4927 -24.537 30.4533 -1.50665 22.84 22.856C15.6073 46.838 11.991 70.6297 11.991 94.231C11.991 124.304 17.5107 149.999 28.55 171.316C39.5893 192.633 54.4353 209.763 73.088 222.706C91.7407 235.649 112.677 245.165 135.898 251.256C159.499 257.347 183.862 260.392 208.986 260.392C236.013 260.392 262.47 257.156 288.355 250.685C314.24 244.214 337.651 235.078 358.588 223.277L362.014 230.7C344.123 242.12 322.044 251.446 295.778 258.679C269.893 266.292 241.152 270.099 209.557 270.099C183.672 270.099 158.167 267.054 133.043 260.963C108.3 254.872 85.8403 244.975 65.665 231.271C45.8703 217.948 29.8823 200.247 17.701 178.168C5.90033 155.709 0 128.11 0 95.373C0 70.249 3.80667 45.125 11.42 20.001C19.0333 -5.12299 30.4533 -28.9147 45.68 -51.374C60.9067 -74.214 79.7497 -94.3893 102.209 -111.9C125.049 -129.791 151.315 -143.686 181.007 -153.583C210.699 -163.861 243.817 -169 280.361 -169C317.666 -169 350.023 -163.29 377.431 -151.87C405.22 -140.45 426.727 -123.13 441.954 -99.909C457.181 -77.069 464.794 -48.519 464.794 -14.259C464.794 17.717 458.703 45.5057 446.522 69.107C434.721 92.7083 419.495 112.313 400.842 127.92C382.189 143.527 362.585 155.328 342.029 163.322C321.473 170.935 302.63 174.742 285.5 174.742C271.035 174.742 260.186 172.268 252.953 167.319C245.72 162.37 241.152 155.899 239.249 147.905C237.346 139.911 237.155 131.346 238.678 122.21C240.201 112.693 242.294 103.367 244.959 94.231L296.349 -75.356C310.434 -75.356 325.089 -75.927 340.316 -77.069C355.543 -78.211 369.627 -80.3047 382.57 -83.35L322.044 120.497C318.618 132.298 317.476 140.863 318.618 146.192C319.76 151.141 323.186 153.615 328.896 153.615ZM256.379 74.817C249.527 101.083 240.962 121.449 230.684 135.914C220.787 150.379 209.747 160.467 197.566 166.177C185.385 171.887 172.632 174.742 159.309 174.742C147.508 174.742 136.279 172.648 125.62 168.461C114.961 163.893 106.396 156.47 99.925 146.192C93.4537 135.914 90.218 122.02 90.218 104.509C90.218 89.2823 92.6923 73.2943 97.641 56.545C102.97 39.415 110.203 22.6657 119.339 6.29701C128.856 -10.4523 139.895 -25.4887 152.457 -38.812C165.4 -52.516 179.675 -63.365 195.282 -71.359C210.889 -79.353 227.258 -83.35 244.388 -83.35C264.563 -83.35 277.125 -77.4497 282.074 -65.649C287.023 -53.8483 287.974 -38.241 284.929 -18.827L278.077 -13.688C279.219 -18.6367 279.79 -24.537 279.79 -31.389C280.171 -38.6217 279.219 -44.9027 276.935 -50.232C274.651 -55.942 270.083 -58.797 263.231 -58.797C255.998 -58.797 247.624 -54.0387 238.107 -44.522C228.971 -35.0053 219.835 -22.253 210.699 -6.265C201.944 9.34233 194.521 27.0433 188.43 46.838C182.72 66.252 179.865 86.0467 179.865 106.222C179.865 118.023 181.197 126.778 183.862 132.488C186.527 137.817 191.475 140.482 198.708 140.482C210.128 140.482 220.216 134.011 228.971 121.068C237.726 108.125 246.101 89.4727 254.095 65.11L256.379 74.817Z" fill="#EBD9F2"/>
</svg>
