<svg width="16" height="16" viewBox="0 0 16 16" fill="none" xmlns="http://www.w3.org/2000/svg">
<g clip-path="url(#clip0_351_1611)">
<path d="M10.0331 3.33335C10.6843 3.4604 11.2827 3.77886 11.7518 4.24798C12.221 4.7171 12.5394 5.31553 12.6665 5.96669M10.0331 0.666687C11.386 0.816978 12.6475 1.4228 13.6106 2.38469C14.5737 3.34658 15.1811 4.60736 15.3331 5.96002M14.5548 13.8196C14.4804 13.9897 14.3713 14.1424 14.2345 14.2679C14.0977 14.3934 13.9362 14.489 13.7603 14.5485C13.5844 14.608 13.398 14.6301 13.2131 14.6134C11.1617 14.3904 9.19113 13.6895 7.45979 12.5667C5.84901 11.5431 4.48335 10.1775 3.45979 8.56669C2.33311 6.82749 1.63195 4.84735 1.41313 2.78669C1.39647 2.60233 1.41838 2.41653 1.47746 2.2411C1.53654 2.06568 1.63151 1.90448 1.7563 1.76777C1.8811 1.63106 2.033 1.52183 2.20232 1.44704C2.37164 1.37224 2.55469 1.33353 2.73979 1.33335H4.33313H4.34301C4.80561 1.33334 5.24743 1.33332 5.6223 1.65571C5.86761 1.86668 6.02784 2.15965 6.07313 2.48002C6.15754 3.12007 6.31409 3.74851 6.53979 4.35335C6.62949 4.59197 6.6489 4.8513 6.59573 5.10061C6.54256 5.34992 6.41903 5.57876 6.23979 5.76002L5.39313 6.60669C6.34216 8.27572 7.7241 9.65765 9.39313 10.6067L10.2398 9.76002C10.4211 9.58078 10.6499 9.45725 10.8992 9.40408C11.1485 9.35091 11.4078 9.37033 11.6465 9.46002C11.9668 9.57957 12.2938 9.67972 12.6257 9.76002C12.9203 9.83133 13.2188 9.88699 13.5198 9.92669C13.8436 9.97237 14.1394 10.1355 14.3508 10.385C14.6545 10.7434 14.6702 11.5576 14.6665 12.3334C14.6636 12.9235 14.6983 13.4914 14.5548 13.8196Z" stroke="#36394A" stroke-width="1.5" stroke-linecap="round" stroke-linejoin="round"/>
</g>
<defs>
<clipPath id="clip0_351_1611">
<rect width="16" height="16" fill="white"/>
</clipPath>
</defs>
</svg>
