<svg width="32" height="32" viewBox="0 0 32 32" fill="none" xmlns="http://www.w3.org/2000/svg">
<path d="M13 22C15.2091 22 17 20.2091 17 18C17 15.7909 15.2091 14 13 14C10.7909 14 9 15.7909 9 18C9 20.2091 10.7909 22 13 22Z" stroke="#682B82" stroke-width="2" stroke-linecap="round" stroke-linejoin="round"/>
<path d="M6.67375 26C7.24107 24.8022 8.13677 23.7901 9.25667 23.0814C10.3766 22.3727 11.6747 21.9964 13 21.9964C14.3253 21.9964 15.6234 22.3727 16.7433 23.0814C17.8632 23.7901 18.7589 24.8022 19.3263 26H27C27.2652 26 27.5196 25.8946 27.7071 25.7071C27.8946 25.5196 28 25.2652 28 25V7C28 6.73478 27.8946 6.48043 27.7071 6.29289C27.5196 6.10536 27.2652 6 27 6H5C4.73478 6 4.48043 6.10536 4.29289 6.29289C4.10536 6.48043 4 6.73478 4 7V25C4 25.2652 4.10536 25.5196 4.29289 25.7071C4.48043 25.8946 4.73478 26 5 26H6.67375Z" stroke="#682B82" stroke-width="2" stroke-linecap="round" stroke-linejoin="round"/>
<path d="M22 22H24V10H8V12" stroke="#682B82" stroke-width="2" stroke-linecap="round" stroke-linejoin="round"/>
</svg>
