<svg width="25" height="25" viewBox="0 0 25 25" fill="none" xmlns="http://www.w3.org/2000/svg">
<g clip-path="url(#clip0_164_5833)">
<path fill-rule="evenodd" clip-rule="evenodd" d="M13.614 0.752955C14.2767 0.764522 14.8044 1.31107 14.7929 1.97371L14.7561 4.08223C14.7374 5.15114 16.0204 5.70902 16.7895 4.96637L18.3064 3.50145C18.7832 3.04108 19.5428 3.05434 20.0033 3.53107L21.6705 5.25749C22.1308 5.73422 22.1175 6.49391 21.6408 6.95429L20.1238 8.4192C19.3548 9.16186 19.8675 10.4636 20.9364 10.4822L23.045 10.519C23.7077 10.5306 24.2354 11.0771 24.2239 11.7398L24.182 14.1394C24.1704 14.8021 23.6239 15.3299 22.9612 15.3183L20.8527 15.2815C19.7838 15.2628 19.226 16.5458 19.9685 17.3149L21.4335 18.8318C21.8939 19.3086 21.8806 20.0682 21.4039 20.5287L19.6775 22.1959C19.2007 22.6562 18.4411 22.643 17.9806 22.1663L16.5157 20.6492C15.773 19.8803 14.4714 20.3929 14.4527 21.4619L14.4159 23.5704C14.4043 24.2331 13.8578 24.7609 13.1951 24.7493L10.7955 24.7074C10.1329 24.6958 9.60507 24.1493 9.61664 23.4867L9.65344 21.3781C9.6721 20.3092 8.38907 19.7514 7.62003 20.494L6.10307 21.9589C5.62633 22.4193 4.86665 22.406 4.40627 21.9293L2.7391 20.2029C2.27871 19.7261 2.29197 18.9665 2.76872 18.506L4.28568 17.0412C5.05471 16.2985 4.54196 14.9968 3.47303 14.9781L1.36452 14.9413C0.701878 14.9298 0.174077 14.3832 0.185644 13.7206L0.22753 11.3209C0.239096 10.6583 0.785649 10.1305 1.44829 10.1421L3.5568 10.1789C4.62572 10.1975 5.1836 8.9145 4.44096 8.14546L2.97604 6.62849C2.51565 6.15175 2.52891 5.39207 3.00566 4.9317L4.73207 3.26451C5.2088 2.80414 5.96849 2.8174 6.42886 3.29413L7.89378 4.81109C8.63643 5.58014 9.93815 5.06737 9.95681 3.99845L9.99361 1.88994C10.0052 1.2273 10.5517 0.699502 11.2144 0.711069L13.614 0.752955ZM12.1 18.7293C15.4132 18.7871 18.146 16.1481 18.2038 12.8349C18.2617 9.5217 15.6226 6.78893 12.3095 6.7311C8.99627 6.67327 6.26351 9.31227 6.20567 12.6255C6.14784 15.9386 8.78684 18.6714 12.1 18.7293Z" fill="#2563EB"/>
</g>
<defs>
<clipPath id="clip0_164_5833">
<rect width="24" height="24" fill="white" transform="translate(0.416016 0.522583) rotate(1)"/>
</clipPath>
</defs>
</svg>
