<svg width="25" height="25" viewBox="0 0 25 25" fill="none" xmlns="http://www.w3.org/2000/svg">
<path fill-rule="evenodd" clip-rule="evenodd" d="M14.246 2.20965C14.2129 1.26345 13.4191 0.523196 12.4729 0.556239L11.1023 0.6041C10.1561 0.637142 9.41586 1.43097 9.4489 2.37717L9.46122 2.7299C9.51452 4.25623 7.69581 5.08506 6.57884 4.04347L6.32071 3.80277C5.62828 3.15707 4.54352 3.19495 3.89781 3.88738L2.9625 4.89037C2.31681 5.5828 2.35469 6.66756 3.04711 7.31327L3.30525 7.55398C4.42222 8.59558 3.72227 10.4677 2.19594 10.521L1.8432 10.5333C0.897001 10.5663 0.156743 11.3602 0.189785 12.3064L0.237646 13.6769C0.270689 14.6231 1.06452 15.3634 2.01071 15.3304L2.36344 15.318C3.88979 15.2647 4.71862 17.0835 3.67703 18.2004L3.43631 18.4586C2.79062 19.151 2.8285 20.2357 3.52092 20.8814L4.52392 21.8167C5.21636 22.4624 6.30112 22.4246 6.94682 21.7321L7.18753 21.474C8.22912 20.357 10.1012 21.057 10.1545 22.5833L10.1668 22.936C10.1999 23.8823 10.9937 24.6225 11.9399 24.5895L13.3105 24.5416C14.2567 24.5086 14.997 23.7147 14.9639 22.7685L14.9516 22.4158C14.8983 20.8895 16.717 20.0606 17.8339 21.1022L18.0921 21.3429C18.7845 21.9886 19.8693 21.9507 20.515 21.2583L21.4503 20.2553C22.096 19.5629 22.0581 18.4782 21.3657 17.8324L21.1076 17.5917C19.9906 16.5502 20.6906 14.678 22.2169 14.6247L22.5696 14.6124C23.5158 14.5794 24.2561 13.7855 24.223 12.8393L24.1752 11.4688C24.1421 10.5226 23.3483 9.78231 22.4021 9.81535L22.0494 9.82767C20.523 9.88097 19.6942 8.06227 20.7357 6.9453L20.9765 6.68715C21.6222 5.99473 21.5843 4.90996 20.8919 4.26427L19.8889 3.32896C19.1964 2.68325 18.1117 2.72113 17.466 3.41357L17.2253 3.67169C16.1837 4.78866 14.3116 4.08871 14.2583 2.56238L14.246 2.20965Z" fill="#16A34A"/>
</svg>
