<svg width="316" height="315" viewBox="0 0 316 315" fill="none" xmlns="http://www.w3.org/2000/svg">
<path fill-rule="evenodd" clip-rule="evenodd" d="M90.413 169.708C90.7168 171.175 90.377 172.706 89.8214 174.096C89.9606 174.228 90.0998 174.361 90.239 174.493C93.019 172.329 95.8425 170.12 97.8638 167.235C98.7153 166.019 97.7093 164.244 96.3455 163.658C94.9818 163.073 93.4311 163.253 91.9482 163.19C90.1639 163.115 88.3962 162.666 86.7921 161.881C84.4631 160.741 82.3259 158.861 79.7332 158.822C79.4471 158.818 79.1406 158.844 78.9157 159.021C78.3673 159.453 78.7023 160.332 79.1142 160.896C81.1581 163.692 84.2223 165.726 87.5934 166.523C89.0504 166.868 90.1093 168.242 90.413 169.708Z" fill="#DABAE8"/>
<path fill-rule="evenodd" clip-rule="evenodd" d="M135.137 212.424L98.2815 220.649C90.7487 222.331 83.2794 217.587 81.5982 210.054C80.7879 206.423 81.4586 202.619 83.4619 199.485L103.797 167.665C110.057 157.87 112.153 145.982 109.62 134.636L101.395 97.7807C99.7139 90.248 104.458 82.7786 111.99 81.0975C115.621 80.2872 119.425 80.9579 122.56 82.9611L154.379 103.296C164.175 109.556 176.062 111.652 187.408 109.12L224.264 100.894C231.796 99.2132 239.266 103.957 240.947 111.49C241.757 115.12 241.087 118.924 239.083 122.059L218.749 153.878C212.489 163.674 210.392 175.562 212.925 186.908L221.15 223.763C222.831 231.296 218.088 238.765 210.555 240.446C206.924 241.257 203.12 240.586 199.986 238.583L168.166 218.248C158.37 211.988 146.483 209.892 135.137 212.424Z" fill="#DABAE8"/>
<path d="M264.763 198.076C264.763 198.076 99.5949 198.163 34.2013 198.076C29.0686 186.886 35.5257 171.935 47.1903 168C43.5398 172.165 39.8892 176.329 36.2386 180.494C42.6525 180.429 264.763 180.494 264.763 180.494V198.076Z" fill="white"/>
<path fill-rule="evenodd" clip-rule="evenodd" d="M211.492 198.1C129.483 198.132 70.3863 198.124 34.2013 198.076C29.0686 186.886 154.921 191.598 202.644 191.598C250.366 191.598 228.288 198.094 211.492 198.1Z" fill="#E7EAEE"/>
<path fill-rule="evenodd" clip-rule="evenodd" d="M177.338 69.8003C177.921 69.1358 179.071 69.0867 179.709 69.6991C177.65 65.6213 171.627 64.3989 170.332 60.018C168.676 54.41 166.232 49.0351 163.095 44.1C161.79 48.952 159.297 53.4797 155.894 57.1766C155.009 57.1806 154.123 57.1845 153.238 57.1885C151.227 57.1976 149.198 57.2086 147.234 57.6409C143.7 58.4188 140.533 60.5261 136.953 61.0505C137.218 60.7181 137.484 60.3858 137.749 60.0535C137.675 59.7105 137.178 59.5536 136.921 59.792C136.467 57.9882 135.006 56.5718 133.349 55.7274C131.692 54.883 129.248 53.3114 124.357 53.7248C130.292 60.3678 128.454 88.0233 129.914 93.2643C130.412 93.3972 130.793 92.8529 131.117 92.4521C131.441 92.0513 132.197 91.805 132.372 92.2898C133.587 95.6593 133.76 100.844 137.486 102.852C138.205 103.239 138.633 102.516 138.577 102.163C138.506 101.713 139.047 101.366 139.498 101.434C139.948 101.502 140.309 101.829 140.66 102.119C146.587 107.013 156.292 104.491 162.226 109.376C163.399 110.341 164.432 111.599 165.895 112.005C166.769 112.248 167.699 112.152 168.591 111.992C173.903 111.041 178.632 107.889 182.321 103.951C186.01 100.012 188.765 95.303 191.329 90.5549C188.966 89.2169 186.482 87.7584 185.199 85.3655C184.187 83.4802 183.565 80.7776 181.438 80.5472C182.113 82.7385 182.788 84.9298 183.462 87.1211C183.709 87.9235 183.959 88.7603 183.829 89.5896C183.698 90.419 183.064 91.2336 182.226 91.2757C181.088 91.3328 180.286 90.045 179.156 89.8984C178.942 94.1368 177.315 98.2917 174.593 101.548C173.649 102.678 171.833 103.704 170.875 102.586C172.329 100.236 173.784 97.8858 175.239 95.5358C176.145 94.0713 177.075 92.5391 177.242 90.8248C177.408 89.1104 176.558 87.1658 174.909 86.666C174.836 86.2127 175.314 85.8234 175.773 85.8099C176.232 85.7964 176.655 86.0394 177.049 86.2746C178.516 87.1498 179.984 88.0249 181.451 88.9001C180.983 85.4208 180.025 82.0076 178.616 78.7922C179.982 78.6629 181.378 78.8716 182.646 79.3945C181.67 76.5699 179.879 74.0318 177.546 72.1641C176.856 71.6116 176.755 70.4649 177.338 69.8003Z" fill="white"/>
<path fill-rule="evenodd" clip-rule="evenodd" d="M148.035 62.3024C149.244 63.1025 150.198 64.2823 150.727 65.6321C150.891 66.0518 151.358 66.2543 151.674 66.5766C151.989 66.8989 152.041 67.5878 151.599 67.6778C151.406 67.7172 151.217 67.6107 151.047 67.5097C148.337 65.8913 145.041 64.5847 142.084 65.69C142.57 65.9383 142.816 66.5755 142.622 67.0858C143.226 67.1076 143.788 67.379 144.33 67.6451C144.808 67.8794 145.285 68.1137 145.763 68.348C145.713 68.489 145.663 68.63 145.613 68.7709C143.454 67.6717 140.817 67.5574 138.571 68.4657C139.318 68.5791 140.078 68.5998 140.83 68.5273C141.925 69.0795 143.021 69.6318 144.117 70.184C144.361 70.3069 144.618 70.4419 144.755 70.678C144.892 70.914 144.84 71.2799 144.585 71.3772C142.605 69.6311 139.804 68.859 137.209 69.3439C136.906 69.4005 136.699 68.9781 136.828 68.6982C136.956 68.4182 137.265 68.2745 137.551 68.1616C138.99 67.5953 140.507 67.229 142.045 67.0765C141.275 66.3631 140.384 65.7815 139.421 65.3644C139.263 64.822 140.045 64.3023 140.484 64.6586C143.815 64.0055 147.385 64.6535 150.274 66.4362C150.299 65.8694 149.878 65.3927 149.485 64.9838C148.255 63.7057 147.026 62.4275 145.796 61.1494C147.949 61.4222 150.059 62.0283 152.029 62.9397C152.474 63.1458 152.914 63.3684 153.318 63.6477C154.837 64.6996 155.742 66.5813 155.614 68.425C154.693 66.4795 153.236 64.7913 151.446 63.5961C150.423 62.9129 149.263 62.381 148.035 62.3024V62.3024Z" fill="#E7EAEE"/>
<path fill-rule="evenodd" clip-rule="evenodd" d="M69.7741 154.254C66.6564 157.052 66.9286 162.003 68.0539 166.039C69.5016 171.23 71.9497 176.141 75.2244 180.421L36.2386 180.813L47.1903 168.319C35.5257 172.254 29.0686 187.205 34.2013 198.395C99.5949 198.482 164.989 198.348 230.382 197.993C218.454 206.054 206.892 215.833 201.349 229.119C195.807 242.405 198.102 259.873 209.884 268.144C214.273 271.225 219.543 272.804 224.811 273.802C230.244 274.83 236.822 274.873 240.175 270.477C242.133 267.91 241.197 263.881 240.271 259.897C239.625 257.118 238.985 254.36 239.335 252.135C240.522 244.59 245.602 240.764 251.397 236.398L251.398 236.397C252.615 235.48 253.864 234.539 255.115 233.535C265.8 224.96 278.048 214.118 281.166 200.778C284.014 188.593 280.88 176.505 272.734 167.005C269.801 163.585 266.195 160.472 262.572 157.343C257.702 153.139 252.8 148.906 249.452 143.861C247.408 140.78 246.692 137.487 245.94 134.031C245.67 132.79 245.395 131.529 245.053 130.249C240.662 113.814 225.002 105.364 208.877 96.6626C206.834 95.5606 204.785 94.4545 202.75 93.3277C193.418 88.1611 183.999 81.5478 181.003 71.1954C182.655 71.2598 183.268 68.7762 182.316 67.424C181.608 66.4185 180.489 65.8527 179.373 65.2883C178.989 65.0937 178.604 64.8993 178.237 64.6872C174.83 62.7174 172.877 58.6989 170.876 54.5836C167.871 48.401 164.76 42 156.452 42C156.139 44.0976 156.463 45.9664 156.767 47.7173C157.236 50.4231 157.656 52.8475 155.6 55.4001C149.713 54.7472 143.627 56.0346 138.508 59.0155C135.549 53.3974 128.044 50.9975 121.96 52.8165C122.73 53.7862 123.187 54.2726 123.566 54.6757C124.366 55.5275 124.817 56.008 127.139 59.8894C130.558 65.6082 128.392 86.6319 127.851 89.9559C127.309 93.2798 129.87 95.642 132.213 94.0006C131.072 98.9273 135.183 103.629 140.238 103.771C141.965 104.079 143.038 104.914 144.052 105.703C144.682 106.194 145.29 106.667 146.019 106.985C129.967 118.466 112.198 127.541 93.4862 133.814L93.157 133.924L93.1569 133.924C89.6559 135.096 85.9963 136.321 83.5173 139.041C80.9606 141.847 80.3602 146.829 83.3354 149.186C81.5188 150.834 79.0327 151.282 76.5458 151.73C74.069 152.176 71.5916 152.622 69.7741 154.254ZM235.592 176.473C232.695 179.21 227.023 179.353 223.038 179.337L171.353 179.126C169.86 177.141 170.784 174.092 172.713 172.529C174.642 170.965 177.238 170.544 179.714 170.348C187.703 169.716 195.828 170.864 203.329 173.684C205.435 174.059 207.035 171.401 206.526 169.323C206.016 167.246 204.247 165.759 202.601 164.392C197.292 159.981 192.085 155.014 189.593 148.577C187.008 141.901 187.758 134.025 191.556 127.957C185.18 133.254 183.84 142.991 186.704 150.77C189.567 158.55 195.856 164.601 202.669 169.322C198.948 170.085 195.085 169.235 191.26 168.393C186.627 167.374 182.05 166.367 177.853 168.258L176.988 144.652L174.745 165.344C174.578 166.882 174.094 168.785 172.573 169.071C168.446 169.848 165.999 175.254 168.139 178.868C166.294 180.112 163.48 179.555 162.249 177.702C161.018 175.849 161.595 173.039 163.457 171.821C167.973 168.867 168.33 162.502 168.208 157.107L167.36 119.854C167.339 118.955 167.543 117.773 168.434 117.649C181.474 115.837 193.069 106.039 197.029 93.4826C208.586 98.6596 220.145 104.629 229.471 112.85C250.812 131.663 244.958 147.306 243.427 151.398C243.159 152.115 243.023 152.477 243.19 152.44C244.254 152.202 244.759 151.004 245.053 149.954C245.742 147.502 246.19 144.982 246.39 142.443C249.911 148.986 255.519 153.957 261.138 158.939C266.274 163.492 271.419 168.053 274.99 173.83C280.496 182.74 281.649 194.207 278.026 204.034C273.746 215.643 263.909 223.764 254.208 231.773C251.876 233.698 249.553 235.616 247.316 237.575C242.634 241.674 237.924 246.754 237.773 252.975C237.733 254.642 238.03 256.285 238.329 257.931C238.539 259.094 238.75 260.258 238.842 261.433C239.064 264.27 238.364 267.498 235.962 269.023C234.949 269.667 233.744 269.932 232.556 270.103C220.242 271.882 205.157 263.549 201.644 251.613C198.197 239.9 204.248 225.451 212.198 216.184C217.136 210.428 223.527 206.314 229.938 202.186C233.847 199.67 237.764 197.149 241.365 194.247C244.739 191.527 248.071 188.596 250.206 184.825C252.341 181.054 253.108 176.259 251.19 172.373C249.618 169.188 246.521 166.977 243.483 164.808C239.663 162.081 235.939 159.422 235.463 154.982C235.522 156.977 236.364 159.212 237.199 161.427C237.927 163.359 238.649 165.276 238.841 167.005C239.254 170.719 238.307 173.907 235.592 176.473ZM241.876 168.858C247.064 168.914 250.111 175.482 248.652 180.461C247.192 185.44 242.906 188.984 238.841 192.209C236.802 193.826 234.55 195.523 231.947 195.542L35.6748 197.011L34.8148 181.785L72.6687 181.749C77.5649 181.744 83.1165 182.024 86.3058 185.74C87.4655 187.09 89.5307 185.62 90.9456 184.539C94.2976 181.979 98.8491 181.854 103.067 181.836L241.556 181.275C243.041 181.268 245.039 180.77 244.99 179.285L235.678 178.935C239.022 176.633 241.33 172.881 241.876 168.858ZM97.8464 180.097C99.9238 175.08 101.5 169.855 102.544 164.526C102.837 163.029 103.089 161.496 102.889 159.984C102.292 155.446 97.9826 152.46 94.0239 150.162C95.7137 150.128 97.1548 148.934 98.2394 147.638C98.5412 147.277 98.8294 146.902 99.1177 146.527C99.865 145.554 100.612 144.581 101.597 143.861C103.617 142.385 103.941 142.358 108.114 142.016C108.544 141.981 109.015 141.942 109.532 141.898C113.202 141.587 122.078 138.243 128.559 135.801C131.865 134.555 134.548 133.545 135.599 133.291C149.973 129.823 159.937 134.364 162.18 136.811C163.405 138.147 163.705 140.063 163.951 141.858C165.058 149.935 166.166 158.139 165 166.208C164.782 167.714 164.38 169.375 163.102 170.202C161.822 171.032 160.616 171.977 159.504 173.022C157.721 174.697 156.118 177.417 157.503 179.434L97.8464 180.097ZM179.665 69.1C179.028 68.4876 177.878 68.5367 177.295 69.2012C176.712 69.8658 176.813 71.0125 177.503 71.565C179.836 73.4327 181.626 75.9708 182.603 78.7954C181.335 78.2725 179.938 78.0638 178.573 78.1932C179.982 81.4085 180.939 84.8217 181.407 88.3011L177.006 85.6755C176.611 85.4403 176.189 85.1973 175.73 85.2108C175.271 85.2244 174.793 85.6137 174.866 86.0669C176.514 86.5667 177.364 88.5114 177.198 90.2257C177.032 91.94 176.102 93.4723 175.195 94.9368L170.831 101.987C171.79 103.105 173.606 102.079 174.55 100.949C177.271 97.6926 178.899 93.5377 179.113 89.2993C179.638 89.3674 180.092 89.6817 180.541 89.9931C181.06 90.3521 181.573 90.7072 182.182 90.6766C183.021 90.6346 183.655 89.8199 183.785 88.9906C183.916 88.1612 183.666 87.3244 183.419 86.522L181.395 79.9482C183.045 80.1269 183.789 81.7932 184.512 83.4117L184.512 83.4122C184.721 83.88 184.928 84.3438 185.155 84.7665C186.439 87.1593 188.923 88.6179 191.286 89.9559C188.721 94.704 185.967 99.4131 182.278 103.351C178.588 107.29 173.859 110.441 168.548 111.393C167.655 111.553 166.725 111.649 165.852 111.406C164.758 111.103 163.904 110.323 163.053 109.545L163.052 109.545C162.765 109.282 162.478 109.02 162.183 108.777C159.218 106.336 155.311 105.744 151.404 105.153C147.493 104.561 143.582 103.969 140.617 101.52L140.533 101.45C140.207 101.179 139.869 100.898 139.454 100.835C139.003 100.767 138.462 101.114 138.534 101.564C138.589 101.917 138.162 102.64 137.443 102.253C134.67 100.759 133.865 97.5057 133.133 94.5502C132.882 93.5339 132.639 92.5529 132.328 91.6907C132.153 91.206 131.397 91.4522 131.073 91.853L131.032 91.905L130.994 91.9515C130.688 92.3365 130.328 92.7875 129.87 92.6652C129.324 90.6546 129.514 88.382 129.698 86.1833C129.774 85.2881 129.848 84.4052 129.87 83.5572C129.872 83.4804 129.896 83.2487 129.933 82.8855C130.357 78.7468 132.528 57.528 124.358 53.7248C126.3 53.3419 129.435 53.6962 132.213 55.4001C135.023 57.1239 137.043 60.2843 136.91 60.4514C138.851 60.1671 140.67 59.4175 142.493 58.6668C144.032 58.0328 145.573 57.398 147.191 57.0418C149.155 56.6095 151.184 56.5985 153.195 56.5895L155.851 56.5775C158.712 53.4691 158.601 50.064 158.473 46.1153C158.448 45.3677 158.423 44.6007 158.418 43.8125C163.376 44.4638 168.632 53.8109 170.289 59.419C170.981 61.7613 173.025 63.2007 175.092 64.6564C176.891 65.9233 178.707 67.2025 179.665 69.1ZM95.1478 135.225C95.7157 135.081 96.2802 134.937 96.8369 134.79C105.355 132.536 113.306 128.57 121.187 124.63C130.577 119.935 140.129 115.128 147.663 107.817C148.245 107.252 149.168 107.291 149.973 107.394C152.949 107.778 155.876 108.538 158.663 109.649C160.123 110.232 161.765 111.233 161.775 112.805C161.779 113.358 161.567 113.888 161.357 114.4L159.954 117.839C159.356 119.306 158.747 120.828 158.799 122.411C158.85 123.995 159.75 125.666 161.273 126.102C162.797 126.537 164.679 125.119 164.285 123.585C163.611 120.956 163.15 118.274 162.907 115.571C165.876 121.45 164.852 128.465 163.757 134.959C159.828 132.889 155.716 131.168 151.483 129.823C150.03 129.361 148.4 128.953 147.027 129.617C143.665 131.243 137.337 131.676 136.713 131.239C136.09 130.802 135.238 131.013 134.52 131.265C133.363 131.672 131.16 132.531 128.527 133.557C122.067 136.076 113.023 139.601 110.534 139.917C109.878 140 109.219 140.061 108.56 140.123C107.135 140.256 105.711 140.389 104.326 140.739C102.3 141.251 100.303 142.313 99.2312 144.107C98.4302 143.666 97.9302 142.887 97.4275 142.104C97.1849 141.726 96.9416 141.347 96.6635 141.004C95.8093 139.952 94.0158 139.303 93.1968 140.382C92.4784 137.925 88.8407 136.977 87.0138 138.77C86.7314 139.047 86.4958 139.367 86.2603 139.686L86.2603 139.686C86.0154 140.018 85.7706 140.35 85.4733 140.634C84.8901 141.192 83.9565 141.536 83.2797 141.096C86.0456 137.536 90.7015 136.354 95.1478 135.225ZM86.1324 179.85C84.0455 180.601 81.743 179.87 79.6728 179.074C77.7159 178.322 75.673 177.425 74.4842 175.699C73.0535 173.621 73.2077 170.879 73.4185 168.364L74.3017 157.833C72.992 158.934 72.0301 160.443 71.5845 162.095C70.5262 159.761 72.1004 156.642 74.6072 156.107C73.5481 155.23 71.8048 155.806 71.0573 156.96C70.3098 158.114 70.3267 159.6 70.5453 160.958C70.6042 161.324 70.676 161.69 70.7478 162.056C70.9421 163.046 71.1365 164.036 71.0767 165.038C69.5031 162.579 69.2032 159.351 70.2968 156.644C70.7921 155.419 71.67 154.219 72.9538 153.903C74.2377 153.588 75.8265 154.637 75.6138 155.942C75.1264 158.932 76.5209 162.002 78.6593 164.148C80.7976 166.295 83.5998 167.647 86.4283 168.733C87.4693 169.133 88.7636 170.048 88.256 171.041C87.7259 172.078 87.3603 173.252 87.5424 174.402C87.7244 175.552 88.567 176.651 89.7146 176.85C91.1291 177.094 92.388 175.999 93.4049 174.985L99.4127 169C98.6121 171.224 97.673 173.399 96.6024 175.507C95.8692 176.95 95.0305 178.413 93.7049 179.343C92.3793 180.273 90.4386 180.515 89.1847 179.49C88.4861 178.919 87.5329 179.299 86.6456 179.652C86.4711 179.722 86.2993 179.79 86.1324 179.85ZM85.5376 158.905C84.9772 158.533 84.4163 158.161 83.8351 157.833C82.0346 156.818 79.6435 156.271 77.9907 157.513C77.4609 155.808 78.5083 153.976 79.8744 152.826C82.2912 150.791 85.8344 150.195 88.7843 151.325C91.5811 152.397 94.4199 153.565 96.6415 155.574C98.863 157.583 100.382 160.621 99.8111 163.561C99.1863 163.713 98.6649 163.211 98.1777 162.743L98.1773 162.742C98.0845 162.653 97.9928 162.565 97.902 162.483C96.5203 161.233 94.6252 161.199 92.6939 161.164C91.5196 161.143 90.3319 161.122 89.238 160.827C87.8864 160.463 86.7134 159.685 85.5377 158.905L85.5376 158.905ZM89.821 174.096C90.3766 172.706 90.7163 171.175 90.4126 169.709C90.1088 168.242 89.05 166.868 87.5929 166.523C84.2219 165.726 81.1577 163.692 79.1137 160.896C78.7019 160.332 78.3669 159.453 78.9153 159.021C79.1401 158.844 79.4466 158.818 79.7328 158.822C81.5787 158.85 83.1938 159.811 84.8116 160.774C85.466 161.163 86.1209 161.553 86.7916 161.881C88.3958 162.666 90.1634 163.115 91.9478 163.191C92.3052 163.206 92.6665 163.207 93.0282 163.208H93.0287C94.1676 163.211 95.3102 163.214 96.3451 163.658C97.7089 164.244 98.7149 166.019 97.8633 167.235C95.842 170.12 93.0186 172.329 90.2386 174.494L89.821 174.096ZM192.142 91.6147C192.452 91.0541 192.912 90.4103 193.549 90.4828C194.373 90.5767 194.539 91.7014 194.426 92.5231C193.623 98.3527 190.014 103.536 185.424 107.217C180.833 110.899 175.309 113.229 169.722 115.077C169.338 115.204 168.962 115.443 168.592 115.679C167.886 116.128 167.204 116.562 166.541 116.164C165.777 115.706 165.972 114.449 166.667 113.892C167.298 113.387 168.138 113.279 168.947 113.174C169.03 113.164 169.112 113.153 169.194 113.142C174.596 112.415 179.421 109.21 183.111 105.198C186.802 101.187 189.502 96.3836 192.142 91.6147ZM91.9767 140.719C92.4633 141.299 92.9995 141.938 93.7381 141.922C94.3594 141.908 94.7464 142.413 95.1474 142.935C95.4317 143.306 95.723 143.686 96.1099 143.897C97.0351 144.401 97.1146 145.805 96.5074 146.666C95.9002 147.527 94.8464 147.947 93.8269 148.213C91.7481 148.756 89.5531 148.85 87.4355 148.486C86.0546 148.249 84.623 147.764 83.7526 146.665C82.8822 145.567 82.8574 143.723 84.01 142.926C84.3955 142.66 84.8596 142.535 85.321 142.412C85.8713 142.265 86.4178 142.118 86.8226 141.733C87.1231 141.447 87.3031 141.066 87.4828 140.685C87.6711 140.286 87.8591 139.888 88.185 139.6C88.7127 139.135 89.512 139.071 90.1761 139.304C90.8401 139.536 91.3859 140.023 91.8419 140.559C91.8864 140.611 91.9313 140.665 91.9767 140.719ZM88.0841 183.587C87.8706 183.671 87.6298 183.685 87.4082 183.625C87.1937 183.567 86.9982 183.441 86.8568 183.27C86.2818 182.573 87.0833 181.314 87.9581 181.539C88.8328 181.765 88.9246 183.255 88.0841 183.587ZM159.204 179.215C158.992 179.47 158.473 179.444 158.418 179.116C158.191 177.77 158.083 176.113 159.197 175.323L159.386 178.262C159.407 178.593 159.417 178.96 159.204 179.215ZM148.035 60.2024C149.244 61.0025 150.198 62.1823 150.727 63.5321C150.834 63.8071 151.072 63.9889 151.312 64.1723C151.438 64.2687 151.565 64.3655 151.674 64.4766C151.989 64.7989 152.041 65.4878 151.599 65.5778C151.406 65.6172 151.216 65.5107 151.047 65.4097C148.337 63.7913 145.041 62.4847 142.084 63.59C142.57 63.8383 142.816 64.4755 142.622 64.9858C143.225 65.0076 143.788 65.279 144.33 65.5451L145.763 66.248L145.613 66.6709C143.454 65.5717 140.817 65.4574 138.571 66.3657C139.318 66.4791 140.078 66.4998 140.829 66.4273L144.117 68.084C144.36 68.2069 144.618 68.3419 144.755 68.578C144.892 68.814 144.84 69.18 144.585 69.2773C142.605 67.5311 139.804 66.759 137.209 67.2439C136.906 67.3005 136.699 66.8781 136.828 66.5982C136.956 66.3182 137.264 66.1745 137.551 66.0617C138.989 65.4953 140.506 65.129 142.045 64.9765C141.275 64.2631 140.384 63.6815 139.421 63.2644C139.263 62.7221 140.045 62.2023 140.483 62.5586C143.815 61.9055 147.385 62.5535 150.274 64.3362C150.298 63.7694 149.878 63.2927 149.485 62.8839L145.796 59.0494C147.949 59.3222 150.059 59.9283 152.029 60.8397C152.474 61.0458 152.914 61.2684 153.318 61.5477C154.837 62.5996 155.741 64.4813 155.613 66.325C154.693 64.3795 153.236 62.6913 151.446 61.4961C150.423 60.8129 149.263 60.281 148.035 60.2024ZM155.621 78.1062C155.411 76.4793 155.402 74.7439 156.176 73.2976C156.407 72.865 156.728 72.4494 157.184 72.2681C157.882 71.9907 158.684 72.3448 159.235 72.8555C160.599 74.1225 160.889 76.1749 160.772 78.0334C160.722 78.8409 160.603 79.6669 160.207 80.3725C159.811 81.0782 159.087 81.6459 158.278 81.6578C157.466 81.6698 156.724 81.1205 156.302 80.4267C155.879 79.7329 155.724 78.9119 155.621 78.1062ZM136.195 84.1585C134.661 81.8099 134.764 78.5062 136.443 76.2582C136.643 75.9896 136.871 75.7293 137.169 75.5757C137.75 75.2766 138.492 75.457 138.994 75.8736C139.497 76.2902 139.8 76.9004 140.018 77.5157C140.667 79.3383 140.694 81.3757 140.094 83.2148C139.73 84.3302 138.827 85.5369 137.671 85.3352C137.033 85.2239 136.55 84.7007 136.195 84.1585ZM150.936 96.2217C151.121 96.1705 151.304 96.1196 151.44 95.9897C151.727 95.7145 151.626 95.1828 151.3 94.955C150.973 94.7272 150.515 94.7667 150.167 94.9597C149.814 95.1551 149.534 95.5417 149.594 95.9403C149.653 96.3389 150.163 96.6365 150.491 96.4022C150.621 96.3092 150.779 96.2653 150.936 96.2217ZM155.08 89.7461C157.627 89.1816 159.052 89.2531 161.237 89.8101L161.698 89.9303C163.879 90.4998 165.242 90.5023 168.01 89.6049C168.341 89.4977 168.696 89.679 168.803 90.01C168.911 90.341 163.859 91.7763 161.55 91.1931L161.124 91.0824C158.998 90.5239 157.761 90.4425 155.352 90.9763C155.012 91.0516 154.676 90.8372 154.601 90.4975C154.525 90.1578 154.74 89.8214 155.08 89.7461ZM175.091 83.6615C174.938 83.3493 174.56 83.2208 174.248 83.3745C169.764 85.5814 167.28 85.8689 163.192 85.3469L162.16 85.2191C162.042 85.2058 161.939 85.1949 161.83 85.1844L161.462 85.1517C159.028 84.9603 157.098 85.3733 154.621 86.8523C154.323 87.0307 154.225 87.4174 154.404 87.7162C154.582 88.0149 154.969 88.1124 155.268 87.934C157.572 86.558 159.273 86.2168 161.546 86.4233C161.697 86.437 161.823 86.4494 161.969 86.4656L163.481 86.6515C167.542 87.1232 175.245 83.9736 175.091 83.6615ZM143.987 89.5758C144.334 89.5511 144.635 89.8125 144.66 90.1595C144.685 90.5066 144.423 90.8079 144.076 90.8327C142.64 90.9349 141.651 91.4233 140.166 92.62L139.629 93.0636L139.494 93.1765L139.247 93.3829C137.938 94.4741 137.067 95.0688 135.91 95.5431C135.588 95.6751 133.365 96.1275 135.088 95.1993C136.811 94.2711 139.057 91.8998 139.057 91.8998L139.385 91.6308C141.052 90.2896 142.244 89.6999 143.987 89.5758ZM144.932 92.5898C144.796 92.2698 144.426 92.1211 144.105 92.2577C142.524 92.9328 141.634 93.7955 140.137 95.7539L139.675 96.3549C139.373 96.7421 139.119 97.1329 138.873 97.5122C138.33 98.3485 137.823 99.1286 136.909 99.6911C135.58 100.509 137.479 100.08 137.775 99.8977C138.955 99.1721 139.721 98.3713 140.915 96.8114L141.262 96.3584C142.558 94.6775 143.315 93.965 144.6 93.4166C144.92 93.28 145.069 92.9098 144.932 92.5898Z" fill="#682B82"/>
<path fill-rule="evenodd" clip-rule="evenodd" d="M147.139 90.5887C146.624 90.1242 145.875 89.982 145.372 89.5044C144.894 89.0518 144.712 88.3137 144.923 87.6907C145.134 87.0677 145.728 86.5926 146.382 86.5233C148.258 86.3244 150.134 86.1255 152.01 85.9266C152.456 85.8794 152.948 85.844 153.309 86.1093C153.86 86.5145 153.773 87.3999 153.375 87.9558C152.976 88.5117 152.363 88.8699 151.883 89.3572C151.265 89.9852 150.878 90.8363 150.812 91.7151C150.763 92.3677 150.834 93.1454 150.317 93.5464C149.668 94.0497 148.708 93.4549 148.31 92.736C147.913 92.017 147.749 91.1386 147.139 90.5887H147.139Z" fill="#3A1849"/>
<path fill-rule="evenodd" clip-rule="evenodd" d="M223.219 179.514C227.205 179.531 232.876 179.387 235.773 176.65C238.489 174.084 239.435 170.896 239.023 167.183C238.61 163.469 235.754 158.894 235.645 155.159C236.498 163.131 247.823 165.361 251.372 172.55C253.29 176.437 252.523 181.231 250.388 185.002C248.253 188.773 244.92 191.705 241.546 194.424C232.04 202.086 220.329 207.095 212.379 216.362C204.429 225.628 198.379 240.078 201.826 251.79C205.339 263.726 220.423 272.059 232.737 270.281C233.925 270.109 235.13 269.844 236.143 269.201C238.546 267.675 239.246 264.448 239.024 261.61C238.802 258.773 237.886 255.997 237.955 253.152C238.106 246.931 242.816 241.852 247.498 237.752C259.043 227.642 272.899 218.61 278.207 204.211C281.83 194.384 280.678 182.917 275.171 174.008C267.694 161.909 253.312 155.143 246.571 142.62C246.371 145.159 245.923 147.679 245.235 150.132C244.94 151.181 244.435 152.38 243.371 152.617C242.254 152.867 254.732 135.136 229.652 113.027C220.327 104.806 208.768 98.837 197.211 93.66C193.25 106.216 181.656 116.014 168.615 117.826C167.724 117.95 167.521 119.132 167.541 120.031C167.824 132.449 168.106 144.866 168.389 157.284C168.512 162.679 168.155 169.044 163.638 171.998C161.776 173.216 161.199 176.026 162.43 177.879C163.662 179.733 166.476 180.289 168.32 179.045C166.18 175.431 168.627 170.025 172.755 169.249C174.275 168.963 174.76 167.059 174.926 165.521C175.674 158.624 176.422 151.727 177.17 144.829C177.458 152.698 177.746 160.567 178.035 168.435C185.695 164.984 194.62 171.187 202.851 169.499C196.037 164.778 189.749 158.727 186.885 150.948C184.022 143.168 185.361 133.431 191.738 128.134C187.94 134.203 187.19 142.078 189.774 148.754C192.267 155.191 197.473 160.159 202.783 164.57C204.428 165.937 206.198 167.423 206.707 169.501C207.216 171.579 205.617 174.236 203.51 173.862C196.009 171.041 187.884 169.893 179.895 170.526C177.42 170.722 174.823 171.142 172.894 172.706C170.965 174.27 170.042 177.319 171.535 179.303C188.763 179.373 205.991 179.444 223.219 179.514Z" fill="white"/>
<path fill-rule="evenodd" clip-rule="evenodd" d="M232.556 270.103C233.744 269.932 234.949 269.667 235.962 269.023C238.365 267.498 239.065 264.27 238.843 261.433C238.621 258.596 237.705 255.82 237.774 252.975C237.925 246.754 242.635 241.674 247.317 237.575C258.862 227.465 272.718 218.432 278.026 204.034C280.152 198.269 253.465 215.898 238.843 236.654C228.54 251.278 227.466 270.838 232.556 270.103Z" fill="#E7EAEE"/>
<path fill-rule="evenodd" clip-rule="evenodd" d="M242.373 126.734C240.564 122.378 235.521 118.184 229.471 112.85C220.145 104.629 208.586 98.6596 197.029 93.4826C208.362 101.738 222.177 108.629 232.008 118.99C236.8 124.04 240.041 134.217 242.75 137.488C244.824 139.992 247.532 139.158 242.373 126.734Z" fill="#E7EAEE"/>
<path fill-rule="evenodd" clip-rule="evenodd" d="M162.516 125.025C162.928 124.128 163.217 119.987 161.052 119.987C159.701 121.52 159.84 124.462 162.516 125.025Z" fill="#3A1849"/>
<path fill-rule="evenodd" clip-rule="evenodd" d="M96.8365 134.79C91.9213 136.09 86.3985 137.081 83.2793 141.096C83.9561 141.536 84.8897 141.192 85.4729 140.634C86.0562 140.076 86.4374 139.335 87.0133 138.77C88.8403 136.977 92.478 137.925 93.1964 140.382C94.0154 139.303 95.8089 139.952 96.6631 141.004C97.5173 142.056 98.0433 143.453 99.2307 144.107C100.303 142.313 102.3 141.251 104.325 140.739C106.351 140.227 108.46 140.179 110.533 139.917C114.038 139.473 117.462 138.402 120.595 136.771C120.405 137.162 133.386 131.533 145.266 130.716C153.94 130.121 162.099 134.085 163.757 134.959C164.851 128.465 165.875 121.45 162.907 115.571C163.149 118.274 163.611 120.956 164.285 123.585C164.679 125.119 162.796 126.537 161.273 126.102C159.749 125.667 158.85 123.995 158.798 122.411C158.747 120.828 159.356 119.306 159.954 117.839C160.422 116.693 160.889 115.546 161.357 114.4C161.566 113.888 161.779 113.358 161.775 112.805C161.765 111.233 160.122 110.232 158.662 109.649C155.875 108.538 152.948 107.778 149.973 107.394C149.168 107.291 148.244 107.252 147.662 107.817C140.129 115.128 130.577 119.935 121.187 124.63C113.305 128.57 105.355 132.536 96.8365 134.79Z" fill="white"/>
<path fill-rule="evenodd" clip-rule="evenodd" d="M99.2311 144.107C100.303 142.313 102.3 141.251 104.325 140.739C106.351 140.227 108.461 140.179 110.534 139.917C111.342 139.814 114.663 139.29 118.974 137.778C125.207 135.591 133.764 132.099 141.916 131.211C152.557 130.051 162.046 134.057 163.757 134.959C164.852 128.465 161.15 129.244 159.163 129.039C115.228 124.501 98.0436 143.453 99.2311 144.107Z" fill="#E7EAEE"/>
</svg>
