<svg width="1440" height="745" viewBox="0 0 1440 745" fill="none" xmlns="http://www.w3.org/2000/svg">
<g clip-path="url(#clip0_2205_2620)">
<rect width="1440" height="745" fill="white"/>
<mask id="mask0_2205_2620" style="mask-type:alpha" maskUnits="userSpaceOnUse" x="0" y="0" width="1440" height="745">
<rect width="1440" height="745" fill="#D9D9D9"/>
</mask>
<g mask="url(#mask0_2205_2620)">
<g opacity="0.32" filter="url(#filter0_f_2205_2620)">
<ellipse cx="80.283" cy="326.485" rx="80.283" ry="326.485" transform="matrix(1 0 0 -1 -20 757.97)" fill="#FB7185"/>
<ellipse cx="80.283" cy="326.485" rx="80.283" ry="326.485" transform="matrix(1 0 0 -1 168.491 870.829)" fill="#F472B6"/>
<ellipse cx="80.283" cy="326.485" rx="80.283" ry="326.485" transform="matrix(1 0 0 -1 356.981 1031.28)" fill="#A78BFA"/>
<ellipse cx="80.283" cy="326.485" rx="80.283" ry="326.485" transform="matrix(1 0 0 -1 545.472 1055)" fill="#93C5FD"/>
<ellipse cx="80.283" cy="326.485" rx="80.283" ry="326.485" transform="matrix(1 0 0 -1 733.962 1055)" fill="#38BDF8"/>
<ellipse cx="80.283" cy="326.485" rx="80.283" ry="326.485" transform="matrix(1 0 0 -1 922.453 1031.28)" fill="#2DD4BF"/>
<ellipse cx="80.283" cy="326.485" rx="80.283" ry="326.485" transform="matrix(1 0 0 -1 1110.94 870.829)" fill="#A3E635"/>
<ellipse cx="80.283" cy="326.485" rx="80.283" ry="326.485" transform="matrix(1 0 0 -1 1299.43 757.97)" fill="#FACC15"/>
</g>
</g>
<g style="mix-blend-mode:overlay">
<path d="M-43.5807 800.703C33.2517 846.176 135.577 776.496 121.065 688.21C139.928 737.591 177.074 771.938 216.648 777.092C177.877 711.245 174.273 621.34 265.037 602.53C313.613 592.464 352.422 611.126 379.259 639.165C371.359 603.441 345.474 576.314 311.036 578.453C335.352 565.597 365.588 570.825 379.856 593.506C392.351 613.377 391.884 620.54 399.616 627.722C407.366 634.662 423.24 633.006 426.173 631.127C419.038 593.078 416.517 529.24 463.954 528.347C316.975 429.568 140.862 493.033 92.977 627.834C56.2977 748.085 -5.85551 790.376 -43.5994 800.703H-43.5807ZM399.167 577.244C398.626 572.406 399.559 567.401 402.043 563.42C404.565 566.192 406.208 569.708 406.974 573.411C408.094 578.881 407.254 584.798 404.415 589.338C401.427 586.045 399.672 581.709 399.167 577.225V577.244Z" fill="black"/>
<path style="mix-blend-mode:multiply" d="M189.121 770.042L295.013 599.834C178.177 591.052 109.394 636.488 121.048 688.213C135.372 725.741 160.286 754.599 188.785 768.535C123.868 690.576 175.899 597.155 294.995 599.834L189.121 770.042Z" fill="url(#paint0_linear_2205_2620)"/>
<path d="M262.404 783.152L302.221 643.886H328.834L352.721 727.185L397.991 643.886H425.444L430.468 783.152H398.196L397.356 700.057L352.721 783.152H340.563L316.041 700.057L294.658 783.152H262.386H262.404Z" fill="black"/>
<path d="M499.848 643.886L482.666 783.152H450.394L467.576 643.886H499.848Z" fill="black"/>
<path d="M613.865 778.77C609.252 781.058 597.934 786.287 579.912 786.287C553.504 786.287 538.209 775.011 530.664 767.699C521.643 758.712 511.801 743.697 511.801 719.472C511.801 695.247 521.027 675.413 534.007 662.463C545.735 650.779 564.392 640.75 589.96 640.75C611.549 640.75 624.547 647.857 629.571 650.779L625.593 684.809C619.934 679.172 609.252 670.817 590.595 670.817C577.185 670.817 566.279 674.371 557.482 683.972C548.892 693.163 544.914 705.685 544.914 716.756C544.914 728.44 549.526 739.102 555.802 745.353C562.095 751.623 572.572 756.201 585.347 756.201C599.186 756.201 610.279 750.358 618.048 744.088L613.865 778.751V778.77Z" fill="black"/>
<path d="M693.274 643.892C706.684 643.892 719.887 645.138 730.365 656.414C735.183 661.419 740.431 670.405 740.431 684.806C740.431 697.961 735.818 708.399 728.908 715.283C722.838 721.125 714.453 725.089 706.702 726.558L742.747 783.139H705.022L671.274 728.233L664.57 783.139H632.298L649.48 643.873H693.274V643.892ZM673.796 707.152H681.751C686.999 707.152 694.955 706.52 700.614 702.147C706.273 697.756 707.748 691.709 707.748 685.867C707.748 681.476 706.702 675.838 701.044 672.303C696.86 669.587 690.772 668.954 683.432 668.954H678.614L673.796 707.171V707.152Z" fill="black"/>
<path d="M890.061 658.928C902.014 670.408 909.764 687.953 909.764 708.42C909.764 728.887 902.854 749.763 888.175 764.796C870.564 782.751 848.563 786.305 830.336 786.305C812.108 786.305 793.657 783.179 777.11 766.471C767.473 756.666 757.407 740.59 757.407 717.816C757.407 693.386 767.249 674.39 780.453 661.868C798.269 644.955 819.859 640.787 837.881 640.787C864.699 640.787 880.835 650.183 890.061 658.947V658.928ZM803.312 683.767C795.132 692.326 790.538 704.01 790.538 715.714C790.538 728.459 795.356 738.469 801.855 744.944C811.286 754.545 822.604 756.628 832.446 756.628C842.288 756.628 853.4 755.159 863.672 744.721C871.217 736.999 876.671 724.886 876.671 710.485C876.671 701.499 874.784 690.242 865.558 681.255C856.333 672.269 845.22 670.408 836.63 670.408C822.791 670.408 811.697 675.004 803.312 683.767Z" fill="black"/>
<path d="M929.431 732.103C928.721 731.303 928.423 730.317 928.553 729.126L931.915 697.924C932.046 696.733 932.774 695.542 933.652 694.742L988.839 645.269C989.717 644.468 990.781 643.873 991.977 643.873H1036.26C1038.44 643.873 1040.25 645.659 1039.99 648.041L1037.83 667.596C1037.58 669.773 1035.38 671.764 1033.19 671.764H973.562C971.377 671.764 969.397 673.345 969.155 675.745L961.217 750.839C960.956 753.221 962.767 755.007 964.953 755.007H1024.58C1026.98 755.007 1028.36 756.998 1028.13 759.175L1025.93 778.972C1025.69 781.149 1023.91 782.953 1021.52 782.953H976.849C975.654 782.953 974.907 782.563 974.178 781.763L929.45 732.084L929.431 732.103Z" fill="black"/>
<path d="M1050.93 732.103C1050.22 731.303 1049.76 730.112 1049.89 728.921L1058.61 647.855C1058.85 645.678 1060.83 643.873 1063.22 643.873H1089.74C1091.93 643.873 1093.74 645.659 1093.5 647.855L1082.33 750.951C1082.07 753.332 1083.5 754.933 1085.9 754.933H1136.75C1139.14 754.933 1140.73 756.923 1140.48 759.1L1138.45 778.804C1138.19 781.186 1136.21 782.972 1133.82 782.972H1098.31C1097.12 782.972 1095.98 782.377 1095.27 781.577L1050.93 732.103ZM1152.18 782.972C1149.99 782.972 1148.18 781.186 1148.44 778.804L1159.5 676.006C1159.76 673.624 1158.15 671.838 1155.76 671.838H1104.91C1102.72 671.838 1101.13 669.847 1101.36 667.67L1103.49 647.873C1103.73 645.696 1105.71 643.892 1107.9 643.892H1143.79C1144.99 643.892 1145.94 644.282 1146.65 645.082L1191.17 694.761C1191.88 695.561 1192.18 696.547 1192.05 697.738L1183.33 778.804C1183.07 781.186 1181.29 782.972 1178.88 782.972H1152.16H1152.18Z" fill="black"/>
<path d="M1209.01 782.966C1206.82 782.966 1205.01 781.18 1205.25 778.984L1216.08 678.251C1216.22 677.06 1216.94 675.87 1217.82 675.07L1251.61 644.667C1252.93 643.476 1254.69 643.867 1254.46 645.858L1240.16 778.984C1239.91 781.161 1237.94 782.966 1235.54 782.966H1209.02H1209.01ZM1253.68 782.966C1251.29 782.966 1249.89 781.18 1250.11 778.984L1252.24 759.187C1252.48 757.011 1254.28 755.02 1256.69 755.02H1306.34C1308.53 755.02 1310.73 753.234 1310.98 750.852L1318.91 675.907C1319.17 673.525 1317.55 671.925 1315.35 671.925H1265.69C1263.5 671.925 1261.71 669.934 1261.95 667.757L1264.17 648.053C1264.44 645.672 1266.62 643.886 1268.81 643.886H1303.11C1304.31 643.886 1305.24 644.481 1305.95 645.281L1350.49 694.755C1351.2 695.555 1351.67 696.746 1351.54 697.936L1348.18 729.139C1348.05 730.33 1347.54 731.316 1346.67 732.116L1291.27 781.794C1290.4 782.594 1289.56 782.985 1288.36 782.985H1253.66L1253.68 782.966Z" fill="black"/>
<path d="M1371.21 732.103C1370.5 731.303 1370.03 730.112 1370.16 728.921L1373.48 697.924C1373.62 696.733 1374.34 695.542 1375.22 694.742L1430.41 645.269C1431.29 644.468 1432.35 643.873 1433.55 643.873H1479.83C1482.01 643.873 1483.82 645.659 1483.56 648.041L1481.36 667.745C1481.11 669.922 1478.91 671.912 1476.72 671.912H1415.09C1412.91 671.912 1410.93 673.494 1410.69 675.894L1406.99 712.771L1425.09 696.472C1425.96 695.672 1426.8 695.282 1428 695.282H1468.69C1471.08 695.282 1472.49 697.068 1472.26 699.263L1469.89 719.916C1469.65 722.093 1467.85 724.084 1465.44 724.084H1409.79C1407.61 724.084 1405.4 725.87 1405.16 728.251L1402.51 750.932C1402.25 753.314 1403.87 754.914 1406.07 754.914H1467.7C1469.89 754.914 1471.68 756.905 1471.44 759.082L1469.48 778.786C1469.22 781.167 1467.03 782.953 1464.85 782.953H1418.57C1417.37 782.953 1416.44 782.358 1415.73 781.558L1371.19 732.084L1371.21 732.103Z" fill="black"/>
</g>
</g>
<defs>
<filter id="filter0_f_2205_2620" x="-208" y="-82.9995" width="1856" height="1326" filterUnits="userSpaceOnUse" color-interpolation-filters="sRGB">
<feFlood flood-opacity="0" result="BackgroundImageFix"/>
<feBlend mode="normal" in="SourceGraphic" in2="BackgroundImageFix" result="shape"/>
<feGaussianBlur stdDeviation="94" result="effect1_foregroundBlur_2205_2620"/>
</filter>
<linearGradient id="paint0_linear_2205_2620" x1="295.032" y1="684.399" x2="119.778" y2="684.399" gradientUnits="userSpaceOnUse">
<stop stop-color="#4A92E0"/>
<stop offset="0.48" stop-color="#913AE2"/>
<stop offset="1" stop-color="#D67600"/>
</linearGradient>
<clipPath id="clip0_2205_2620">
<rect width="1440" height="745" fill="white"/>
</clipPath>
</defs>
</svg>
