<svg width="24" height="18" viewBox="0 0 24 18" fill="none" xmlns="http://www.w3.org/2000/svg">
<rect y="0.428589" width="24" height="17.1429" rx="2" fill="white"/>
<mask id="mask0_340_6096" style="mask-type:luminance" maskUnits="userSpaceOnUse" x="0" y="0" width="24" height="18">
<rect y="0.428589" width="24" height="17.1429" rx="2" fill="white"/>
</mask>
<g mask="url(#mask0_340_6096)">
<rect y="0.428589" width="24" height="17.1429" fill="#0A17A7"/>
<path fill-rule="evenodd" clip-rule="evenodd" d="M-1.0988 -1.21405L9.14332 5.69434V-0.714239H14.8576V5.69434L25.0997 -1.21405L26.3779 0.680892L18.2801 6.1429H24.0005V11.8572H18.2801L26.3779 17.3192L25.0997 19.2141L14.8576 12.3057V18.7143H9.14332V12.3057L-1.0988 19.2141L-2.37695 17.3192L5.72081 11.8572H0.00046134V6.1429H5.72081L-2.37695 0.680893L-1.0988 -1.21405Z" fill="white"/>
<path d="M16.001 5.85618L26.857 -1.28571" stroke="#DB1F35" stroke-width="0.666667" stroke-linecap="round"/>
<path d="M17.1543 12.1693L26.8862 18.7289" stroke="#DB1F35" stroke-width="0.666667" stroke-linecap="round"/>
<path d="M6.86209 5.83758L-3.28906 -1.00366" stroke="#DB1F35" stroke-width="0.666667" stroke-linecap="round"/>
<path d="M7.9631 12.0899L-3.28906 19.5518" stroke="#DB1F35" stroke-width="0.666667" stroke-linecap="round"/>
<path fill-rule="evenodd" clip-rule="evenodd" d="M0 10.7143H10.2857V17.5714H13.7143V10.7143H24V7.28573H13.7143V0.428589H10.2857V7.28573H0V10.7143Z" fill="#E6273E"/>
</g>
</svg>
