<svg width="88" height="88" viewBox="0 0 88 88" fill="none" xmlns="http://www.w3.org/2000/svg">
<path d="M79.2631 57.5101C79.2685 57.7862 79.4966 58.0057 79.7727 58.0004C80.0488 57.9951 80.2683 57.767 80.263 57.4909L79.2631 57.5101ZM38.8977 60.2183L39.0012 59.7292L39.0012 59.7292L38.8977 60.2183ZM0.752047 35.4581C0.512372 35.5952 0.429264 35.9007 0.566416 36.1404C0.703568 36.38 1.00905 36.4632 1.24872 36.326L0.752047 35.4581ZM71.7768 49.4043C71.5496 49.2474 71.2381 49.3043 71.0812 49.5315C70.9242 49.7587 70.9811 50.0701 71.2083 50.2271L71.7768 49.4043ZM85.1785 48.3349C85.2862 48.0806 85.1675 47.7872 84.9132 47.6794C84.6589 47.5717 84.3655 47.6905 84.2578 47.9447L85.1785 48.3349ZM79.763 57.5005C80.263 57.4909 80.263 57.4906 80.2629 57.4903C80.2629 57.4901 80.2629 57.4897 80.2629 57.4892C80.2629 57.4883 80.2629 57.487 80.2628 57.4854C80.2628 57.4821 80.2627 57.4774 80.2625 57.4713C80.2622 57.459 80.2618 57.4411 80.2611 57.4177C80.2597 57.371 80.2575 57.3025 80.2541 57.2135C80.2471 57.0357 80.2351 56.7763 80.2148 56.4474C80.1742 55.7897 80.1003 54.8531 79.9672 53.733C79.7013 51.4954 79.1976 48.5137 78.2445 45.5573C77.2933 42.6069 75.8822 39.6422 73.7782 37.4747C71.6581 35.2906 68.8417 33.9265 65.1492 34.1965L65.2221 35.1938C68.5886 34.9476 71.1239 36.176 73.0606 38.1712C75.0135 40.1829 76.3643 42.9841 77.2927 45.8641C78.2193 48.7381 78.7128 51.6512 78.9742 53.851C79.1047 54.9496 79.177 55.8672 79.2167 56.5091C79.2365 56.8299 79.2482 57.0817 79.2548 57.2526C79.2582 57.338 79.2603 57.4031 79.2615 57.4466C79.2621 57.4683 79.2626 57.4846 79.2628 57.4952C79.2629 57.5005 79.263 57.5045 79.2631 57.507C79.2631 57.5082 79.2631 57.5091 79.2631 57.5096C79.2631 57.5099 79.2631 57.51 79.2631 57.5102C79.2631 57.5102 79.2631 57.5101 79.763 57.5005ZM65.1492 34.1965C61.4209 34.4691 58.89 36.5256 56.9573 39.3089C55.041 42.0687 53.6697 45.6077 52.2757 48.9177C50.8653 52.2667 49.4339 55.3767 47.4004 57.452C46.3929 58.4803 45.2462 59.2443 43.8884 59.6563C42.5303 60.0683 40.9299 60.1375 39.0012 59.7292L38.7941 60.7075C40.8582 61.1445 42.6327 61.0823 44.1788 60.6132C45.7252 60.144 47.0121 59.2772 48.1147 58.1518C50.3016 55.9199 51.7968 52.6313 53.1973 49.3059C54.6142 45.9415 55.9379 42.5302 57.7787 39.8793C59.6031 37.252 61.8913 35.4374 65.2221 35.1938L65.1492 34.1965ZM39.0012 59.7292C35.147 58.9135 31.8372 56.4942 28.7784 53.389C25.7128 50.2769 22.964 46.5475 20.1747 43.1347C17.41 39.752 14.6001 36.6742 11.4669 35.0221C9.88946 34.1904 8.22017 33.714 6.42844 33.7445C4.63706 33.775 2.7554 34.3117 0.752047 35.4581L1.24872 36.326C3.13192 35.2483 4.8502 34.7715 6.44546 34.7443C8.04038 34.7172 9.54446 35.139 11.0005 35.9067C13.934 37.4535 16.6312 40.3793 19.4004 43.7675C22.1451 47.1258 24.9571 50.9347 28.066 54.0908C31.1817 57.2537 34.66 59.8326 38.7942 60.7075L39.0012 59.7292ZM71.2083 50.2271C71.201 50.222 71.2329 50.2469 71.3266 50.339C71.4085 50.4195 71.5163 50.5297 71.6479 50.6672C71.9107 50.9418 72.2582 51.3141 72.6641 51.7511C73.474 52.6232 74.5116 53.7478 75.5457 54.8374C76.5781 55.9252 77.6166 56.9881 78.4289 57.7356C78.8319 58.1065 79.1964 58.4158 79.485 58.6114C79.6235 58.7053 79.7802 58.798 79.9352 58.8458C80.0125 58.8695 80.1308 58.8955 80.265 58.8741C80.4205 58.8492 80.5748 58.7625 80.6733 58.6052L79.8256 58.0746C79.8957 57.9626 80.0074 57.9026 80.107 57.8866C80.1488 57.8799 80.1812 57.882 80.1993 57.8842C80.2177 57.8864 80.2283 57.8897 80.2296 57.89C80.2305 57.8903 80.2147 57.8852 80.1788 57.8658C80.1446 57.8474 80.1005 57.8206 80.0461 57.7837C79.8218 57.6317 79.5022 57.3643 79.1061 56.9998C78.3205 56.2768 77.3018 55.235 76.271 54.1489C75.2418 53.0646 74.2098 51.946 73.3968 51.0706C72.9913 50.634 72.639 50.2565 72.3703 49.9758C72.2361 49.8356 72.1202 49.7169 72.0276 49.6258C71.9468 49.5464 71.8532 49.4572 71.7768 49.4043L71.2083 50.2271ZM80.6733 58.6052C80.7499 58.4827 80.8763 58.2234 81.0249 57.9048C81.18 57.5723 81.3755 57.1395 81.5961 56.6433C82.0374 55.6505 82.5827 54.3961 83.1132 53.1659C83.6437 51.9353 84.1601 50.7276 84.5437 49.8277C84.7355 49.3776 84.8942 49.0045 85.0049 48.7439C85.0603 48.6135 85.1037 48.5113 85.1332 48.4417C85.148 48.4068 85.1593 48.3802 85.1669 48.3622C85.1708 48.3532 85.1736 48.3464 85.1756 48.3418C85.1765 48.3395 85.1773 48.3378 85.1778 48.3366C85.178 48.3361 85.1782 48.3356 85.1783 48.3353C85.1784 48.3352 85.1784 48.3351 85.1785 48.335C85.1785 48.3349 85.1785 48.3349 84.7181 48.1398C84.2578 47.9447 84.2577 47.9448 84.2577 47.9448C84.2577 47.9449 84.2576 47.945 84.2576 47.9452C84.2575 47.9454 84.2573 47.9459 84.257 47.9464C84.2566 47.9476 84.2558 47.9493 84.2549 47.9516C84.2529 47.9561 84.2501 47.9629 84.2463 47.9718C84.2387 47.9898 84.2274 48.0164 84.2126 48.0511C84.1832 48.1206 84.1398 48.2227 84.0845 48.3528C83.9739 48.6132 83.8154 48.9859 83.6238 49.4355C83.2405 50.3348 82.7247 51.5411 82.1949 52.7699C81.6649 53.9991 81.1214 55.2494 80.6823 56.2371C80.4627 56.7312 80.27 57.1576 80.1187 57.4821C79.9609 57.8204 79.8625 58.0158 79.8256 58.0746L80.6733 58.6052Z" fill="#666D80"/>
</svg>
