<svg width="32" height="32" viewBox="0 0 32 32" fill="none" xmlns="http://www.w3.org/2000/svg">
<g id="HandHeart">
<path id="Vector" d="M6 26H2C1.73478 26 1.48043 25.8946 1.29289 25.7071C1.10536 25.5196 1 25.2652 1 25V20C1 19.7348 1.10536 19.4804 1.29289 19.2929C1.48043 19.1054 1.73478 19 2 19H6" stroke="#682B82" stroke-width="2" stroke-linecap="round" stroke-linejoin="round"/>
<path id="Vector_2" d="M14 20H18L26.375 18.0738C26.6829 17.9894 27.0061 17.9771 27.3195 18.038C27.6329 18.0989 27.9281 18.2312 28.182 18.4247C28.436 18.6181 28.6419 18.8676 28.7838 19.1536C28.9256 19.4396 28.9996 19.7545 29 20.0738C29.0002 20.4592 28.8929 20.8371 28.6902 21.165C28.4875 21.4929 28.1974 21.7578 27.8525 21.93L23 24L15 26H6V19L9.125 15.875C9.40432 15.5967 9.73577 15.3761 10.1004 15.226C10.465 15.0758 10.8557 14.999 11.25 15H17.5C18.163 15 18.7989 15.2634 19.2678 15.7322C19.7366 16.2011 20 16.837 20 17.5C20 18.1631 19.7366 18.7989 19.2678 19.2678C18.7989 19.7366 18.163 20 17.5 20H14Z" stroke="#682B82" stroke-width="2" stroke-linecap="round" stroke-linejoin="round"/>
<path id="Vector_3" d="M12.0913 15C10.875 13.465 10 11.82 10 9.99997C10 7.28872 12.2087 4.99997 14.9325 4.99997C15.906 4.98855 16.8607 5.26796 17.6744 5.80242C18.4881 6.33688 19.1238 7.10206 19.5 7.99997C19.8762 7.10206 20.5119 6.33688 21.3256 5.80242C22.1393 5.26796 23.094 4.98855 24.0675 4.99997C26.7912 4.99997 29 7.28872 29 9.99997C29 13.6537 25.4775 16.8837 22.7225 18.915" stroke="#682B82" stroke-width="2" stroke-linecap="round" stroke-linejoin="round"/>
</g>
</svg>
