<svg width="146" height="48" viewBox="0 0 146 48" fill="none" xmlns="http://www.w3.org/2000/svg">
<path d="M22.1956 33.4293C21.6365 32.9335 21.1136 32.8814 20.8266 32.8814C19.7298 32.8814 18.9879 33.6752 18.9879 34.7648C18.9879 35.8544 19.7595 36.6169 20.833 36.6169C21.4388 36.6169 21.9065 36.3128 22.1935 36.0461V36.942C21.6876 37.2378 21.1582 37.3128 20.8096 37.3128C19.8956 37.3128 19.3195 36.9044 19.024 36.6315C18.4352 36.0898 18.2141 35.4607 18.2141 34.7648C18.2141 33.8523 18.5989 33.2231 19.024 32.8314C19.5448 32.3501 20.1507 32.1855 20.8458 32.1855C21.307 32.1855 21.7534 32.2668 22.1913 32.5418V33.4314L22.1956 33.4293Z" fill="black"/>
<path d="M23.9953 32.2734V36.5048H25.4769V37.2174H23.2236V32.2734H23.9953Z" fill="black"/>
<path d="M29.0633 32.9858H27.0524V34.238H29.0038V34.9505H27.0524V36.5068H29.0633V37.2193H26.2808V32.2754H29.0633V32.9858Z" fill="black"/>
<path d="M30.3934 32.2734L31.8006 35.7194L33.2079 32.2734H34.039L31.8006 37.5361L29.5623 32.2734H30.3934Z" fill="black"/>
<path d="M37.5318 32.9858H35.5209V34.238H37.4723V34.9505H35.5209V36.5068H37.5318V37.2193H34.7493V32.2754H37.5318V32.9858Z" fill="black"/>
<path d="M39.5044 32.2734C40.1166 32.2734 40.5099 32.3484 40.8351 32.563C41.3878 32.9255 41.4324 33.511 41.4324 33.7277C41.4324 34.4402 40.986 34.9589 40.3143 35.1069L41.8873 37.2194H40.9563L39.5129 35.1965H39.3769V37.2194H38.6052V32.2755H39.5044V32.2734ZM39.3769 34.5423H39.6192C39.8318 34.5423 40.6927 34.5193 40.6927 33.7339C40.6927 33.038 40.0188 32.9714 39.6426 32.9714H39.3769V34.5423Z" fill="black"/>
<path d="M48.4267 35.4013L47.8294 36.0764L48.7605 37.2181H47.823L47.3235 36.6097C47.2108 36.7285 47.0578 36.8618 46.9005 36.9722C46.5901 37.1868 46.2734 37.3139 45.7972 37.3139C44.8513 37.3139 44.2837 36.6993 44.2837 35.8993C44.2837 35.2472 44.6238 34.9055 45.0086 34.6242C45.1446 34.5284 45.3636 34.3805 45.4103 34.3492C45.236 34.1784 44.9108 33.8013 44.9108 33.3263C44.9108 32.7638 45.2743 32.1846 46.1054 32.1846C46.9366 32.1846 47.315 32.7263 47.315 33.2513C47.315 33.57 47.1874 33.7784 47.096 33.8971C46.9749 34.0534 46.8006 34.2242 46.4689 34.468L47.3617 35.5347L47.9357 34.8972L48.4267 35.4013ZM45.8631 34.8909C45.6973 34.9805 45.455 35.143 45.3104 35.2993C45.0978 35.5222 45.0383 35.7514 45.0383 35.9284C45.0383 36.3285 45.3487 36.6764 45.8248 36.6764C46.0374 36.6764 46.2096 36.6014 46.3924 36.4847C46.5518 36.3743 46.7708 36.1659 46.8622 36.0764L45.8631 34.8909ZM46.301 33.743C46.4817 33.6159 46.6029 33.4388 46.6029 33.2534C46.6029 33.0388 46.4583 32.8096 46.1033 32.8096C45.793 32.8096 45.6186 32.995 45.6186 33.2471C45.6186 33.4179 45.71 33.5805 45.793 33.6763L46.0204 33.943L46.301 33.743Z" fill="black"/>
<path d="M54.1673 36.0241H52.0118L51.4591 37.2179H50.6279L53.1384 31.9844L55.5277 37.2179H54.6966L54.1673 36.0241ZM53.8569 35.3137L53.1086 33.6386L52.3306 35.3137H53.859H53.8569Z" fill="black"/>
<path d="M58.7326 34.6472H60.8116V34.6847C60.8116 35.5305 60.5544 36.218 60.0633 36.6847C59.5425 37.1806 58.9218 37.3139 58.3457 37.3139C57.6124 37.3139 57.0894 37.1056 56.6281 36.6389C56.1371 36.143 55.8799 35.4826 55.8799 34.7722C55.8799 34.0013 56.1966 33.3346 56.6133 32.9263C57.0448 32.4971 57.7335 32.1846 58.5115 32.1846C58.9664 32.1846 59.4341 32.2804 59.8274 32.495C60.244 32.7242 60.5012 33.0138 60.6436 33.2367L60.0314 33.6596C59.8805 33.4513 59.6531 33.2304 59.4107 33.0971C59.1301 32.9346 58.8283 32.8825 58.5179 32.8825C57.8589 32.8825 57.4359 33.1492 57.1872 33.3929C56.8535 33.72 56.6494 34.2451 56.6494 34.7784C56.6494 35.2743 56.8386 35.7722 57.1702 36.1201C57.5188 36.4826 57.9482 36.616 58.4329 36.616C58.8708 36.616 59.2343 36.4889 59.5595 36.1784C59.8401 35.9118 59.9528 35.6222 59.9825 35.3409H58.7262V34.6451L58.7326 34.6472Z" fill="black"/>
<path d="M62.6269 32.2734V37.2174H61.8552V32.2734H62.6269Z" fill="black"/>
<path d="M64.6852 32.2734V36.5048H66.1668V37.2174H63.9136V32.2734H64.6852Z" fill="black"/>
<path d="M69.7511 32.9858H67.7401V34.238H69.6916V34.9505H67.7401V36.5068H69.7511V37.2193H66.9685V32.2754H69.7511V32.9858Z" fill="black"/>
<path d="M73.6452 32.2734C74.3488 32.2734 74.961 32.3484 75.5201 32.7547C76.1323 33.2068 76.4873 33.9256 76.4873 34.7485C76.4873 35.5715 76.1387 36.2819 75.4733 36.7423C74.8845 37.1507 74.3318 37.2174 73.6282 37.2174H72.5845V32.2734H73.6431H73.6452ZM73.3582 36.5048H73.692C74.0704 36.5048 74.5912 36.4757 75.0312 36.1569C75.3798 35.8965 75.7199 35.4235 75.7199 34.7485C75.7199 34.0735 75.4032 33.5839 75.0397 33.3256C74.6018 33.0151 74.064 32.9839 73.6941 32.9839H73.3604V36.5048H73.3582Z" fill="black"/>
<path d="M78.3031 32.2734V37.2174H77.5315V32.2734H78.3031Z" fill="black"/>
<path d="M82.1967 34.6472H84.2757V34.6847C84.2757 35.5305 84.0185 36.218 83.5274 36.6847C83.0066 37.1806 82.3859 37.3139 81.8098 37.3139C81.0765 37.3139 80.5535 37.1056 80.0923 36.6389C79.6012 36.143 79.344 35.4826 79.344 34.7722C79.344 34.0013 79.6607 33.3346 80.0774 32.9263C80.5089 32.4971 81.1976 32.1846 81.9756 32.1846C82.4306 32.1846 82.8982 32.2804 83.2915 32.495C83.7081 32.7242 83.9653 33.0138 84.1078 33.2367L83.4955 33.6596C83.3446 33.4513 83.1172 33.2304 82.8748 33.0971C82.5942 32.9346 82.2924 32.8825 81.982 32.8825C81.3231 32.8825 80.9 33.1492 80.6513 33.3929C80.3176 33.72 80.1135 34.2451 80.1135 34.7784C80.1135 35.2743 80.3027 35.7722 80.6343 36.1201C80.9829 36.4826 81.4123 36.616 81.897 36.616C82.3349 36.616 82.6984 36.4889 83.0236 36.1784C83.3042 35.9118 83.4169 35.6222 83.4467 35.3409H82.1903V34.6451L82.1967 34.6472Z" fill="black"/>
<path d="M86.0922 32.2734V37.2174H85.3206V32.2734H86.0922Z" fill="black"/>
<path d="M88.7754 32.9858V37.2172H88.0038V32.9858H86.8474V32.2754H89.9318V32.9858H88.7754Z" fill="black"/>
<path d="M93.427 36.0241H91.2715L90.7188 37.2179H89.8877L92.3982 31.9844L94.7875 37.2179H93.9563L93.427 36.0241ZM93.1167 35.3137L92.3684 33.6386L91.5904 35.3137H93.1188H93.1167Z" fill="black"/>
<path d="M96.2685 32.2734V36.5048H97.7501V37.2174H95.4968V32.2734H96.2685Z" fill="black"/>
<path d="M103.28 36.0241H101.125L100.572 37.2179H99.7407L102.251 31.9844L104.641 37.2179H103.809L103.28 36.0241ZM102.97 35.3137L102.221 33.6386L101.443 35.3137H102.972H102.97Z" fill="black"/>
<path d="M107.845 34.6472H109.924V34.6847C109.924 35.5305 109.667 36.218 109.176 36.6847C108.655 37.1806 108.034 37.3139 107.458 37.3139C106.725 37.3139 106.202 37.1056 105.741 36.6389C105.25 36.143 104.992 35.4826 104.992 34.7722C104.992 34.0013 105.309 33.3346 105.726 32.9263C106.157 32.4971 106.846 32.1846 107.624 32.1846C108.079 32.1846 108.547 32.2804 108.94 32.495C109.357 32.7242 109.614 33.0138 109.756 33.2367L109.144 33.6596C108.993 33.4513 108.766 33.2304 108.523 33.0971C108.243 32.9346 107.941 32.8825 107.63 32.8825C106.971 32.8825 106.548 33.1492 106.3 33.3929C105.966 33.72 105.762 34.2451 105.762 34.7784C105.762 35.2743 105.951 35.7722 106.283 36.1201C106.631 36.4826 107.061 36.616 107.545 36.616C107.983 36.616 108.347 36.4889 108.672 36.1784C108.953 35.9118 109.065 35.6222 109.095 35.3409H107.839V34.6451L107.845 34.6472Z" fill="black"/>
<path d="M113.753 32.9858H111.742V34.238H113.694V34.9505H111.742V36.5068H113.753V37.2193H110.97V32.2754H113.753V32.9858Z" fill="black"/>
<path d="M114.826 37.2187V31.9414L118.487 35.6999V32.2768H119.258V37.5249L115.598 33.7665V37.2207H114.826V37.2187Z" fill="black"/>
<path d="M124.278 33.4293C123.719 32.9335 123.196 32.8814 122.909 32.8814C121.812 32.8814 121.07 33.6752 121.07 34.7648C121.07 35.8544 121.842 36.6169 122.916 36.6169C123.521 36.6169 123.989 36.3128 124.276 36.0461V36.942C123.77 37.2378 123.241 37.3128 122.892 37.3128C121.978 37.3128 121.402 36.9044 121.107 36.6315C120.518 36.0898 120.297 35.4607 120.297 34.7648C120.297 33.8523 120.681 33.2231 121.107 32.8314C121.627 32.3501 122.233 32.1855 122.928 32.1855C123.39 32.1855 123.836 32.2668 124.274 32.5418V33.4314L124.278 33.4293Z" fill="black"/>
<path d="M126.358 35.0838L124.702 32.2754H125.58L126.745 34.2546L127.91 32.2754H128.788L127.132 35.0838V37.2193H126.36V35.0838H126.358Z" fill="black"/>
<path d="M4.00212 26.9468L8.53417 11.3525H11.5633L14.2821 20.6799L19.4349 11.3525H22.5597L23.1315 26.9468H19.4583L19.3626 17.6423L14.2821 26.9468H12.8983L10.1072 17.6423L7.67326 26.9468H4H4.00212Z" fill="black"/>
<path d="M31.0291 11.3525L29.0734 26.9468H25.4001L27.3558 11.3525H31.0291Z" fill="black"/>
<path d="M44.0055 26.4547C43.4805 26.7109 42.1923 27.2964 40.141 27.2964C37.1352 27.2964 35.3942 26.0338 34.5354 25.215C33.5087 24.2088 32.3884 22.5275 32.3884 19.8149C32.3884 17.1023 33.4385 14.8814 34.9159 13.4313C36.2509 12.1229 38.3745 11 41.2846 11C43.7419 11 45.2214 11.7959 45.7933 12.123L45.3405 15.9335C44.6964 15.3022 43.4805 14.3668 41.3569 14.3668C39.8306 14.3668 38.5892 14.7647 37.588 15.8397C36.6101 16.8689 36.1573 18.2711 36.1573 19.5107C36.1573 20.8191 36.6824 22.0129 37.3966 22.7129C38.113 23.415 39.3055 23.9275 40.7595 23.9275C42.3347 23.9275 43.5974 23.2733 44.4817 22.5712L44.0055 26.4526V26.4547Z" fill="black"/>
<path d="M53.0445 11.3517C54.5708 11.3517 56.0737 11.4913 57.2662 12.7538C57.8146 13.3143 58.412 14.3205 58.412 15.9331C58.412 17.4061 57.8869 18.5748 57.1004 19.3457C56.4095 19.9999 55.4551 20.4437 54.5729 20.6082L58.6756 26.9439H54.3816L50.5404 20.7958L49.7773 26.9439H46.104L48.0597 11.3496H53.0445V11.3517ZM50.8274 18.4353H51.7329C52.3303 18.4353 53.2358 18.3644 53.8799 17.8748C54.524 17.3831 54.6919 16.706 54.6919 16.0518C54.6919 15.5602 54.5729 14.9289 53.9288 14.533C53.4526 14.2289 52.7597 14.158 51.9242 14.158H51.3758L50.8274 18.4373V18.4353Z" fill="black"/>
<path d="M75.4445 13.0352C76.805 14.3207 77.6871 16.2853 77.6871 18.5771C77.6871 20.8688 76.9006 23.2064 75.2298 24.8898C73.2252 26.9003 70.7211 27.2982 68.6464 27.2982C66.5717 27.2982 64.4715 26.9482 62.5881 25.0773C61.4912 23.9793 60.3455 22.1793 60.3455 19.6292C60.3455 16.8937 61.4657 14.7665 62.9686 13.3644C64.9965 11.4706 67.4539 11.0039 69.5052 11.0039C72.5578 11.0039 74.3944 12.056 75.4445 13.0373V13.0352ZM65.5705 15.8166C64.6394 16.7749 64.1165 18.0833 64.1165 19.3938C64.1165 20.8209 64.6649 21.9418 65.4047 22.6668C66.4782 23.7418 67.7664 23.9752 68.8866 23.9752C70.0069 23.9752 71.2717 23.8106 72.4408 22.6418C73.2996 21.7772 73.9204 20.4209 73.9204 18.8083C73.9204 17.802 73.7057 16.5416 72.6555 15.5353C71.6054 14.529 70.3406 14.3207 69.3628 14.3207C67.7876 14.3207 66.5249 14.8353 65.5705 15.8166Z" fill="black"/>
<path d="M79.9251 21.2291C79.8443 21.1395 79.8103 21.0291 79.8252 20.8958L80.2078 17.4019C80.2227 17.2686 80.3056 17.1352 80.4055 17.0456L86.687 11.5059C86.7869 11.4163 86.9081 11.3496 87.0442 11.3496H92.0843C92.333 11.3496 92.5392 11.5496 92.5094 11.8163L92.2628 14.0059C92.2352 14.2497 91.9843 14.4726 91.7356 14.4726H84.9482C84.6995 14.4726 84.4741 14.6497 84.4465 14.9185L83.5431 23.3271C83.5133 23.5938 83.7195 23.7938 83.9682 23.7938H90.7557C91.0278 23.7938 91.1851 24.0167 91.1596 24.2605L90.9087 26.4772C90.8811 26.7209 90.6792 26.923 90.4071 26.923H85.3223C85.1863 26.923 85.1012 26.8793 85.0183 26.7897L79.9272 21.227L79.9251 21.2291Z" fill="black"/>
<path d="M93.7558 21.2291C93.675 21.1395 93.6219 21.0062 93.6368 20.8728L94.6295 11.7955C94.6571 11.5517 94.8825 11.3496 95.1545 11.3496H98.1731C98.4218 11.3496 98.628 11.5496 98.6003 11.7955L97.3292 23.3396C97.2994 23.6063 97.4631 23.7854 97.7352 23.7854H103.524C103.796 23.7854 103.976 24.0084 103.949 24.2521L103.717 26.4584C103.687 26.7251 103.462 26.9251 103.19 26.9251H99.1488C99.0127 26.9251 98.8831 26.8585 98.8023 26.7689L93.7558 21.2291ZM105.279 26.9251C105.031 26.9251 104.824 26.7251 104.854 26.4584L106.113 14.9476C106.142 14.681 105.96 14.481 105.688 14.481H99.8992C99.6504 14.481 99.4698 14.258 99.4953 14.0143L99.7376 11.7975C99.7652 11.5538 99.9906 11.3517 100.239 11.3517H104.325C104.461 11.3517 104.569 11.3954 104.65 11.485L109.718 17.0477C109.799 17.1373 109.833 17.2477 109.818 17.3811L108.825 26.4584C108.795 26.7251 108.593 26.9251 108.319 26.9251H105.277H105.279Z" fill="black"/>
<path d="M111.746 26.926C111.497 26.926 111.291 26.726 111.319 26.4801L112.552 15.2006C112.566 15.0672 112.649 14.9339 112.749 14.8443L116.595 11.44C116.746 11.3067 116.945 11.3505 116.92 11.5734L115.292 26.4801C115.264 26.7239 115.039 26.926 114.767 26.926H111.748H111.746ZM116.831 26.926C116.559 26.926 116.399 26.726 116.425 26.4801L116.667 24.2634C116.695 24.0196 116.899 23.7967 117.173 23.7967H122.825C123.074 23.7967 123.325 23.5967 123.352 23.33L124.256 14.9381C124.286 14.6714 124.101 14.4922 123.85 14.4922H118.198C117.949 14.4922 117.745 14.2693 117.772 14.0255L118.025 11.8192C118.055 11.5525 118.304 11.3525 118.552 11.3525H122.457C122.594 11.3525 122.7 11.4192 122.781 11.5088L127.85 17.0486C127.931 17.1381 127.984 17.2715 127.969 17.4048L127.587 20.8987C127.572 21.032 127.515 21.1424 127.415 21.232L121.11 26.7947C121.01 26.8843 120.914 26.9281 120.778 26.9281H116.829L116.831 26.926Z" fill="black"/>
<path d="M130.209 21.2291C130.128 21.1395 130.075 21.0062 130.09 20.8728L130.468 17.4019C130.483 17.2686 130.566 17.1352 130.666 17.0456L136.947 11.5059C137.047 11.4163 137.168 11.3496 137.304 11.3496H142.572C142.821 11.3496 143.027 11.5496 142.997 11.8163L142.746 14.0226C142.719 14.2664 142.468 14.4893 142.219 14.4893H135.204C134.955 14.4893 134.73 14.6664 134.702 14.9351L134.282 19.0645L136.341 17.2394C136.441 17.1498 136.537 17.106 136.673 17.106H141.305C141.577 17.106 141.737 17.3061 141.711 17.5519L141.441 19.8645C141.413 20.1082 141.209 20.3312 140.935 20.3312H134.6C134.352 20.3312 134.101 20.5312 134.073 20.7978L133.771 23.3375C133.742 23.6042 133.927 23.7833 134.177 23.7833H141.192C141.441 23.7833 141.645 24.0063 141.617 24.25L141.394 26.4564C141.365 26.723 141.116 26.923 140.867 26.923H135.6C135.463 26.923 135.357 26.8564 135.276 26.7668L130.207 21.227L130.209 21.2291Z" fill="black"/>
</svg>
