<svg width="180" height="64" viewBox="0 0 180 64" fill="none" xmlns="http://www.w3.org/2000/svg">
<path d="M77.6389 5.80012C77.5867 6.56113 77.5633 7.14067 77.57 7.54102C77.5767 7.94137 77.58 8.30883 77.58 8.64227C77.58 8.9757 77.5867 9.34203 77.6 9.74238C77.6122 10.1427 77.6455 10.7234 77.6977 11.4833H77.2467C77.1812 11.0432 77.0968 10.6202 76.9923 10.213C76.8868 9.80589 76.7013 9.47586 76.4336 9.22181C76.1647 8.9689 75.7504 8.84187 75.1882 8.84187V8.44152C75.607 8.44152 75.937 8.35533 76.178 8.18181C76.4202 8.00828 76.6057 7.78146 76.7368 7.50133C76.8679 7.22119 76.9623 6.93086 77.0212 6.63031C77.0801 6.3309 77.1356 6.05417 77.1878 5.80012H77.6389ZM77.0701 8.84187H73.5219V8.44152H77.0701V8.84187ZM80.3239 1.59701C80.2717 2.10511 80.2361 2.59505 80.2161 3.06799C80.1972 3.54206 80.1872 3.90611 80.1872 4.15903C80.1872 4.41307 80.1928 4.65238 80.2061 4.8792C80.2195 5.10716 80.2328 5.29316 80.2461 5.43947H79.7951C79.7029 4.5866 79.5629 3.91292 79.373 3.41844C79.1841 2.92509 78.9031 2.57464 78.5309 2.36823C78.1577 2.16181 77.6389 2.05747 76.9723 2.05747H75.6193C75.2016 2.05747 74.885 2.0949 74.6683 2.16749C74.4539 2.2412 74.3062 2.38864 74.2284 2.60866C74.1496 2.82869 74.1107 3.17233 74.1107 3.63846V13.7255C74.1107 14.1791 74.1496 14.5194 74.2284 14.7462C74.3062 14.973 74.4539 15.1227 74.6683 15.1964C74.885 15.269 75.2016 15.3064 75.6193 15.3064H76.8935C77.6389 15.3064 78.2299 15.1862 78.6676 14.9458C79.1052 14.7054 79.4385 14.3118 79.6674 13.7652C79.8962 13.2185 80.0695 12.4711 80.1872 11.5241H80.6372C80.5983 11.9108 80.5794 12.4178 80.5794 13.045C80.5794 13.3115 80.5883 13.6982 80.6083 14.2052C80.6283 14.7122 80.6638 15.2327 80.716 15.7669C80.0495 15.7397 79.2985 15.7227 78.462 15.7159C77.6255 15.7102 76.8812 15.7068 76.2269 15.7068H75.0705C74.6006 15.7068 74.094 15.7102 73.5519 15.7159C73.0087 15.7227 72.4599 15.7295 71.9056 15.7363C71.349 15.7431 70.8169 15.7533 70.3081 15.7669V15.3666C70.7514 15.3393 71.0846 15.286 71.3068 15.2055C71.529 15.1261 71.6767 14.9662 71.7489 14.7258C71.82 14.4853 71.8556 14.1258 71.8556 13.6449V3.71898C71.8556 3.22563 71.82 2.86158 71.7489 2.62794C71.6767 2.39545 71.5256 2.2344 71.2979 2.1482C71.0691 2.06088 70.7391 2.01097 70.3081 1.9985V1.59701C70.8169 1.61062 71.349 1.62083 71.9056 1.62764C72.4599 1.63444 73.0087 1.64125 73.5519 1.64805C74.094 1.65486 74.6006 1.65712 75.0705 1.65712H76.2269C76.8279 1.65712 77.5111 1.65486 78.2754 1.64805C79.0397 1.64125 79.7229 1.62423 80.3239 1.59701Z" fill="white"/>
<path d="M87.7929 1.59754V1.99789C87.3485 2.0115 87.0119 2.0614 86.7831 2.14759C86.5542 2.23492 86.4009 2.39484 86.3221 2.62847C86.2443 2.8621 86.2054 3.22616 86.2054 3.71837V13.7249C86.2054 14.1785 86.241 14.5187 86.3132 14.7456C86.3843 14.9724 86.5287 15.1232 86.7442 15.1958C86.9597 15.2695 87.2696 15.3058 87.6751 15.3058H88.9493C89.5114 15.3058 89.9847 15.2264 90.3701 15.0665C90.7556 14.9055 91.0789 14.6662 91.3411 14.3452C91.6021 14.0254 91.8043 13.6114 91.9487 13.1045C92.092 12.5975 92.2031 12.0044 92.282 11.3239H92.7319C92.693 11.7503 92.6741 12.3117 92.6741 13.0047C92.6741 13.2712 92.683 13.6625 92.703 14.1751C92.723 14.6889 92.7585 15.2196 92.8108 15.7663C92.1442 15.7402 91.3933 15.7232 90.5568 15.7164C89.7203 15.7096 88.976 15.7062 88.3217 15.7062H87.1652C86.6953 15.7062 86.1887 15.7096 85.6466 15.7164C85.1034 15.7232 84.5546 15.73 84.0003 15.7368C83.4437 15.7436 82.9116 15.7538 82.4028 15.7663V15.3659C82.8461 15.3399 83.1793 15.2866 83.4015 15.206C83.6237 15.1255 83.7714 14.9656 83.8437 14.7263C83.9148 14.4859 83.9503 14.1252 83.9503 13.6455V3.71837C83.9503 3.22616 83.9148 2.8621 83.8437 2.62847C83.7714 2.39484 83.6204 2.23492 83.3926 2.14759C83.1638 2.0614 82.8339 2.0115 82.4028 1.99789V1.59754C82.7028 1.61115 83.0916 1.62476 83.5693 1.63723C84.0458 1.65084 84.558 1.65765 85.1078 1.65765C85.6033 1.65765 86.0965 1.65084 86.5876 1.63723C87.0775 1.62476 87.4796 1.61115 87.7929 1.59754Z" fill="white"/>
<path d="M106.807 1.31755C107.656 1.31755 108.362 1.55798 108.925 2.03772C109.486 2.5186 109.767 3.19227 109.767 4.05875C109.767 4.59293 109.659 5.05339 109.443 5.44013C109.228 5.82687 108.927 6.16031 108.541 6.44044C108.157 6.72057 107.709 6.9474 107.199 7.12092C106.937 7.24114 106.598 7.37156 106.18 7.51106C105.762 7.6517 105.317 7.7946 104.846 7.94203C104.377 8.08834 103.929 8.22897 103.505 8.36166C103.079 8.49549 102.73 8.61571 102.456 8.72232C101.802 8.92193 101.273 9.15896 100.867 9.43229C100.462 9.70675 100.26 10.0697 100.26 10.5233C100.26 10.8704 100.361 11.1641 100.564 11.4034C100.766 11.6439 101.015 11.8242 101.308 11.9444C101.603 12.0646 101.887 12.1247 102.161 12.1247C102.266 12.1247 102.397 12.1111 102.554 12.0839C102.71 12.0578 102.85 12.0181 102.975 11.9637C103.099 11.9115 103.173 11.8446 103.2 11.7641C102.951 11.7108 102.732 11.594 102.544 11.4136C102.354 11.2333 102.259 10.977 102.259 10.6435C102.259 10.2965 102.38 10.0232 102.621 9.82243C102.864 9.62282 103.161 9.52302 103.513 9.52302C103.88 9.52302 104.171 9.62963 104.387 9.84285C104.602 10.0561 104.71 10.3362 104.71 10.6832C104.71 11.0711 104.585 11.3977 104.337 11.6643C104.089 11.9308 103.774 12.1281 103.396 12.254C103.017 12.381 102.625 12.4446 102.22 12.4446C101.802 12.4446 101.394 12.3618 100.995 12.1939C100.596 12.0272 100.27 11.7675 100.015 11.4136C99.7597 11.0609 99.6331 10.597 99.6331 10.0232C99.6331 9.47652 99.7564 9.00585 100.005 8.61231C100.253 8.21876 100.623 7.87512 101.113 7.58138C101.603 7.28877 102.194 7.04834 102.887 6.8612C103.239 6.74098 103.661 6.61396 104.151 6.48127C104.641 6.34744 105.141 6.20454 105.651 6.05029C106.161 5.89719 106.631 5.72707 107.062 5.53994C107.807 5.24733 108.342 4.94678 108.669 4.63943C108.996 4.33321 109.159 3.98617 109.159 3.59943C109.159 3.21269 109.055 2.87585 108.846 2.58891C108.637 2.30198 108.359 2.07175 108.012 1.89822C107.666 1.7247 107.297 1.63737 106.905 1.63737C106.761 1.63737 106.641 1.64758 106.543 1.668C106.444 1.68841 106.376 1.73151 106.337 1.79729C106.558 1.89142 106.728 2.03772 106.846 2.23847C106.964 2.43807 107.023 2.63201 107.023 2.81914C107.023 3.15258 106.898 3.4157 106.651 3.6085C106.402 3.80244 106.107 3.89884 105.768 3.89884C105.454 3.89884 105.173 3.80584 104.925 3.61871C104.676 3.43271 104.553 3.15825 104.553 2.79873C104.553 2.45168 104.664 2.16815 104.885 1.94813C105.109 1.7281 105.392 1.56819 105.739 1.46725C106.085 1.36745 106.442 1.31755 106.807 1.31755ZM99.4953 1.65779C99.9919 1.65779 100.4 1.70769 100.721 1.80749C101.041 1.90843 101.312 2.03772 101.534 2.19877C101.717 2.31786 101.87 2.45849 101.995 2.6184C102.119 2.77831 102.22 2.94503 102.298 3.11856C102.377 3.29208 102.416 3.4724 102.416 3.65954C102.416 4.01906 102.289 4.30259 102.034 4.51014C101.779 4.71655 101.495 4.81976 101.182 4.81976C100.867 4.81976 100.596 4.72676 100.367 4.53963C100.139 4.3525 100.025 4.08597 100.025 3.73893C100.025 3.43271 100.13 3.16165 100.338 2.92802C100.547 2.69552 100.808 2.55829 101.123 2.5186C101.057 2.37116 100.897 2.24527 100.643 2.13866C100.387 2.03092 100.076 1.97761 99.7108 1.97761C99.031 1.97761 98.4722 2.18516 98.0356 2.59799C97.5968 3.01195 97.3779 3.62551 97.3779 4.43982C97.3779 4.78687 97.4402 5.14639 97.5646 5.52065C97.689 5.89379 97.9334 6.26805 98.3 6.64118C98.5222 6.60149 98.741 6.56746 98.9565 6.54138C99.172 6.51416 99.3453 6.50055 99.4764 6.50055C99.7108 6.50055 99.8974 6.54478 100.034 6.63097C100.172 6.7183 100.241 6.84079 100.241 7.0007C100.241 7.12092 100.187 7.21505 100.083 7.28083C99.9785 7.34775 99.8486 7.38177 99.6908 7.38177C99.4431 7.38177 99.1887 7.32506 98.9276 7.21165C98.6655 7.09824 98.4633 7.0007 98.3189 6.92131C97.6001 7.17422 97.0225 7.5587 96.5848 8.07133C96.146 8.58509 95.9282 9.28939 95.9282 10.1831C95.9282 11.0904 96.1626 11.8537 96.6337 12.474C97.1036 13.0944 97.7445 13.5651 98.5544 13.886C99.3642 14.2059 100.293 14.3658 101.338 14.3658C102.017 14.3658 102.671 14.2853 103.298 14.1253C103.926 13.9654 104.484 13.7284 104.974 13.4154C105.464 13.1024 105.853 12.7247 106.141 12.2846C106.428 11.8446 106.572 11.3376 106.572 10.7638C106.572 10.5233 106.526 10.216 106.435 9.84285C106.343 9.46972 106.151 9.10226 105.856 8.7416C105.562 8.38208 105.109 8.09514 104.494 7.88193L104.69 7.68118C105.565 7.96132 106.2 8.42177 106.592 9.06256C106.984 9.70221 107.179 10.4235 107.179 11.2242C107.179 12.0646 106.928 12.8551 106.425 13.5957C105.922 14.3352 105.206 14.9294 104.279 15.3763C103.35 15.8231 102.233 16.0466 100.926 16.0466C99.9985 16.0466 99.1332 15.9332 98.3289 15.7063C97.5257 15.4795 96.8225 15.1495 96.2215 14.7162C95.6205 14.283 95.1506 13.759 94.8107 13.1443C94.4707 12.5319 94.3008 11.8378 94.3008 11.0632C94.3008 10.3305 94.4419 9.70675 94.7218 9.19299C95.0029 8.67922 95.3528 8.25165 95.7716 7.91141C96.1893 7.57117 96.607 7.31145 97.0258 7.13113C97.4435 6.9508 97.7834 6.82831 98.0445 6.7614C97.6135 6.57427 97.2446 6.35084 96.938 6.08999C96.6303 5.83027 96.3948 5.53767 96.2315 5.2099C96.0682 4.88327 95.986 4.54643 95.986 4.19939C95.986 3.83873 96.0715 3.50643 96.2415 3.19908C96.4115 2.89173 96.6503 2.6218 96.9569 2.38817C97.2635 2.15454 97.6301 1.97535 98.0545 1.84832C98.4788 1.7213 98.9599 1.65779 99.4953 1.65779Z" fill="white"/>
<path d="M126.801 1.59758V1.99793C126.356 2.01154 126.023 2.06144 125.801 2.14764C125.579 2.23497 125.431 2.39488 125.36 2.62851C125.288 2.86214 125.252 3.2262 125.252 3.71842V13.6455C125.252 14.1252 125.288 14.4859 125.36 14.7263C125.431 14.9656 125.579 15.1256 125.801 15.2061C126.023 15.2866 126.356 15.3399 126.801 15.366V15.7663C126.474 15.7403 126.069 15.7232 125.585 15.7164C125.102 15.7096 124.611 15.7062 124.116 15.7062C123.566 15.7062 123.049 15.7096 122.566 15.7164C122.083 15.7232 121.697 15.7403 121.41 15.7663V15.366C121.854 15.3399 122.191 15.2866 122.419 15.2061C122.648 15.1256 122.802 14.9656 122.88 14.7263C122.958 14.4859 122.998 14.1252 122.998 13.6455V2.69883L123.096 2.73852L118.274 15.8469H117.96L112.902 2.87802V13.1249C112.902 13.6852 112.941 14.1218 113.02 14.436C113.099 14.749 113.269 14.9724 113.53 15.1063C113.791 15.2401 114.19 15.3263 114.725 15.366V15.7663C114.478 15.7403 114.16 15.7232 113.776 15.7164C113.389 15.7096 113.027 15.7062 112.687 15.7062C112.36 15.7062 112.034 15.7096 111.707 15.7164C111.381 15.7232 111.112 15.7403 110.903 15.7663V15.366C111.335 15.3263 111.66 15.2435 111.884 15.1165C112.105 14.9895 112.256 14.7728 112.335 14.4655C112.413 14.1593 112.451 13.7385 112.451 13.2043V3.71842C112.451 3.2262 112.413 2.86214 112.335 2.62851C112.256 2.39488 112.105 2.23497 111.884 2.14764C111.66 2.06144 111.335 2.01154 110.903 1.99793V1.59758C111.112 1.61119 111.381 1.6248 111.707 1.63728C112.034 1.65089 112.36 1.65769 112.687 1.65769C113.066 1.65769 113.448 1.65089 113.833 1.63728C114.219 1.6248 114.55 1.61119 114.824 1.59758L119.156 12.965L118.783 13.2247L123.037 1.65769H123.566H124.116C124.611 1.65769 125.102 1.65089 125.585 1.63728C126.069 1.6248 126.474 1.61119 126.801 1.59758Z" fill="white"/>
<path d="M77.6389 28.0361C77.5867 28.7971 77.5633 29.3767 77.57 29.777C77.5767 30.1774 77.58 30.5449 77.58 30.8783C77.58 31.2117 77.5867 31.5781 77.6 31.9784C77.6122 32.3788 77.6455 32.9594 77.6977 33.7193H77.2467C77.1812 33.2793 77.0968 32.8562 76.9923 32.4491C76.8868 32.0419 76.7013 31.7119 76.4336 31.459C76.1647 31.2049 75.7504 31.0779 75.1882 31.0779V30.6775C75.607 30.6775 75.937 30.5914 76.178 30.4178C76.4202 30.2443 76.6057 30.0175 76.7368 29.7373C76.8679 29.4572 76.9623 29.1669 77.0212 28.8675C77.0801 28.5669 77.1356 28.2902 77.1878 28.0361H77.6389ZM77.0701 31.0779H73.5219V30.6775H77.0701V31.0779ZM80.3239 23.833C80.2717 24.3411 80.2361 24.8311 80.2161 25.304C80.1972 25.7781 80.1872 26.1421 80.1872 26.3951C80.1872 26.6491 80.1928 26.8884 80.2061 27.1152C80.2195 27.3432 80.2328 27.5292 80.2461 27.6755H79.7951C79.7029 26.8226 79.5629 26.1489 79.373 25.6545C79.1841 25.1611 78.9031 24.8107 78.5309 24.6042C78.1577 24.3978 77.6389 24.2935 76.9723 24.2935H75.6193C75.2016 24.2935 74.885 24.3309 74.6683 24.4035C74.4539 24.4772 74.3062 24.6247 74.2284 24.8447C74.1496 25.0647 74.1107 25.4084 74.1107 25.8745V35.9615C74.1107 36.4151 74.1496 36.7554 74.2284 36.9811C74.3062 37.209 74.4539 37.3587 74.6683 37.4325C74.885 37.505 75.2016 37.5425 75.6193 37.5425H76.8935C77.6389 37.5425 78.2299 37.4223 78.6676 37.1818C79.1052 36.9414 79.4385 36.549 79.6674 36.0012C79.8962 35.4545 80.0695 34.7071 80.1872 33.7601H80.6372C80.5983 34.1469 80.5794 34.6538 80.5794 35.281C80.5794 35.5475 80.5883 35.9343 80.6083 36.4412C80.6283 36.9482 80.6638 37.4688 80.716 38.0029C80.0495 37.9757 79.2985 37.9587 78.462 37.953C77.6255 37.9462 76.8812 37.9417 76.2269 37.9417H75.0705C74.6006 37.9417 74.094 37.9462 73.5519 37.953C73.0087 37.9587 72.4599 37.9655 71.9056 37.9723C71.349 37.9791 70.8169 37.9893 70.3081 38.0029V37.6026C70.7514 37.5754 71.0846 37.5221 71.3068 37.4415C71.529 37.3621 71.6767 37.2022 71.7489 36.9618C71.82 36.7214 71.8556 36.3618 71.8556 35.881V25.955C71.8556 25.4617 71.82 25.0976 71.7489 24.864C71.6767 24.6315 71.5256 24.4704 71.2979 24.3842C71.0691 24.2969 70.7391 24.247 70.3081 24.2345V23.833C70.8169 23.8466 71.349 23.8569 71.9056 23.8637C72.4599 23.8705 73.0087 23.8773 73.5519 23.8841C74.094 23.8909 74.6006 23.8931 75.0705 23.8931H76.2269C76.8279 23.8931 77.5111 23.8909 78.2754 23.8841C79.0397 23.8773 79.7229 23.8603 80.3239 23.833Z" fill="white"/>
<path d="M91.321 22.3128V35.8215C91.321 36.4214 91.422 36.8649 91.6253 37.1518C91.8275 37.4387 92.1963 37.5816 92.7318 37.5816V38.0024C92.3274 37.9627 91.9219 37.9423 91.5165 37.9423C91.0721 37.9423 90.6578 37.9627 90.2723 38.0024C89.8868 38.0421 89.5302 38.1158 89.2036 38.2224V24.7149C89.2036 24.1138 89.1025 23.6703 88.9003 23.3834C88.697 23.0965 88.3282 22.9536 87.7928 22.9536V22.5328C88.2105 22.5725 88.6159 22.5929 89.0081 22.5929C89.4391 22.5929 89.8501 22.5702 90.2423 22.5226C90.6344 22.4761 90.9944 22.4058 91.321 22.3128ZM86.9107 27.396C87.4851 27.396 88.0116 27.523 88.4882 27.7759C88.9659 28.0299 89.3014 28.4564 89.498 29.0563L89.2625 29.2775C89.0792 28.7966 88.8115 28.4462 88.4593 28.2261C88.106 28.0061 87.7072 27.8961 87.2629 27.8961C86.5186 27.8961 85.9109 28.2999 85.4399 29.1074C84.97 29.9137 84.7412 31.1579 84.7545 32.8387C84.7545 33.9467 84.8456 34.8506 85.0289 35.5504C85.2111 36.2513 85.4821 36.7685 85.842 37.1019C86.2009 37.4353 86.6363 37.602 87.1462 37.602C87.655 37.602 88.116 37.382 88.5271 36.942C88.9392 36.5019 89.1847 35.868 89.2625 35.0412L89.4391 35.4608C89.308 36.3681 88.9948 37.0656 88.4982 37.5521C88.0016 38.0387 87.3351 38.2825 86.4986 38.2825C85.701 38.2825 84.9989 38.0852 84.3912 37.6916C83.7836 37.2992 83.3159 36.6981 82.9904 35.8906C82.6627 35.0843 82.5005 34.0669 82.5005 32.8387C82.5005 31.6252 82.6993 30.6146 83.0981 29.8071C83.4958 29.0008 84.0291 28.3963 84.6956 27.9959C85.3621 27.5956 86.0998 27.396 86.9107 27.396Z" fill="white"/>
<path d="M102.847 27.456V35.8418C102.847 36.4417 102.948 36.8852 103.151 37.1721C103.354 37.459 103.722 37.6019 104.258 37.6019V38.0227C103.854 37.9819 103.448 37.9626 103.043 37.9626C102.612 37.9626 102.201 37.9819 101.808 38.0227C101.416 38.0624 101.056 38.1361 100.73 38.2427V36.0618C100.403 36.8613 99.9488 37.4318 99.3678 37.772C98.7868 38.1123 98.1747 38.2824 97.5348 38.2824C97.0516 38.2824 96.6394 38.2121 96.2995 38.0726C95.9607 37.932 95.6796 37.7494 95.4574 37.5225C95.2219 37.256 95.0586 36.9124 94.9675 36.4916C94.8753 36.072 94.8298 35.5412 94.8298 34.9004V29.8569C94.8298 29.257 94.732 28.8135 94.5354 28.5266C94.3399 28.2396 93.9677 28.0967 93.4189 28.0967V27.676C93.8366 27.7157 94.2421 27.7361 94.6343 27.7361C95.0653 27.7361 95.4763 27.7134 95.8685 27.6658C96.2606 27.6193 96.6205 27.549 96.9471 27.456V35.4607C96.9471 35.8486 96.9727 36.2013 97.0249 36.5222C97.0771 36.8421 97.2015 37.095 97.3982 37.2821C97.5937 37.4692 97.9081 37.5622 98.3391 37.5622C98.7957 37.5622 99.2045 37.4216 99.5633 37.1415C99.9232 36.8613 100.208 36.4814 100.416 36.0017C100.625 35.5208 100.73 34.9809 100.73 34.3798V29.8569C100.73 29.257 100.632 28.8135 100.436 28.5266C100.24 28.2396 99.8677 28.0967 99.3189 28.0967V27.676C99.7366 27.7157 100.142 27.7361 100.534 27.7361C100.965 27.7361 101.377 27.7134 101.77 27.6658C102.162 27.6193 102.52 27.549 102.847 27.456Z" fill="white"/>
<path d="M110.178 27.3958C110.622 27.3958 111.047 27.4525 111.452 27.566C111.856 27.6794 112.21 27.8359 112.511 28.0366C112.824 28.2362 113.063 28.4767 113.226 28.7568C113.389 29.0369 113.472 29.3443 113.472 29.6777C113.472 30.0781 113.359 30.3911 113.137 30.6179C112.915 30.8447 112.628 30.9582 112.275 30.9582C111.923 30.9582 111.629 30.8584 111.393 30.6576C111.158 30.458 111.04 30.1711 111.04 29.7979C111.04 29.4509 111.139 29.1674 111.334 28.9473C111.531 28.7262 111.759 28.5833 112.021 28.5164C111.903 28.3168 111.698 28.1466 111.403 28.006C111.109 27.8665 110.792 27.7962 110.452 27.7962C110.099 27.7962 109.762 27.8892 109.442 28.0763C109.122 28.2635 108.838 28.5504 108.59 28.9371C108.342 29.3239 108.143 29.824 107.993 30.4376C107.842 31.0512 107.767 31.7918 107.767 32.6594C107.767 33.7799 107.894 34.6702 108.149 35.3314C108.404 35.9915 108.74 36.461 109.158 36.7411C109.577 37.0213 110.028 37.1619 110.511 37.1619C110.824 37.1619 111.148 37.1018 111.482 36.9816C111.814 36.8613 112.135 36.6617 112.442 36.3816C112.748 36.1015 113.021 35.7215 113.255 35.2407L113.628 35.3813C113.484 35.8213 113.258 36.2682 112.952 36.7218C112.644 37.1755 112.243 37.5486 111.746 37.8424C111.249 38.1361 110.642 38.2824 109.923 38.2824C109.1 38.2824 108.355 38.076 107.688 37.662C107.022 37.2492 106.493 36.6447 106.101 35.8508C105.709 35.0569 105.513 34.0872 105.513 32.9395C105.513 31.819 105.712 30.8413 106.111 30.0078C106.509 29.1742 107.061 28.53 107.767 28.0763C108.473 27.6227 109.276 27.3958 110.178 27.3958Z" fill="white"/>
<path d="M118.49 37.1818C118.855 37.1818 119.198 37.0752 119.518 36.862C119.839 36.6487 120.136 36.3278 120.41 35.9013V31.9183C120.267 32.1326 120.058 32.3152 119.784 32.4694C119.509 32.6226 119.215 32.7791 118.901 32.939C118.587 33.0989 118.29 33.2826 118.009 33.4902C117.728 33.6966 117.496 33.9597 117.313 34.2807C117.13 34.6005 117.039 35.0076 117.039 35.501C117.039 36.0216 117.17 36.4321 117.431 36.7315C117.692 37.0321 118.045 37.1818 118.49 37.1818ZM117.549 38.1424C117 38.1424 116.529 38.0358 116.137 37.8226C115.745 37.6094 115.451 37.3156 115.255 36.9413C115.059 36.5682 114.961 36.1406 114.961 35.6609C114.961 35.0746 115.091 34.5971 115.354 34.2296C115.615 33.8633 115.951 33.5662 116.362 33.3393C116.774 33.1125 117.212 32.9231 117.676 32.7689C118.14 32.6158 118.577 32.4694 118.99 32.3288C119.401 32.1893 119.74 32.026 120.008 31.8389C120.276 31.6517 120.41 31.4056 120.41 31.0983V29.7373C120.41 29.2564 120.335 28.8742 120.185 28.5873C120.035 28.3004 119.833 28.0962 119.577 27.976C119.323 27.8558 119.018 27.7957 118.666 27.7957C118.365 27.7957 118.045 27.8399 117.705 27.9261C117.365 28.0134 117.098 28.1835 116.902 28.4365C117.189 28.517 117.428 28.6735 117.618 28.9071C117.806 29.1408 117.901 29.43 117.901 29.777C117.901 30.1513 117.781 30.445 117.539 30.6582C117.297 30.8715 116.993 30.9781 116.628 30.9781C116.222 30.9781 115.921 30.8476 115.726 30.5879C115.53 30.3271 115.431 30.0243 115.431 29.6772C115.431 29.3166 115.519 29.0239 115.696 28.7971C115.872 28.5703 116.105 28.3571 116.392 28.1563C116.706 27.9431 117.108 27.7628 117.598 27.6165C118.087 27.469 118.633 27.3953 119.235 27.3953C119.796 27.3953 120.284 27.46 120.695 27.5859C121.107 27.7129 121.449 27.9159 121.723 28.196C122.05 28.5034 122.266 28.8867 122.371 29.3472C122.475 29.8076 122.528 30.3645 122.528 31.0178V36.541C122.528 36.8756 122.57 37.1126 122.654 37.2521C122.74 37.3927 122.88 37.4619 123.076 37.4619C123.206 37.4619 123.334 37.429 123.459 37.3621C123.583 37.2952 123.73 37.1954 123.9 37.0616L124.095 37.4018C123.821 37.6286 123.544 37.809 123.263 37.9417C122.982 38.0755 122.625 38.1424 122.194 38.1424C121.776 38.1424 121.437 38.0755 121.175 37.9417C120.914 37.809 120.72 37.6162 120.597 37.3621C120.473 37.1092 120.41 36.795 120.41 36.4208C120.07 36.9822 119.666 37.4086 119.195 37.7024C118.725 37.9961 118.176 38.1424 117.549 38.1424Z" fill="white"/>
<path d="M128.114 24.374V27.6959H130.819V28.0962H128.114V35.9614C128.114 36.5081 128.212 36.8948 128.407 37.1217C128.604 37.3485 128.885 37.4619 129.251 37.4619C129.591 37.4619 129.895 37.3224 130.163 37.0423C130.43 36.7621 130.663 36.2881 130.858 35.6212L131.23 35.7607C131.074 36.4684 130.796 37.065 130.398 37.5526C129.999 38.0392 129.414 38.283 128.643 38.283C128.199 38.283 127.826 38.2252 127.525 38.1129C127.225 37.9995 126.963 37.835 126.742 37.6218C126.455 37.3156 126.258 36.9481 126.153 36.5217C126.049 36.0941 125.997 35.5282 125.997 34.8205V28.0962H124.194V27.6959H125.997V24.7743C126.401 24.7607 126.781 24.7244 127.133 24.6643C127.487 24.6042 127.813 24.5078 128.114 24.374Z" fill="white"/>
<path d="M133.956 22.6328C134.36 22.6328 134.701 22.7632 134.976 23.023C135.25 23.2838 135.387 23.607 135.387 23.9938C135.387 24.3805 135.25 24.7037 134.976 24.9646C134.701 25.2243 134.36 25.3547 133.956 25.3547C133.55 25.3547 133.21 25.2243 132.936 24.9646C132.662 24.7037 132.525 24.3805 132.525 23.9938C132.525 23.607 132.662 23.2838 132.936 23.023C133.21 22.7632 133.55 22.6328 133.956 22.6328ZM135.132 27.4563V36.1415C135.132 36.7018 135.24 37.0817 135.455 37.2824C135.671 37.4821 136.033 37.5819 136.543 37.5819V38.0026C136.321 37.989 135.978 37.972 135.514 37.9527C135.05 37.9323 134.577 37.9221 134.092 37.9221C133.635 37.9221 133.165 37.9323 132.682 37.9527C132.198 37.972 131.838 37.989 131.604 38.0026V37.5819C132.113 37.5819 132.476 37.4821 132.692 37.2824C132.907 37.0817 133.015 36.7018 133.015 36.1415V29.8573C133.015 29.2573 132.917 28.8139 132.72 28.5269C132.525 28.24 132.153 28.0959 131.604 28.0959V27.6763C132.022 27.716 132.427 27.7364 132.819 27.7364C133.263 27.7364 133.678 27.7126 134.064 27.6661C134.449 27.6196 134.804 27.5493 135.132 27.4563Z" fill="white"/>
<path d="M142.384 27.796C141.704 27.796 141.15 28.193 140.717 28.9868C140.286 29.7807 140.071 31.0714 140.071 32.8588C140.071 34.6473 140.286 35.9312 140.717 36.7114C141.15 37.4917 141.704 37.8819 142.384 37.8819C143.05 37.8819 143.602 37.4917 144.04 36.7114C144.478 35.9312 144.697 34.6473 144.697 32.8588C144.697 31.0714 144.478 29.7807 144.04 28.9868C143.602 28.193 143.05 27.796 142.384 27.796ZM142.384 27.3957C143.259 27.3957 144.037 27.5828 144.717 27.9559C145.395 28.3302 145.939 28.9165 146.344 29.7172C146.748 30.5179 146.951 31.5659 146.951 32.8588C146.951 34.154 146.748 35.1974 146.344 35.9913C145.939 36.7852 145.395 37.3658 144.717 37.7322C144.037 38.0996 143.259 38.2822 142.384 38.2822C141.522 38.2822 140.744 38.0996 140.051 37.7322C139.358 37.3658 138.813 36.7852 138.415 35.9913C138.016 35.1974 137.817 34.154 137.817 32.8588C137.817 31.5659 138.016 30.5179 138.415 29.7172C138.813 28.9165 139.358 28.3302 140.051 27.9559C140.744 27.5828 141.522 27.3957 142.384 27.3957Z" fill="white"/>
<path d="M155.164 27.3958C155.687 27.3958 156.115 27.4661 156.448 27.6056C156.782 27.7463 157.059 27.9357 157.281 28.1761C157.517 28.4302 157.684 28.7568 157.781 29.1571C157.879 29.5575 157.928 30.0973 157.928 30.7778V36.1411C157.928 36.7014 158.036 37.0813 158.251 37.2821C158.467 37.4817 158.83 37.5815 159.339 37.5815V38.0023C159.118 37.9898 158.771 37.9728 158.3 37.9524C157.83 37.9319 157.366 37.9229 156.909 37.9229C156.464 37.9229 156.024 37.9319 155.585 37.9524C155.147 37.9728 154.818 37.9898 154.595 38.0023V37.5815C155.04 37.5815 155.354 37.4817 155.536 37.2821C155.72 37.0813 155.811 36.7014 155.811 36.1411V30.2176C155.811 29.8308 155.778 29.4804 155.713 29.1673C155.647 28.8532 155.511 28.6003 155.302 28.4063C155.092 28.2135 154.779 28.116 154.361 28.116C153.877 28.116 153.449 28.2566 153.077 28.5368C152.704 28.8169 152.41 29.2002 152.195 29.6868C151.979 30.1745 151.871 30.7177 151.871 31.3188V36.1411C151.871 36.7014 151.966 37.0813 152.155 37.2821C152.345 37.4817 152.655 37.5815 153.087 37.5815V38.0023C152.877 37.9898 152.56 37.9728 152.136 37.9524C151.71 37.9319 151.269 37.9229 150.813 37.9229C150.368 37.9229 149.904 37.9319 149.421 37.9524C148.938 37.9728 148.578 37.9898 148.343 38.0023V37.5815C148.852 37.5815 149.215 37.4817 149.431 37.2821C149.646 37.0813 149.754 36.7014 149.754 36.1411V29.8569C149.754 29.2569 149.656 28.8135 149.46 28.5266C149.264 28.2396 148.892 28.0967 148.343 28.0967V27.676C148.761 27.7156 149.166 27.7361 149.559 27.7361C150.002 27.7361 150.417 27.7134 150.803 27.6657C151.188 27.6192 151.545 27.5489 151.871 27.4559V29.6369C152.21 28.8101 152.678 28.2294 153.272 27.896C153.868 27.5625 154.498 27.3958 155.164 27.3958Z" fill="white"/>
<path d="M76.9921 45.7893C77.8542 45.7893 78.5629 45.9198 79.1184 46.1795C79.6738 46.4392 80.1671 46.7432 80.5992 47.0902C80.8603 47.2909 81.0591 47.3136 81.1969 47.1605C81.3335 47.0074 81.429 46.6434 81.4813 46.0695H81.9323C81.9056 46.5764 81.8856 47.1866 81.8734 47.9011C81.8601 48.6145 81.8534 49.5649 81.8534 50.7523H81.4024C81.3113 50.166 81.2224 49.6851 81.138 49.312C81.0525 48.9377 80.9414 48.6179 80.8047 48.3514C80.667 48.0837 80.4815 47.824 80.2459 47.5711C79.8671 47.0902 79.4028 46.7432 78.854 46.5299C78.3052 46.3167 77.7242 46.2101 77.1099 46.2101C76.4434 46.2101 75.8557 46.3802 75.3458 46.7205C74.8359 47.0607 74.4082 47.5439 74.0616 48.171C73.715 48.7982 73.4506 49.5388 73.2673 50.3928C73.0851 51.2468 72.9929 52.1802 72.9929 53.1941C72.9929 54.2341 73.0918 55.1789 73.2873 56.0261C73.4828 56.8733 73.7672 57.6002 74.1405 58.207C74.5126 58.8138 74.9637 59.281 75.4924 59.6077C76.0212 59.9354 76.6133 60.0976 77.2665 60.0976C77.802 60.0976 78.3574 59.9887 78.9329 59.7676C79.5072 59.5476 79.9649 59.2107 80.3048 58.7571C80.6703 58.3578 80.9225 57.9065 81.0591 57.4063C81.1969 56.9061 81.3113 56.2223 81.4024 55.3547H81.8534C81.8534 56.5829 81.8601 57.573 81.8734 58.3272C81.8856 59.0814 81.9056 59.7177 81.9323 60.2382H81.4813C81.429 59.6655 81.3402 59.3048 81.2158 59.1574C81.0924 59.0111 80.8858 59.0304 80.5992 59.2175C80.1149 59.5646 79.6027 59.8685 79.0606 60.1282C78.5174 60.3891 77.822 60.5184 76.9722 60.5184C75.6791 60.5184 74.5482 60.2314 73.5817 59.6576C72.6141 59.0848 71.8632 58.2569 71.3277 57.1761C70.7912 56.0952 70.5234 54.7944 70.5234 53.2735C70.5234 51.7799 70.8012 50.4722 71.3566 49.3517C71.912 48.2311 72.673 47.3579 73.6406 46.7295C74.6071 46.1035 75.7246 45.7893 76.9921 45.7893Z" fill="white"/>
<path d="M88.5766 50.0322C87.8968 50.0322 87.3424 50.4291 86.9103 51.223C86.4793 52.0169 86.2638 53.3075 86.2638 55.0949C86.2638 56.8835 86.4793 58.1673 86.9103 58.9476C87.3424 59.7279 87.8968 60.118 88.5766 60.118C89.2432 60.118 89.7953 59.7279 90.233 58.9476C90.6707 58.1673 90.8895 56.8835 90.8895 55.0949C90.8895 53.3075 90.6707 52.0169 90.233 51.223C89.7953 50.4291 89.2432 50.0322 88.5766 50.0322ZM88.5766 49.6318C89.452 49.6318 90.2296 49.8189 90.9095 50.1921C91.5883 50.5663 92.1315 51.1527 92.537 51.9534C92.9413 52.7541 93.1435 53.8009 93.1435 55.0949C93.1435 56.389 92.9413 57.4335 92.537 58.2274C92.1315 59.0213 91.5883 59.602 90.9095 59.9683C90.2296 60.3346 89.452 60.5184 88.5766 60.5184C87.7146 60.5184 86.937 60.3346 86.2438 59.9683C85.5506 59.602 85.0062 59.0213 84.6074 58.2274C84.2086 57.4335 84.0098 56.389 84.0098 55.0949C84.0098 53.8009 84.2086 52.7541 84.6074 51.9534C85.0062 51.1527 85.5506 50.5663 86.2438 50.1921C86.937 49.8189 87.7146 49.6318 88.5766 49.6318Z" fill="white"/>
<path d="M101.357 49.632C101.88 49.632 102.308 49.7012 102.641 49.8418C102.974 49.9825 103.252 50.1719 103.474 50.4123C103.71 50.6664 103.876 50.993 103.974 51.3933C104.072 51.7937 104.121 52.3335 104.121 53.014V58.3773C104.121 58.9376 104.229 59.3175 104.444 59.5183C104.66 59.7179 105.023 59.8177 105.532 59.8177V60.2385C105.311 60.2249 104.964 60.2078 104.493 60.1886C104.023 60.1681 103.559 60.1579 103.102 60.1579C102.658 60.1579 102.217 60.1681 101.778 60.1886C101.34 60.2078 101.01 60.2249 100.788 60.2385V59.8177C101.233 59.8177 101.547 59.7179 101.729 59.5183C101.912 59.3175 102.004 58.9376 102.004 58.3773V52.4538C102.004 52.067 101.971 51.7166 101.906 51.4024C101.84 51.0894 101.704 50.8353 101.495 50.6425C101.285 50.4486 100.972 50.3522 100.554 50.3522C100.069 50.3522 99.6418 50.4928 99.2696 50.773C98.8975 51.0531 98.6031 51.4364 98.3876 51.923C98.1721 52.4107 98.0643 52.9539 98.0643 53.5539V58.3773C98.0643 58.9376 98.1587 59.3175 98.3476 59.5183C98.5376 59.7179 98.8475 59.8177 99.2796 59.8177V60.2385C99.0697 60.2249 98.7531 60.2078 98.3287 60.1886C97.9032 60.1681 97.4633 60.1579 97.0056 60.1579C96.5613 60.1579 96.0969 60.1681 95.6137 60.1886C95.1305 60.2078 94.7705 60.2249 94.5361 60.2385V59.8177C95.0449 59.8177 95.4082 59.7179 95.6237 59.5183C95.8392 59.3175 95.947 58.9376 95.947 58.3773V52.0931C95.947 51.4931 95.8492 51.0497 95.6526 50.7628C95.4571 50.4758 95.0849 50.3318 94.5361 50.3318V49.9122C94.9538 49.9519 95.3593 49.9723 95.7514 49.9723C96.1947 49.9723 96.6102 49.9496 96.9956 49.902C97.3811 49.8555 97.7377 49.7851 98.0643 49.6921V51.8731C98.4031 51.0463 98.8708 50.4656 99.4652 50.1322C100.061 49.7987 100.69 49.632 101.357 49.632Z" fill="white"/>
<path d="M110.002 49.632C110.524 49.632 110.978 49.7148 111.364 49.8815C111.749 50.0493 112.027 50.1991 112.197 50.3317C112.628 50.6788 112.896 50.452 113.001 49.6513H113.432C113.406 50.0255 113.387 50.4758 113.373 51.0032C113.36 51.5305 113.353 52.2269 113.353 53.0945H112.922C112.845 52.6 112.71 52.1203 112.521 51.653C112.331 51.1858 112.057 50.799 111.698 50.4928C111.338 50.1854 110.87 50.0323 110.296 50.0323C109.865 50.0323 109.505 50.156 109.217 50.4021C108.93 50.6493 108.786 51.0122 108.786 51.4931C108.786 51.8935 108.904 52.2405 109.14 52.5342C109.374 52.8268 109.678 53.1013 110.051 53.3542C110.423 53.6083 110.825 53.8816 111.256 54.1742C111.739 54.5088 112.175 54.8388 112.56 55.1654C112.945 55.4921 113.252 55.8561 113.481 56.2565C113.71 56.6557 113.824 57.123 113.824 57.6571C113.824 58.2707 113.664 58.7913 113.344 59.2177C113.023 59.6453 112.602 59.9685 112.079 60.1885C111.557 60.4085 110.982 60.5186 110.355 60.5186C110.041 60.5186 109.747 60.4879 109.472 60.429C109.197 60.3688 108.943 60.2917 108.708 60.1987C108.564 60.1182 108.424 60.0354 108.287 59.9481C108.15 59.8619 108.015 59.778 107.884 59.6974C107.754 59.6044 107.637 59.6181 107.532 59.7383C107.427 59.8585 107.349 60.0717 107.297 60.3791H106.866C106.891 59.9515 106.911 59.4309 106.925 58.8174C106.937 58.2038 106.943 57.3895 106.943 56.3756H107.376C107.467 57.1093 107.603 57.7569 107.787 58.3172C107.97 58.8775 108.241 59.3152 108.6 59.6283C108.96 59.9413 109.453 60.0978 110.081 60.0978C110.328 60.0978 110.576 60.0422 110.825 59.9277C111.073 59.8154 111.279 59.6317 111.443 59.3776C111.606 59.1247 111.687 58.7845 111.687 58.3569C111.687 57.7705 111.488 57.2863 111.089 56.9063C110.692 56.5264 110.178 56.1226 109.551 55.6951C109.106 55.3752 108.685 55.0588 108.287 54.7447C107.888 54.4316 107.564 54.0778 107.317 53.6843C107.068 53.2907 106.943 52.8212 106.943 52.2734C106.943 51.6734 107.085 51.1801 107.366 50.7922C107.646 50.4055 108.022 50.1151 108.492 49.9223C108.963 49.7284 109.465 49.632 110.002 49.632Z" fill="white"/>
<path d="M124.409 49.6918V58.0776C124.409 58.6775 124.51 59.121 124.713 59.4079C124.915 59.6949 125.284 59.8378 125.819 59.8378V60.2585C125.415 60.2177 125.01 60.1984 124.604 60.1984C124.173 60.1984 123.762 60.2177 123.37 60.2585C122.978 60.2982 122.618 60.3719 122.291 60.4786V58.2976C121.965 59.0972 121.51 59.6676 120.929 60.0079C120.348 60.3481 119.736 60.5182 119.096 60.5182C118.613 60.5182 118.201 60.4479 117.861 60.3084C117.522 60.1678 117.241 59.9852 117.019 59.7584C116.783 59.4919 116.62 59.1482 116.529 58.7274C116.437 58.3078 116.391 57.777 116.391 57.1363V52.0928C116.391 51.4928 116.294 51.0494 116.097 50.7624C115.901 50.4755 115.529 50.3326 114.98 50.3326V49.9118C115.398 49.9526 115.804 49.9719 116.196 49.9719C116.627 49.9719 117.038 49.9492 117.43 49.9016C117.822 49.8551 118.182 49.7848 118.509 49.6918V57.6965C118.509 58.0844 118.534 58.4371 118.586 58.7581C118.639 59.0779 118.763 59.3308 118.96 59.5179C119.155 59.7051 119.47 59.7981 119.901 59.7981C120.357 59.7981 120.766 59.6574 121.125 59.3773C121.485 59.0972 121.769 58.7172 121.978 58.2375C122.187 57.7566 122.291 57.2168 122.291 56.6157V52.0928C122.291 51.4928 122.193 51.0494 121.998 50.7624C121.801 50.4755 121.429 50.3326 120.88 50.3326V49.9118C121.298 49.9526 121.704 49.9719 122.096 49.9719C122.527 49.9719 122.939 49.9492 123.331 49.9016C123.723 49.8551 124.082 49.7848 124.409 49.6918Z" fill="white"/>
<path d="M130.172 44.5486V58.3772C130.172 58.9374 130.279 59.3174 130.495 59.5181C130.711 59.7177 131.074 59.8175 131.583 59.8175V60.2383C131.36 60.2258 131.015 60.2088 130.544 60.1884C130.074 60.168 129.603 60.1578 129.133 60.1578C128.662 60.1578 128.189 60.168 127.712 60.1884C127.235 60.2088 126.879 60.2258 126.644 60.2383V59.8175C127.153 59.8175 127.516 59.7177 127.731 59.5181C127.947 59.3174 128.054 58.9374 128.054 58.3772V46.9496C128.054 46.3497 127.957 45.9062 127.761 45.6193C127.564 45.3323 127.192 45.1894 126.644 45.1894V44.7687C127.061 44.8095 127.467 44.8288 127.859 44.8288C128.29 44.8288 128.701 44.8061 129.093 44.7585C129.485 44.712 129.845 44.6416 130.172 44.5486Z" fill="white"/>
<path d="M135.955 46.6102V49.9321H138.66V50.3324H135.955V58.1977C135.955 58.7443 136.052 59.131 136.248 59.3579C136.444 59.5847 136.725 59.6981 137.091 59.6981C137.431 59.6981 137.735 59.5586 138.003 59.2785C138.271 58.9984 138.503 58.5243 138.698 57.8574L139.071 57.9969C138.914 58.7046 138.636 59.3012 138.239 59.7888C137.84 60.2754 137.254 60.5192 136.483 60.5192C136.039 60.5192 135.667 60.4614 135.366 60.3491C135.066 60.2357 134.804 60.0712 134.583 59.858C134.295 59.5518 134.098 59.1843 133.994 58.7579C133.889 58.3315 133.837 57.7644 133.837 57.0567V50.3324H132.034V49.9321H133.837V47.0105C134.242 46.9969 134.621 46.9606 134.974 46.9005C135.327 46.8404 135.653 46.744 135.955 46.6102Z" fill="white"/>
<path d="M143.148 59.4176C143.514 59.4176 143.857 59.311 144.177 59.0978C144.498 58.8846 144.795 58.5636 145.069 58.1372V54.1541C144.926 54.3684 144.717 54.551 144.442 54.7053C144.168 54.8584 143.874 55.0149 143.559 55.1748C143.246 55.3359 142.948 55.5185 142.667 55.726C142.386 55.9324 142.155 56.1955 141.972 56.5165C141.789 56.8363 141.697 57.2435 141.697 57.7368C141.697 58.2574 141.829 58.668 142.09 58.9674C142.351 59.2679 142.704 59.4176 143.148 59.4176ZM142.207 60.3782C141.659 60.3782 141.188 60.2716 140.795 60.0584C140.403 59.8452 140.11 59.5514 139.913 59.1772C139.718 58.8041 139.62 58.3765 139.62 57.8967C139.62 57.3104 139.75 56.8329 140.012 56.4655C140.273 56.0991 140.61 55.802 141.021 55.5752C141.433 55.3483 141.871 55.1589 142.335 55.0047C142.798 54.8516 143.236 54.7053 143.648 54.5647C144.059 54.4252 144.399 54.2618 144.667 54.0747C144.935 53.8876 145.069 53.6415 145.069 53.3341V51.9732C145.069 51.4923 144.993 51.1101 144.844 50.8231C144.694 50.5362 144.491 50.3321 144.236 50.2118C143.981 50.0916 143.677 50.0326 143.325 50.0326C143.024 50.0326 142.704 50.0757 142.364 50.1619C142.024 50.2493 141.756 50.4194 141.561 50.6723C141.847 50.7528 142.086 50.9093 142.276 51.143C142.465 51.3766 142.56 51.6658 142.56 52.0128C142.56 52.3871 142.44 52.6809 142.197 52.8941C141.955 53.1073 141.652 53.2139 141.286 53.2139C140.881 53.2139 140.58 53.0835 140.384 52.8238C140.188 52.5629 140.09 52.2601 140.09 51.913C140.09 51.5535 140.178 51.2598 140.354 51.033C140.531 50.8061 140.763 50.5929 141.051 50.3922C141.364 50.179 141.766 49.9986 142.256 49.8523C142.746 49.7049 143.292 49.6323 143.894 49.6323C144.455 49.6323 144.942 49.6958 145.353 49.8217C145.766 49.9487 146.108 50.1517 146.382 50.4319C146.709 50.7392 146.924 51.1226 147.03 51.583C147.134 52.0435 147.186 52.6003 147.186 53.2536V58.7768C147.186 59.1114 147.229 59.3484 147.313 59.4879C147.399 59.6286 147.539 59.6978 147.735 59.6978C147.865 59.6978 147.993 59.6649 148.117 59.5979C148.242 59.531 148.388 59.4312 148.558 59.2974L148.754 59.6376C148.479 59.8645 148.202 60.0448 147.922 60.1786C147.641 60.3113 147.284 60.3782 146.853 60.3782C146.434 60.3782 146.095 60.3113 145.833 60.1786C145.572 60.0448 145.379 59.852 145.256 59.5979C145.131 59.345 145.069 59.0309 145.069 58.6578C144.729 59.218 144.325 59.6444 143.854 59.9382C143.384 60.2319 142.835 60.3782 142.207 60.3782Z" fill="white"/>
<path d="M156.164 49.632C156.687 49.632 157.115 49.7012 157.448 49.8418C157.782 49.9825 158.059 50.1719 158.281 50.4123C158.517 50.6664 158.684 50.993 158.781 51.3933C158.879 51.7937 158.928 52.3335 158.928 53.014V58.3773C158.928 58.9376 159.036 59.3175 159.251 59.5183C159.467 59.7179 159.83 59.8177 160.339 59.8177V60.2385C160.118 60.2249 159.771 60.2078 159.3 60.1886C158.83 60.1681 158.366 60.1579 157.909 60.1579C157.464 60.1579 157.024 60.1681 156.585 60.1886C156.147 60.2078 155.818 60.2249 155.595 60.2385V59.8177C156.04 59.8177 156.354 59.7179 156.536 59.5183C156.72 59.3175 156.811 58.9376 156.811 58.3773V52.4538C156.811 52.067 156.778 51.7166 156.713 51.4024C156.647 51.0894 156.511 50.8353 156.302 50.6425C156.092 50.4486 155.779 50.3522 155.361 50.3522C154.877 50.3522 154.449 50.4928 154.077 50.773C153.704 51.0531 153.41 51.4364 153.195 51.923C152.979 52.4107 152.871 52.9539 152.871 53.5539V58.3773C152.871 58.9376 152.966 59.3175 153.155 59.5183C153.345 59.7179 153.655 59.8177 154.087 59.8177V60.2385C153.877 60.2249 153.56 60.2078 153.136 60.1886C152.71 60.1681 152.269 60.1579 151.813 60.1579C151.368 60.1579 150.904 60.1681 150.421 60.1886C149.938 60.2078 149.578 60.2249 149.343 60.2385V59.8177C149.852 59.8177 150.215 59.7179 150.431 59.5183C150.646 59.3175 150.754 58.9376 150.754 58.3773V52.0931C150.754 51.4931 150.656 51.0497 150.46 50.7628C150.264 50.4758 149.892 50.3318 149.343 50.3318V49.9122C149.761 49.9519 150.166 49.9723 150.559 49.9723C151.002 49.9723 151.417 49.9496 151.803 49.902C152.188 49.8555 152.544 49.7851 152.871 49.6921V51.8731C153.21 51.0463 153.678 50.4656 154.272 50.1322C154.868 49.7987 155.498 49.632 156.164 49.632Z" fill="white"/>
<path d="M166.142 49.632C166.586 49.632 167.01 49.6887 167.416 49.8021C167.821 49.9155 168.173 50.072 168.475 50.2728C168.788 50.4724 169.027 50.7128 169.19 50.9929C169.353 51.2731 169.435 51.5804 169.435 51.9127C169.435 52.3131 169.323 52.6272 169.101 52.8541C168.879 53.0809 168.592 53.1943 168.239 53.1943C167.887 53.1943 167.592 53.0945 167.357 52.8938C167.121 52.6942 167.004 52.4072 167.004 52.033C167.004 51.687 167.103 51.4024 167.298 51.1835C167.495 50.9623 167.722 50.8194 167.985 50.7525C167.867 50.5529 167.661 50.3816 167.367 50.2422C167.073 50.1015 166.756 50.0323 166.416 50.0323C166.063 50.0323 165.727 50.1253 165.406 50.3125C165.086 50.4996 164.802 50.7854 164.554 51.1721C164.305 51.56 164.107 52.0602 163.957 52.6737C163.805 53.2873 163.731 54.0279 163.731 54.8955C163.731 56.016 163.859 56.9063 164.113 57.5664C164.368 58.2265 164.704 58.6971 165.123 58.9773C165.541 59.2574 165.992 59.398 166.475 59.398C166.788 59.398 167.113 59.3379 167.446 59.2177C167.778 59.0975 168.099 58.8979 168.406 58.6177C168.712 58.3376 168.984 57.9565 169.219 57.4768L169.592 57.6163C169.448 58.0575 169.222 58.5043 168.916 58.958C168.608 59.4116 168.207 59.7848 167.71 60.0785C167.213 60.3711 166.606 60.5186 165.887 60.5186C165.064 60.5186 164.319 60.3121 163.652 59.8982C162.986 59.4842 162.457 58.8809 162.065 58.087C161.673 57.2931 161.477 56.3234 161.477 55.1756C161.477 54.0551 161.676 53.0775 162.075 52.2439C162.474 51.4092 163.025 50.7661 163.731 50.3125C164.436 49.8588 165.24 49.632 166.142 49.632Z" fill="white"/>
<path d="M175.649 60.1984L174.943 62.0799C174.812 62.4122 174.679 62.6923 174.541 62.9203C174.403 63.1471 174.257 63.3331 174.1 63.4806C173.903 63.6677 173.662 63.8004 173.375 63.8809C173.087 63.9603 172.799 64 172.513 64C172.238 64 171.979 63.9501 171.737 63.8503C171.496 63.7505 171.297 63.6008 171.14 63.4C170.983 63.2004 170.905 62.9532 170.905 62.6595C170.905 62.3124 171.016 62.0323 171.238 61.8191C171.461 61.6058 171.754 61.4992 172.12 61.4992C172.446 61.4992 172.721 61.5888 172.944 61.7692C173.166 61.9495 173.277 62.2126 173.277 62.5596C173.277 62.8001 173.215 63.0065 173.09 63.18C172.966 63.3535 172.806 63.4874 172.61 63.5804C172.649 63.594 172.689 63.6008 172.728 63.6008H172.826C173.191 63.6008 173.519 63.4772 173.806 63.2299C174.093 62.9838 174.336 62.5857 174.531 62.0391L175.237 60.1179L175.649 60.1984ZM180 49.9118V50.3121C179.751 50.3518 179.523 50.4822 179.315 50.7023C179.105 50.9223 178.902 51.2999 178.707 51.833L175.649 60.1984L175.179 60.6781L171.356 51.4531C171.107 50.9325 170.869 50.6161 170.64 50.5027C170.412 50.3892 170.219 50.3325 170.062 50.3325V49.9118C170.389 49.9526 170.735 49.9821 171.101 50.0025C171.466 50.0218 171.846 50.032 172.238 50.032C172.681 50.032 173.129 50.0195 173.58 49.9923C174.031 49.9651 174.453 49.939 174.844 49.9118V50.3325C174.531 50.3325 174.253 50.3552 174.012 50.4028C173.77 50.4493 173.612 50.5764 173.541 50.7828C173.469 50.9892 173.531 51.3396 173.728 51.833L176.159 57.9369L176.021 57.997L178 52.6337C178.197 52.1006 178.275 51.6697 178.236 51.343C178.197 51.0164 178.059 50.7692 177.824 50.6025C177.589 50.4357 177.243 50.3393 176.785 50.3121V49.9118C177.007 49.9254 177.213 49.9356 177.403 49.9424C177.592 49.9492 177.778 49.9549 177.962 49.9617C178.145 49.9685 178.327 49.9719 178.51 49.9719C178.798 49.9719 179.069 49.9651 179.323 49.9526C179.579 49.939 179.805 49.9254 180 49.9118Z" fill="white"/>
<path d="M54.0117 20.2546L50.7712 16.9452L47.5308 20.2546V6.12892L54.0117 3.90034V20.2546Z" fill="white"/>
<path d="M31.0549 11.5428V30.7596H0.0111092C0.0055547 30.4965 0 30.2288 0 29.9657V0.00522423L31.0549 11.5428Z" fill="white"/>
<path d="M31.0551 32.411V61.6706C18.2398 58.3033 6.25335 51.3647 1.81201 39.9213L3.36059 39.437L20.7549 33.9863C24.1098 32.9361 27.5858 32.411 31.0551 32.411Z" fill="white"/>
<path d="M62.1157 0V29.9661C62.1157 30.2281 62.1101 30.4969 62.1045 30.7589C62.0701 32.0495 61.9501 33.2858 61.7613 34.5004C61.4869 36.2152 61.0581 37.8495 60.4926 39.4021C60.4293 39.5768 60.366 39.7458 60.2982 39.9216C55.8625 51.365 43.876 58.3036 31.0552 61.6709V59.9606C31.5695 59.8268 32.1127 59.6748 32.6782 59.5058C33.227 59.3425 33.7935 59.1667 34.3701 58.9807C34.7822 58.8458 35.1932 58.7063 35.6165 58.56C35.9253 58.4556 36.2341 58.3445 36.543 58.2277C36.9196 58.0938 37.2973 57.9532 37.6739 57.808C38.0282 57.6731 38.3771 57.5336 38.7314 57.3929C38.9092 57.3226 39.0858 57.2478 39.2635 57.1718C39.4346 57.1015 39.6112 57.0198 39.789 56.9438C39.8579 56.9143 39.9201 56.886 39.989 56.8565C40.2522 56.7453 40.5088 56.6285 40.7666 56.5117C41.081 56.3665 41.3953 56.2202 41.7097 56.0683C41.8864 55.9866 42.0585 55.905 42.2296 55.8176C42.2696 55.7995 42.2985 55.7825 42.3385 55.7598C42.5151 55.677 42.6929 55.5897 42.8639 55.4967C42.9839 55.4377 43.1039 55.3742 43.225 55.3095C43.4983 55.17 43.7671 55.0237 44.0415 54.8718C44.0648 54.8661 44.0815 54.8547 44.0992 54.8434C44.4303 54.6619 44.768 54.4748 45.0935 54.2888C45.1279 54.2707 45.1568 54.2537 45.179 54.2355C45.379 54.1198 45.5856 53.9973 45.7911 53.868C45.9911 53.7512 46.1911 53.6287 46.391 53.5006C47.0087 53.1161 47.6141 52.7135 48.2084 52.2927C48.3462 52.1941 48.4884 52.0943 48.6261 51.9899C49.3749 51.4467 50.1069 50.8807 50.8157 50.274C51.0956 50.0403 51.37 49.7954 51.6444 49.5447C51.9188 49.2986 52.1865 49.0423 52.4498 48.786C52.5131 48.727 52.5698 48.6692 52.6275 48.6045C52.8331 48.406 53.033 48.2076 53.233 47.9978C53.3185 47.9104 53.4052 47.8174 53.484 47.729C53.7529 47.4432 54.0106 47.1574 54.2561 46.8602C54.2905 46.8251 54.3194 46.7899 54.3472 46.7547C54.5938 46.4689 54.8282 46.1831 55.056 45.8849C55.1704 45.7397 55.2792 45.5934 55.3937 45.4482C55.5247 45.2781 55.6514 45.1091 55.7769 44.9345C55.868 44.7995 55.9658 44.6657 56.0569 44.5262C56.1657 44.3685 56.2735 44.2109 56.3768 44.0532C56.4801 43.8956 56.5823 43.7379 56.6801 43.5746C56.7823 43.4113 56.88 43.2537 56.9767 43.0904C57.1766 42.7637 57.3544 42.4303 57.5377 42.0923C57.6288 41.9233 57.7143 41.7532 57.7998 41.5786C57.8854 41.4039 57.972 41.2338 58.0576 41.0534C58.1198 40.9196 58.1887 40.779 58.252 40.6395C58.2864 40.5635 58.3197 40.4875 58.3542 40.4059C58.4919 40.0849 58.6286 39.7696 58.7552 39.443V39.4373L41.3442 33.9866C37.9882 32.9364 34.5245 32.4113 31.0552 32.4113V30.7589H60.4749C60.4871 30.4969 60.4926 30.2281 60.4926 29.9661V2.36354L31.0552 13.3057V11.5432L60.4926 0.606766L62.1157 0Z" fill="white"/>
</svg>
