<svg width="25" height="24" viewBox="0 0 25 24" fill="none" xmlns="http://www.w3.org/2000/svg">
<g clip-path="url(#clip0_2261_2269)">
<path d="M15.5494 5C16.5262 5.19057 17.4238 5.66826 18.1275 6.37194C18.8312 7.07561 19.3089 7.97326 19.4994 8.95M15.5494 1C17.5787 1.22544 19.471 2.13417 20.9157 3.57701C22.3603 5.01984 23.2714 6.91101 23.4994 8.94M22.332 20.7293C22.2204 20.9845 22.0567 21.2136 21.8515 21.4019C21.6463 21.5901 21.404 21.7335 21.1402 21.8227C20.8764 21.9119 20.5968 21.9451 20.3194 21.92C17.2423 21.5856 14.2864 20.5341 11.6894 18.85C9.27327 17.3147 7.22478 15.2662 5.68945 12.85C3.99942 10.2412 2.94769 7.271 2.61944 4.18C2.59446 3.90347 2.62732 3.62476 2.71595 3.36163C2.80457 3.09849 2.94702 2.85669 3.13421 2.65162C3.32141 2.44655 3.54925 2.28271 3.80324 2.17052C4.05722 2.05834 4.33179 2.00026 4.60945 2H6.99945H7.01427C7.70816 1.99998 8.3709 1.99995 8.93321 2.48353C9.30118 2.79999 9.54152 3.23945 9.60944 3.72C9.73607 4.68007 9.97089 5.62273 10.3094 6.53C10.444 6.88793 10.4731 7.27692 10.3934 7.65088C10.3136 8.02485 10.1283 8.36811 9.85944 8.64L8.58945 9.91C10.013 12.4135 12.0859 14.4864 14.5894 15.91L15.8594 14.64C16.1313 14.3711 16.4746 14.1859 16.8486 14.1061C17.2225 14.0263 17.6115 14.0555 17.9694 14.19C18.45 14.3693 18.9405 14.5195 19.4382 14.64C19.8802 14.747 20.3279 14.8304 20.7794 14.89C21.2652 14.9585 21.7088 15.2032 22.026 15.5775C22.4815 16.1151 22.5051 17.3363 22.4995 18.5C22.4952 19.3852 22.5472 20.237 22.332 20.7293Z" stroke="#36394A" stroke-width="1.5" stroke-linecap="round" stroke-linejoin="round"/>
</g>
<defs>
<clipPath id="clip0_2261_2269">
<rect width="24" height="24" fill="white" transform="translate(0.5)"/>
</clipPath>
</defs>
</svg>
