<svg width="96" height="96" viewBox="0 0 96 96" fill="none" xmlns="http://www.w3.org/2000/svg">
<g clip-path="url(#clip0_164_5703)">
<path fill-rule="evenodd" clip-rule="evenodd" d="M57.6 6.85714C57.6 3.07005 54.5299 0 50.7427 0H45.2571C41.47 0 38.4 3.07005 38.4 6.85714V8.26891C38.4 14.378 31.0139 17.4374 26.6941 13.1176L25.6958 12.1194C23.018 9.4415 18.6763 9.4415 15.9984 12.1194L12.1194 15.9984C9.4415 18.6762 9.4415 23.0179 12.1194 25.6958L13.1177 26.6941C17.4374 31.0139 14.378 38.4 8.26896 38.4H6.85714C3.07005 38.4 0 41.47 0 45.2571V50.7427C0 54.5299 3.07005 57.6 6.85714 57.6H8.26891C14.378 57.6 17.4374 64.9862 13.1177 69.3058L12.1194 70.3042C9.4415 72.9821 9.4415 77.3237 12.1194 80.0016L15.9984 83.8805C18.6763 86.5584 23.018 86.5584 25.6958 83.8805L26.6941 82.8821C31.0139 78.5626 38.4 81.6221 38.4 87.731V89.1427C38.4 92.9299 41.47 96 45.2571 96H50.7427C54.5299 96 57.6 92.9299 57.6 89.1427V87.731C57.6 81.6221 64.9862 78.5626 69.3058 82.8821L70.3042 83.8805C72.9821 86.5584 77.3237 86.5584 80.0016 83.8805L83.8805 80.0016C86.5584 77.3237 86.5584 72.9821 83.8805 70.3042L82.8826 69.3058C78.5626 64.9862 81.6221 57.6 87.731 57.6H89.1427C92.9299 57.6 96 54.5299 96 50.7427V45.2571C96 41.47 92.9299 38.4 89.1427 38.4H87.731C81.6221 38.4 78.5626 31.0139 82.8821 26.6941L83.8805 25.6958C86.5584 23.0179 86.5584 18.6762 83.8805 15.9984L80.0016 12.1194C77.3237 9.44146 72.9821 9.44146 70.3042 12.1194L69.3058 13.1176C64.9862 17.4374 57.6 14.378 57.6 8.26891V6.85714Z" fill="#C026D3"/>
</g>
<defs>
<clipPath id="clip0_164_5703">
<rect width="96" height="96" fill="white"/>
</clipPath>
</defs>
</svg>
