<svg width="132" height="132" viewBox="0 0 132 132" fill="none" xmlns="http://www.w3.org/2000/svg">
<g clip-path="url(#clip0_164_5700)">
<path fill-rule="evenodd" clip-rule="evenodd" d="M66.4907 51.6299L72.0758 29.8991C72.4599 28.4056 73.9813 27.5063 75.4749 27.89C76.9681 28.2739 77.8676 29.7957 77.484 31.2889L71.8988 53.0197C74.5719 50.5049 77.936 47.9799 81.7805 45.7075C93.191 38.963 104.512 36.9993 107.067 41.3214C109.622 45.6437 102.442 54.6149 91.032 61.3594C87.1874 63.6318 83.3534 65.3616 79.8612 66.4907L101.592 72.0758C103.085 72.4599 103.985 73.9814 103.601 75.4749C103.217 76.9682 101.696 77.8675 100.202 77.484L78.4712 71.8989C80.9862 74.5719 83.5113 77.9365 85.7835 81.7806C92.528 93.1911 94.4919 104.512 90.1697 107.067C85.8475 109.622 76.8761 102.443 70.1316 91.0321C67.8592 87.1875 66.1295 83.3533 65.0003 79.8613L59.4153 101.592C59.0314 103.085 57.5096 103.985 56.0164 103.601C54.5229 103.217 53.6236 101.696 54.0072 100.202L59.5922 78.4712C56.919 80.9863 53.5549 83.5112 49.7105 85.7835C38.2999 92.528 26.9789 94.4919 24.4241 90.1697C21.8694 85.8475 29.0485 76.8761 40.4591 70.1316C44.3034 67.8593 48.1376 66.1296 51.6298 65.0002L29.8992 59.4152C28.4058 59.0314 27.5063 57.5097 27.8901 56.0163C28.2739 54.5229 29.7957 53.6235 31.289 54.0073L53.0198 59.5923C50.5049 56.919 47.9798 53.555 45.7075 49.7106C38.963 38.3 36.9993 26.9788 41.3215 24.4241C45.6437 21.8693 54.6149 29.0485 61.3594 40.4591C63.6317 44.3035 65.3615 48.1375 66.4907 51.6299Z" fill="#0284C7"/>
</g>
<defs>
<clipPath id="clip0_164_5700">
<rect width="96" height="96" fill="white" transform="translate(0 48.8482) rotate(-30.5863)"/>
</clipPath>
</defs>
</svg>
