<svg width="124" height="124" viewBox="0 0 124 124" fill="none" xmlns="http://www.w3.org/2000/svg">
<g clip-path="url(#clip0_164_5699)">
<path fill-rule="evenodd" clip-rule="evenodd" d="M39.3855 53.3798C51.7888 58.0541 65.6329 51.7885 70.3072 39.3853C65.6329 51.7885 71.8986 65.6327 84.3018 70.307C71.8986 65.6327 58.0544 71.8984 53.3801 84.3015C58.0544 71.8984 51.7888 58.0541 39.3855 53.3798ZM39.3855 53.3798C26.9822 48.7056 13.1381 54.9712 8.46381 67.3744C3.78956 79.7776 10.0551 93.6218 22.4584 98.2961C34.8617 102.97 48.7058 96.7047 53.3801 84.3015C48.7058 96.7047 54.9715 110.549 67.3747 115.223C79.7779 119.897 93.6221 113.632 98.2964 101.229C102.971 88.8255 96.705 74.9812 84.3018 70.307C96.705 74.9812 110.549 68.7157 115.223 56.3124C119.898 43.9091 113.632 30.0649 101.229 25.3907C88.8257 20.7164 74.9815 26.982 70.3072 39.3853C74.9815 26.982 68.7159 13.1378 56.3126 8.46356C43.9094 3.78927 30.0652 10.0549 25.3909 22.4581C20.7166 34.8614 26.9822 48.7056 39.3855 53.3798Z" fill="#E11D48"/>
</g>
<defs>
<clipPath id="clip0_164_5699">
<rect width="96" height="96" fill="white" transform="translate(33.8545) rotate(20.6494)"/>
</clipPath>
</defs>
</svg>
