<svg width="114" height="114" viewBox="0 0 114 114" fill="none" xmlns="http://www.w3.org/2000/svg">
<g clip-path="url(#clip0_164_5704)">
<path fill-rule="evenodd" clip-rule="evenodd" d="M50.9944 72.7262C34.3978 121.259 102.049 107.627 67.9159 69.3163C115.317 104.953 123.945 91.9961 72.7244 62.0808C121.261 78.6774 107.628 11.0238 69.3143 45.1585C104.951 -2.26009 91.9923 -10.8721 62.0788 40.3496C78.6741 -8.18829 11.0233 5.44425 45.1572 43.7596C-2.26009 8.12102 -10.8717 21.0797 40.3487 50.9954C-8.18776 34.3984 5.44533 102.052 43.7588 67.9178C8.1222 115.336 21.0796 123.943 50.9944 72.7262ZM58.9067 68.2997C65.4034 66.9905 69.6089 60.6624 68.2997 54.1656C66.9905 47.6688 60.6624 43.4634 54.1657 44.7726C47.6689 46.0818 43.4634 52.4098 44.7726 58.9066C46.0818 65.4034 52.4099 69.6089 58.9067 68.2997Z" fill="#DC2626"/>
</g>
<defs>
<clipPath id="clip0_164_5704">
<rect width="96" height="96" fill="white" transform="translate(0 18.9641) rotate(-11.3933)"/>
</clipPath>
</defs>
</svg>
