<svg width="96" height="96" viewBox="0 0 96 96" fill="none" xmlns="http://www.w3.org/2000/svg">
<path fill-rule="evenodd" clip-rule="evenodd" d="M51.4286 0H44.5714V30.3615L33.1978 2.21079L26.84 4.77953L38.5082 33.6595L16.4832 11.6345L11.6345 16.4832L32.7445 37.5932L5.38757 25.6407L2.6422 31.9243L31.589 44.5714H0V51.4286H31.589L2.64221 64.0757L5.38757 70.3594L32.7444 58.4069L11.6345 79.5168L16.4832 84.3653L38.5082 62.3405L26.84 91.2206L33.1978 93.7891L44.5714 65.6386V96H51.4286V65.6386L62.8022 93.7891L69.1598 91.2206L57.492 62.3405L79.5168 84.3653L84.3653 79.5168L63.2554 58.4069L90.6125 70.3594L93.3576 64.0757L64.4112 51.4286H96V44.5714H64.4107L93.3576 31.9243L90.6125 25.6407L63.2554 37.5932L84.3653 16.4832L79.5168 11.6345L57.492 33.6594L69.1598 4.77953L62.8022 2.21079L51.4286 30.3615V0Z" fill="#65A30D"/>
</svg>
