<svg width="89" height="89" viewBox="0 0 89 89" fill="none" xmlns="http://www.w3.org/2000/svg">
<path d="M59.2608 1.80045C62.7487 -0.907328 67.8393 1.44866 68.0323 5.86002L69.2617 33.9515C69.3109 35.0771 69.7084 36.1598 70.3998 37.05L87.6425 59.2606C90.3505 62.7486 87.9945 67.8392 83.5829 68.0321L55.4918 69.2616C54.3658 69.3106 53.2831 69.7082 52.393 70.3996L30.1824 87.6423C26.6944 90.3503 21.6039 87.9943 21.4109 83.5827L20.1814 55.4916C20.1323 54.3655 19.7347 53.2829 19.0437 52.3929L1.80064 30.1822C-0.907159 26.6943 1.44883 21.6037 5.86021 21.4107L33.9517 20.1813C35.0774 20.132 36.16 19.7345 37.0501 19.0435L59.2608 1.80045Z" fill="#EA580C"/>
</svg>
