<svg width="41" height="40" viewBox="0 0 41 40" fill="none" xmlns="http://www.w3.org/2000/svg">
<g clip-path="url(#clip0_2261_2287)">
<path d="M20.1992 3.60375C25.5394 3.60375 26.1719 3.62406 28.2808 3.72016C30.2308 3.80922 31.2898 4.135 31.9947 4.40891C32.9281 4.77172 33.5944 5.20516 34.2942 5.905C34.9942 6.60484 35.4275 7.27109 35.7903 8.20453C36.0642 8.90938 36.39 9.96844 36.4791 11.9183C36.5752 14.0273 36.5955 14.6598 36.5955 20C36.5955 25.3403 36.5752 25.9728 36.4791 28.0817C36.39 30.0317 36.0642 31.0906 35.7903 31.7955C35.4275 32.7289 34.9941 33.3953 34.2942 34.0952C33.5944 34.795 32.9281 35.2284 31.9947 35.5911C31.2898 35.865 30.2308 36.1909 28.2808 36.2798C26.1722 36.3761 25.5397 36.3964 20.1992 36.3964C14.8586 36.3964 14.2261 36.3761 12.1175 36.2798C10.1675 36.1908 9.10859 35.865 8.40375 35.5911C7.47031 35.2284 6.80391 34.795 6.10406 34.0952C5.40422 33.3952 4.97078 32.7289 4.60812 31.7955C4.33422 31.0908 4.00828 30.0317 3.91937 28.0817C3.82312 25.9728 3.80281 25.3403 3.80281 20C3.80281 14.6598 3.82312 14.0273 3.91937 11.9184C4.00844 9.96844 4.33422 8.90938 4.60812 8.20453C4.97078 7.27109 5.40422 6.60484 6.10406 5.905C6.80406 5.205 7.47031 4.77172 8.40375 4.40891C9.10844 4.135 10.1675 3.80922 12.1175 3.72016C14.2264 3.62406 14.8589 3.60375 20.1992 3.60375ZM20.1992 0C14.7675 0 14.0864 0.0229687 11.9533 0.120312C9.82438 0.2175 8.37047 0.555625 7.09844 1.05C5.78312 1.56109 4.66781 2.245 3.55594 3.35687C2.44406 4.46875 1.76031 5.58406 1.24922 6.89922C0.754687 8.17141 0.416719 9.62531 0.319531 11.7541C0.222187 13.8872 0.199219 14.5683 0.199219 20C0.199219 25.4317 0.222187 26.1128 0.319531 28.2459C0.416719 30.3748 0.754687 31.8288 1.24922 33.1008C1.76016 34.4159 2.44406 35.5314 3.55594 36.6433C4.66781 37.7552 5.78312 38.4389 7.09844 38.95C8.37062 39.4445 9.82438 39.7825 11.9531 39.8797C14.0864 39.977 14.7675 40 20.1992 40C25.6309 40 26.312 39.977 28.4452 39.8797C30.5739 39.7825 32.0278 39.4445 33.2998 38.95C34.6152 38.4391 35.7305 37.7552 36.8423 36.6433C37.9542 35.5314 38.6381 34.4161 39.1492 33.1008C39.6436 31.8286 39.9817 30.3748 40.0789 28.2461C40.1763 26.1128 40.1992 25.4317 40.1992 20C40.1992 14.5683 40.1763 13.8872 40.0789 11.7541C39.9817 9.62531 39.6436 8.17141 39.1492 6.89937C38.6381 5.58406 37.9542 4.46875 36.8423 3.35687C35.7305 2.245 34.6152 1.56094 33.3 1.05C32.0278 0.555625 30.5739 0.2175 28.4452 0.120312C26.312 0.0229687 25.6309 0 20.1992 0ZM20.1992 9.72969C14.527 9.72969 9.92891 14.3281 9.92891 20C9.92891 25.6722 14.527 30.2703 20.1992 30.2703C25.8713 30.2703 30.4695 25.6722 30.4695 20C30.4695 14.328 25.8713 9.72969 20.1992 9.72969ZM20.1992 26.6667C16.5173 26.6667 13.5325 23.6819 13.5325 20C13.5325 16.3181 16.5173 13.3333 20.1992 13.3333C23.8811 13.3333 26.8659 16.3181 26.8659 20C26.8659 23.6819 23.8811 26.6667 20.1992 26.6667ZM33.2752 9.32391C33.2752 10.6495 32.2008 11.7239 30.8752 11.7239C29.5497 11.7239 28.4752 10.6495 28.4752 9.32391C28.4752 7.99844 29.5497 6.92391 30.8752 6.92391C32.2008 6.92391 33.2752 7.99844 33.2752 9.32391Z" fill="#0D0D12"/>
</g>
<defs>
<clipPath id="clip0_2261_2287">
<rect width="40" height="40" fill="white" transform="translate(0.199219)"/>
</clipPath>
</defs>
</svg>
