<svg width="36" height="36" viewBox="0 0 36 36" fill="none" xmlns="http://www.w3.org/2000/svg">
<path fill-rule="evenodd" clip-rule="evenodd" d="M32.0095 0.5H4.78733C2.63872 0.5 0.898438 2.24028 0.898438 4.38889V31.6111C0.898438 33.7597 2.63872 35.5 4.78733 35.5H32.0095C34.1582 35.5 35.8984 33.7597 35.8984 31.6111V4.38889C35.8984 2.24028 34.1582 0.5 32.0095 0.5ZM11.4811 30.6389H6.26024V13.7854H11.4811V30.6389ZM8.84635 11.5785C7.1401 11.5785 5.75955 10.1882 5.75955 8.46736C5.75955 6.74653 7.1401 5.35625 8.84635 5.35625C10.5526 5.35625 11.9332 6.74653 11.9332 8.46736C11.9332 10.1882 10.5526 11.5785 8.84635 11.5785ZM31.0373 30.6389H25.8457V21.7917C25.8457 19.366 24.922 18.0097 23.0068 18.0097C20.9165 18.0097 19.8276 19.4194 19.8276 21.7917V30.6389H14.8207V13.7854H19.8276V16.0556C19.8276 16.0556 21.3345 13.2701 24.9075 13.2701C28.4804 13.2701 31.0422 15.4528 31.0422 19.9688V30.6389H31.0373Z" fill="#0D0D12"/>
</svg>
