<svg width="203" height="72" viewBox="0 0 203 72" fill="none" xmlns="http://www.w3.org/2000/svg">
<path d="M87.3433 6.52571C87.2845 7.38183 87.2583 8.03381 87.2658 8.48421C87.2733 8.9346 87.277 9.34799 87.277 9.7231C87.277 10.0982 87.2845 10.5103 87.2995 10.9607C87.3133 11.4111 87.3508 12.0644 87.4095 12.9192H86.9021C86.8284 12.4242 86.7334 11.9483 86.6159 11.4902C86.4972 11.0322 86.2885 10.6609 85.9873 10.3751C85.6848 10.0906 85.2187 9.94766 84.5863 9.94766V9.49727C85.0575 9.49727 85.4286 9.4003 85.6998 9.20509C85.9723 9.00988 86.181 8.7547 86.3285 8.43955C86.4759 8.1244 86.5822 7.79777 86.6484 7.45966C86.7146 7.12283 86.7771 6.81151 86.8359 6.52571H87.3433ZM86.7034 9.94766H82.7117V9.49727H86.7034V9.94766ZM90.3639 1.79723C90.3052 2.36884 90.2652 2.92002 90.2427 3.45207C90.2214 3.9854 90.2102 4.39496 90.2102 4.67948C90.2102 4.96528 90.2164 5.2345 90.2314 5.48968C90.2464 5.74613 90.2614 5.95538 90.2764 6.11997H89.769C89.6653 5.1605 89.5078 4.40261 89.2941 3.84632C89.0817 3.29131 88.7655 2.89706 88.3468 2.66484C87.9269 2.43263 87.3433 2.31525 86.5934 2.31525H85.0712C84.6013 2.31525 84.2451 2.35735 84.0014 2.43901C83.7602 2.52194 83.594 2.68781 83.5065 2.93533C83.4178 3.18286 83.3741 3.56945 83.3741 4.09385V15.4417C83.3741 15.952 83.4178 16.3348 83.5065 16.59C83.594 16.8452 83.7602 17.0136 84.0014 17.0965C84.2451 17.1782 84.6013 17.2203 85.0712 17.2203H86.5047C87.3433 17.2203 88.0081 17.085 88.5005 16.8145C88.9929 16.544 89.3678 16.1013 89.6253 15.4863C89.8827 14.8713 90.0777 14.0305 90.2102 12.9652H90.7163C90.6726 13.4002 90.6513 13.9706 90.6513 14.6761C90.6513 14.976 90.6613 15.411 90.6838 15.9814C90.7063 16.5517 90.7463 17.1373 90.805 17.7383C90.0552 17.7077 89.2104 17.6885 88.2693 17.6809C87.3283 17.6745 86.4909 17.6707 85.7548 17.6707H84.4538C83.9252 17.6707 83.3553 17.6745 82.7454 17.6809C82.1343 17.6885 81.5169 17.6962 80.8933 17.7038C80.2672 17.7115 79.6686 17.723 79.0962 17.7383V17.2879C79.5948 17.2573 79.9698 17.1973 80.2197 17.1067C80.4697 17.0174 80.6359 16.8375 80.7171 16.567C80.7971 16.2965 80.8371 15.8921 80.8371 15.3511V4.18444C80.8371 3.62942 80.7971 3.21986 80.7171 2.95702C80.6359 2.69547 80.4659 2.51429 80.2097 2.41732C79.9523 2.31908 79.5811 2.26294 79.0962 2.2489V1.79723C79.6686 1.81254 80.2672 1.82403 80.8933 1.83168C81.5169 1.83934 82.1343 1.84699 82.7454 1.85465C83.3553 1.8623 83.9252 1.86486 84.4538 1.86486H85.7548C86.4309 1.86486 87.1995 1.8623 88.0594 1.85465C88.9192 1.84699 89.6878 1.82786 90.3639 1.79723Z" fill="white"/>
<path d="M98.7664 1.79753V2.24792C98.2665 2.26324 97.8878 2.31938 97.6304 2.41634C97.3729 2.51459 97.2005 2.69449 97.1117 2.95732C97.0243 3.22016 96.9805 3.62972 96.9805 4.18346V15.4407C96.9805 15.951 97.0205 16.3338 97.1017 16.589C97.1817 16.8442 97.3442 17.0139 97.5866 17.0955C97.8291 17.1785 98.1778 17.2193 98.6339 17.2193H100.067C100.7 17.2193 101.232 17.13 101.666 16.9501C102.099 16.7689 102.463 16.4997 102.758 16.1386C103.052 15.7788 103.279 15.3131 103.442 14.7428C103.603 14.1725 103.728 13.5052 103.817 12.7396H104.323C104.279 13.2194 104.258 13.8509 104.258 14.6305C104.258 14.9303 104.268 15.3705 104.29 15.9472C104.313 16.5252 104.353 17.1223 104.411 17.7373C103.662 17.708 102.817 17.6888 101.876 17.6812C100.935 17.6735 100.097 17.6697 99.3613 17.6697H98.0603C97.5317 17.6697 96.9618 17.6735 96.3519 17.6812C95.7408 17.6888 95.1234 17.6965 94.4998 17.7041C93.8736 17.7118 93.275 17.7233 92.7026 17.7373V17.2869C93.2013 17.2576 93.5762 17.1976 93.8262 17.107C94.0761 17.0164 94.2423 16.8365 94.3236 16.5673C94.4035 16.2968 94.4435 15.8911 94.4435 15.3514V4.18346C94.4435 3.62972 94.4035 3.22016 94.3236 2.95732C94.2423 2.69449 94.0724 2.51459 93.8162 2.41634C93.5587 2.31938 93.1875 2.26324 92.7026 2.24792V1.79753C93.0401 1.81284 93.4775 1.82815 94.0149 1.84219C94.551 1.8575 95.1271 1.86516 95.7458 1.86516C96.3032 1.86516 96.858 1.8575 97.4104 1.84219C97.9616 1.82815 98.414 1.81284 98.7664 1.79753Z" fill="white"/>
<path d="M120.157 1.48267C121.112 1.48267 121.907 1.75316 122.539 2.29286C123.17 2.83384 123.486 3.59173 123.486 4.56651C123.486 5.16746 123.365 5.68547 123.123 6.12055C122.88 6.55563 122.542 6.93075 122.108 7.24589C121.675 7.56104 121.172 7.81622 120.598 8.01143C120.303 8.14668 119.922 8.2934 119.451 8.45034C118.981 8.60855 118.481 8.76931 117.951 8.93518C117.423 9.09977 116.919 9.25798 116.442 9.40726C115.963 9.55782 115.57 9.69306 115.262 9.813C114.526 10.0376 113.931 10.3042 113.475 10.6117C113.018 10.9205 112.791 11.3288 112.791 11.8391C112.791 12.2295 112.905 12.56 113.133 12.8292C113.361 13.0997 113.641 13.3026 113.971 13.4378C114.302 13.5731 114.622 13.6407 114.931 13.6407C115.048 13.6407 115.196 13.6254 115.372 13.5948C115.548 13.5654 115.705 13.5208 115.845 13.4595C115.985 13.4008 116.069 13.3255 116.099 13.235C115.819 13.175 115.573 13.0436 115.361 12.8407C115.147 12.6378 115.041 12.3495 115.041 11.9744C115.041 11.5839 115.177 11.2764 115.448 11.0506C115.72 10.8261 116.055 10.7138 116.452 10.7138C116.864 10.7138 117.191 10.8337 117.434 11.0736C117.676 11.3135 117.798 11.6286 117.798 12.019C117.798 12.4554 117.658 12.8228 117.378 13.1227C117.099 13.4225 116.745 13.6445 116.319 13.7861C115.893 13.929 115.452 14.0005 114.997 14.0005C114.526 14.0005 114.067 13.9073 113.618 13.7185C113.17 13.531 112.802 13.2388 112.516 12.8407C112.229 12.4439 112.086 11.9221 112.086 11.2764C112.086 10.6615 112.225 10.132 112.505 9.68923C112.784 9.2465 113.2 8.8599 113.751 8.52944C114.302 8.20026 114.967 7.92977 115.747 7.71925C116.143 7.58401 116.618 7.44111 117.169 7.29183C117.72 7.14127 118.282 6.98051 118.856 6.80698C119.43 6.63474 119.958 6.44335 120.443 6.23283C121.282 5.90365 121.884 5.56554 122.252 5.21977C122.619 4.87528 122.803 4.48485 122.803 4.04977C122.803 3.61469 122.685 3.23575 122.45 2.91295C122.215 2.59015 121.903 2.33114 121.513 2.13593C121.123 1.94072 120.708 1.84247 120.267 1.84247C120.105 1.84247 119.97 1.85396 119.86 1.87692C119.748 1.89989 119.672 1.94837 119.628 2.02238C119.877 2.12827 120.068 2.29286 120.201 2.5187C120.333 2.74326 120.399 2.96143 120.399 3.17196C120.399 3.54707 120.26 3.84308 119.981 4.05998C119.701 4.27816 119.37 4.38661 118.989 4.38661C118.635 4.38661 118.319 4.28199 118.04 4.07146C117.76 3.86222 117.621 3.55345 117.621 3.14899C117.621 2.75857 117.746 2.43959 117.995 2.19207C118.246 1.94454 118.565 1.76464 118.955 1.65109C119.345 1.53881 119.746 1.48267 120.157 1.48267ZM111.931 1.86544C112.49 1.86544 112.949 1.92158 113.31 2.03386C113.67 2.14741 113.975 2.29286 114.224 2.47404C114.431 2.60801 114.603 2.76622 114.743 2.94612C114.883 3.12602 114.997 3.31358 115.084 3.50879C115.173 3.70401 115.217 3.90687 115.217 4.1174C115.217 4.52185 115.074 4.84083 114.787 5.07432C114.501 5.30653 114.181 5.42264 113.828 5.42264C113.475 5.42264 113.17 5.31801 112.912 5.10749C112.655 4.89697 112.527 4.59713 112.527 4.20671C112.527 3.86222 112.645 3.55728 112.88 3.29444C113.115 3.03288 113.408 2.8785 113.762 2.83384C113.688 2.66798 113.508 2.52635 113.222 2.40642C112.935 2.28521 112.585 2.22524 112.174 2.22524C111.409 2.22524 110.78 2.45873 110.289 2.92316C109.795 3.38886 109.549 4.07912 109.549 4.99521C109.549 5.38564 109.619 5.7901 109.759 6.21114C109.899 6.63091 110.174 7.05196 110.586 7.47173C110.836 7.42707 111.083 7.38879 111.325 7.35945C111.568 7.32883 111.762 7.31352 111.91 7.31352C112.174 7.31352 112.384 7.36328 112.537 7.46024C112.692 7.55849 112.77 7.69628 112.77 7.87619C112.77 8.01143 112.71 8.11733 112.592 8.19133C112.475 8.26661 112.329 8.30489 112.151 8.30489C111.872 8.30489 111.586 8.24109 111.293 8.1135C110.998 7.98591 110.77 7.87619 110.608 7.78687C109.799 8.0714 109.149 8.50393 108.657 9.08063C108.163 9.65861 107.918 10.4509 107.918 11.4564C107.918 12.4771 108.182 13.3357 108.712 14.0337C109.241 14.7316 109.962 15.2611 110.873 15.6222C111.784 15.982 112.829 16.1619 114.005 16.1619C114.768 16.1619 115.504 16.0713 116.209 15.8914C116.915 15.7115 117.544 15.4448 118.095 15.0927C118.646 14.7405 119.083 14.3156 119.407 13.8206C119.731 13.3255 119.892 12.7552 119.892 12.1096C119.892 11.8391 119.841 11.4934 119.738 11.0736C119.635 10.6538 119.418 10.2404 119.087 9.83469C118.756 9.43023 118.246 9.10743 117.555 8.86756L117.775 8.64172C118.76 8.95687 119.473 9.47488 119.915 10.1958C120.356 10.9154 120.576 11.7268 120.576 12.6276C120.576 13.5731 120.293 14.4624 119.727 15.2955C119.161 16.1274 118.356 16.796 117.313 17.2987C116.268 17.8014 115.011 18.0527 113.541 18.0527C112.497 18.0527 111.524 17.9251 110.619 17.67C109.715 17.4148 108.924 17.0435 108.248 16.5561C107.572 16.0687 107.043 15.4793 106.661 14.7877C106.279 14.0987 106.087 13.3179 106.087 12.4464C106.087 11.6222 106.246 10.9205 106.561 10.3425C106.877 9.76451 107.271 9.2835 107.742 8.90073C108.212 8.51796 108.682 8.22578 109.153 8.02291C109.623 7.82005 110.005 7.68225 110.299 7.60697C109.814 7.39645 109.399 7.1451 109.054 6.85164C108.708 6.55946 108.443 6.23028 108.259 5.86155C108.076 5.49409 107.983 5.11515 107.983 4.72472C107.983 4.31899 108.079 3.94515 108.271 3.59938C108.462 3.25361 108.731 2.94995 109.076 2.68712C109.42 2.42428 109.833 2.22269 110.31 2.07979C110.788 1.93689 111.329 1.86544 111.931 1.86544Z" fill="white"/>
<path d="M142.65 1.79777V2.24816C142.15 2.26347 141.775 2.31961 141.525 2.41657C141.276 2.51482 141.109 2.69472 141.029 2.95755C140.948 3.22039 140.908 3.62995 140.908 4.18369V15.3516C140.908 15.8913 140.948 16.297 141.029 16.5675C141.109 16.8368 141.276 17.0167 141.525 17.1072C141.775 17.1978 142.15 17.2578 142.65 17.2871V17.7375C142.283 17.7082 141.827 17.6891 141.283 17.6814C140.739 17.6737 140.187 17.6699 139.63 17.6699C139.011 17.6699 138.43 17.6737 137.886 17.6814C137.343 17.6891 136.909 17.7082 136.585 17.7375V17.2871C137.085 17.2578 137.464 17.1978 137.721 17.1072C137.979 17.0167 138.151 16.8368 138.24 16.5675C138.327 16.297 138.372 15.8913 138.372 15.3516V3.03666L138.482 3.08132L133.057 17.8281H132.705L127.015 3.23825V14.766C127.015 15.3963 127.058 15.8875 127.147 16.2409C127.236 16.5931 127.427 16.8444 127.721 16.995C128.014 17.1455 128.463 17.2425 129.066 17.2871V17.7375C128.787 17.7082 128.429 17.6891 127.997 17.6814C127.562 17.6737 127.155 17.6699 126.772 17.6699C126.405 17.6699 126.037 17.6737 125.67 17.6814C125.303 17.6891 125 17.7082 124.765 17.7375V17.2871C125.251 17.2425 125.617 17.1493 125.869 17.0064C126.117 16.8635 126.287 16.6199 126.376 16.2741C126.464 15.9296 126.507 15.4562 126.507 14.8553V4.18369C126.507 3.62995 126.464 3.22039 126.376 2.95755C126.287 2.69472 126.117 2.51482 125.869 2.41657C125.617 2.31961 125.251 2.26347 124.765 2.24816V1.79777C125 1.81308 125.303 1.82839 125.67 1.84242C126.037 1.85773 126.405 1.86539 126.772 1.86539C127.198 1.86539 127.628 1.85773 128.062 1.84242C128.496 1.82839 128.868 1.81308 129.177 1.79777L134.049 14.5861L133.631 14.8783L138.416 1.86539H139.011H139.63C140.187 1.86539 140.739 1.85773 141.283 1.84242C141.827 1.82839 142.283 1.81308 142.65 1.79777Z" fill="white"/>
<path d="M87.3433 31.5413C87.2845 32.3975 87.2583 33.0494 87.2658 33.4998C87.2733 33.9502 87.277 34.3636 87.277 34.7387C87.277 35.1138 87.2845 35.526 87.2995 35.9763C87.3133 36.4267 87.3508 37.08 87.4095 37.9348H86.9021C86.8284 37.4398 86.7334 36.9639 86.6159 36.5058C86.4972 36.0478 86.2885 35.6765 85.9873 35.392C85.6848 35.1062 85.2187 34.9633 84.5863 34.9633V34.5129C85.0575 34.5129 85.4286 34.4159 85.6998 34.2207C85.9723 34.0255 86.181 33.7703 86.3285 33.4552C86.4759 33.14 86.5822 32.8134 86.6484 32.4766C86.7146 32.1384 86.7771 31.8271 86.8359 31.5413H87.3433ZM86.7034 34.9633H82.7117V34.5129H86.7034V34.9633ZM90.3639 26.8129C90.3052 27.3845 90.2652 27.9356 90.2427 28.4677C90.2214 29.001 90.2102 29.4106 90.2102 29.6951C90.2102 29.9809 90.2164 30.2501 90.2314 30.5053C90.2464 30.7618 90.2614 30.971 90.2764 31.1356H89.769C89.6653 30.1761 89.5078 29.4182 89.2941 28.8619C89.0817 28.3069 88.7655 27.9127 88.3468 27.6805C87.9269 27.4483 87.3433 27.3309 86.5934 27.3309H85.0712C84.6013 27.3309 84.2451 27.373 84.0014 27.4546C83.7602 27.5376 83.594 27.7034 83.5065 27.951C83.4178 28.1985 83.3741 28.5851 83.3741 29.1095V40.4573C83.3741 40.9677 83.4178 41.3504 83.5065 41.6043C83.594 41.8608 83.7602 42.0292 84.0014 42.1121C84.2451 42.1938 84.6013 42.2359 85.0712 42.2359H86.5047C87.3433 42.2359 88.0081 42.1006 88.5005 41.8302C88.9929 41.5597 89.3678 41.1182 89.6253 40.5019C89.8827 39.887 90.0777 39.0462 90.2102 37.9808H90.7163C90.6726 38.4159 90.6513 38.9862 90.6513 39.6918C90.6513 39.9916 90.6613 40.4267 90.6838 40.997C90.7063 41.5673 90.7463 42.153 90.805 42.7539C90.0552 42.7233 89.2104 42.7041 88.2693 42.6978C87.3283 42.6901 86.4909 42.685 85.7548 42.685H84.4538C83.9252 42.685 83.3553 42.6901 82.7454 42.6978C82.1343 42.7041 81.5169 42.7118 80.8933 42.7195C80.2672 42.7271 79.6686 42.7386 79.0962 42.7539V42.3035C79.5948 42.2729 79.9698 42.2129 80.2197 42.1223C80.4697 42.033 80.6359 41.8531 80.7171 41.5826C80.7971 41.3121 80.8371 40.9077 80.8371 40.3667V29.2001C80.8371 28.645 80.7971 28.2355 80.7171 27.9726C80.6359 27.7111 80.4659 27.5299 80.2097 27.4329C79.9523 27.3347 79.5811 27.2786 79.0962 27.2645V26.8129C79.6686 26.8282 80.2672 26.8397 80.8933 26.8473C81.5169 26.855 82.1343 26.8626 82.7454 26.8703C83.3553 26.8779 83.9252 26.8805 84.4538 26.8805H85.7548C86.4309 26.8805 87.1995 26.8779 88.0594 26.8703C88.9192 26.8626 89.6878 26.8435 90.3639 26.8129Z" fill="white"/>
<path d="M102.736 25.1025V40.2997C102.736 40.9746 102.85 41.4735 103.078 41.7963C103.306 42.1191 103.721 42.2799 104.323 42.2799V42.7532C103.868 42.7086 103.412 42.6856 102.956 42.6856C102.456 42.6856 101.99 42.7086 101.556 42.7532C101.123 42.7979 100.721 42.8808 100.354 43.0007V27.8048C100.354 27.1286 100.24 26.6297 100.013 26.3069C99.7841 25.9841 99.3691 25.8233 98.7668 25.8233V25.35C99.2367 25.3946 99.6928 25.4176 100.134 25.4176C100.619 25.4176 101.081 25.3921 101.522 25.3385C101.964 25.2862 102.369 25.2071 102.736 25.1025ZM97.7745 30.821C98.4206 30.821 99.013 30.9639 99.5491 31.2485C100.087 31.5343 100.464 32.014 100.685 32.6889L100.42 32.9377C100.214 32.3968 99.9128 32.0025 99.5166 31.755C99.1192 31.5075 98.6705 31.3837 98.1706 31.3837C97.3333 31.3837 96.6497 31.8379 96.1198 32.7464C95.5912 33.6535 95.3337 35.0532 95.3487 36.9441C95.3487 38.1906 95.4512 39.2075 95.6574 39.9947C95.8624 40.7832 96.1673 41.365 96.5722 41.7402C96.9759 42.1153 97.4658 42.3028 98.0394 42.3028C98.6118 42.3028 99.1304 42.0553 99.5929 41.5602C100.057 41.0652 100.333 40.352 100.42 39.4218L100.619 39.8939C100.471 40.9146 100.119 41.6993 99.5604 42.2467C99.0017 42.794 98.2519 43.0684 97.3108 43.0684C96.4135 43.0684 95.6237 42.8464 94.9401 42.4036C94.2564 41.9622 93.7303 41.2859 93.3641 40.3775C92.9955 39.4703 92.813 38.3259 92.813 36.9441C92.813 35.5788 93.0367 34.442 93.4854 33.5336C93.9328 32.6264 94.5326 31.9464 95.2825 31.496C96.0323 31.0456 96.8622 30.821 97.7745 30.821Z" fill="white"/>
<path d="M115.702 30.8887V40.3226C115.702 40.9976 115.816 41.4965 116.045 41.8193C116.272 42.1421 116.687 42.3028 117.289 42.3028V42.7762C116.835 42.7302 116.378 42.7086 115.922 42.7086C115.437 42.7086 114.975 42.7302 114.534 42.7762C114.093 42.8208 113.688 42.9038 113.32 43.0237V40.5702C112.953 41.4697 112.442 42.1114 111.788 42.4942C111.134 42.877 110.446 43.0684 109.726 43.0684C109.182 43.0684 108.719 42.9893 108.336 42.8323C107.955 42.6741 107.639 42.4687 107.389 42.2135C107.124 41.9137 106.94 41.5271 106.838 41.0537C106.734 40.5816 106.683 39.9845 106.683 39.2636V33.5897C106.683 32.9148 106.573 32.4159 106.352 32.0931C106.132 31.7703 105.713 31.6095 105.096 31.6095V31.1362C105.566 31.1808 106.022 31.2038 106.463 31.2038C106.948 31.2038 107.41 31.1783 107.851 31.1247C108.293 31.0724 108.697 30.9933 109.065 30.8887V39.8939C109.065 40.3303 109.094 40.7271 109.152 41.0882C109.211 41.448 109.351 41.7325 109.572 41.943C109.792 42.1535 110.146 42.2582 110.631 42.2582C111.144 42.2582 111.604 42.1 112.008 41.7848C112.413 41.4697 112.733 41.0422 112.968 40.5025C113.203 39.9616 113.32 39.3542 113.32 38.678V33.5897C113.32 32.9148 113.21 32.4159 112.99 32.0931C112.769 31.7703 112.35 31.6095 111.733 31.6095V31.1362C112.203 31.1808 112.659 31.2038 113.1 31.2038C113.585 31.2038 114.049 31.1783 114.49 31.1247C114.931 31.0724 115.335 30.9933 115.702 30.8887Z" fill="white"/>
<path d="M123.949 30.821C124.449 30.821 124.927 30.8848 125.383 31.0124C125.838 31.14 126.235 31.3161 126.574 31.5419C126.926 31.7665 127.195 32.037 127.379 32.3521C127.562 32.6673 127.655 33.013 127.655 33.3881C127.655 33.8385 127.529 34.1907 127.279 34.4459C127.029 34.701 126.706 34.8286 126.309 34.8286C125.913 34.8286 125.582 34.7163 125.317 34.4905C125.052 34.266 124.919 33.9431 124.919 33.5234C124.919 33.133 125.03 32.814 125.25 32.5665C125.472 32.3177 125.728 32.1569 126.023 32.0816C125.89 31.8571 125.659 31.6657 125.328 31.5075C124.997 31.3505 124.64 31.2714 124.258 31.2714C123.861 31.2714 123.482 31.376 123.122 31.5866C122.762 31.7971 122.442 32.1199 122.163 32.555C121.884 32.9901 121.66 33.5527 121.491 34.243C121.321 34.9332 121.237 35.7664 121.237 36.7425C121.237 38.0031 121.38 39.0046 121.667 39.7485C121.953 40.491 122.332 41.0193 122.802 41.3344C123.273 41.6496 123.781 41.8078 124.324 41.8078C124.677 41.8078 125.04 41.7402 125.417 41.6049C125.79 41.4697 126.151 41.2451 126.496 40.93C126.841 40.6148 127.147 40.1874 127.411 39.6464L127.831 39.8046C127.669 40.2997 127.415 40.8024 127.07 41.3127C126.724 41.8231 126.273 42.2429 125.714 42.5733C125.154 42.9038 124.472 43.0684 123.663 43.0684C122.737 43.0684 121.899 42.8361 121.149 42.3704C120.399 41.906 119.804 41.226 119.363 40.3328C118.922 39.4397 118.702 38.3488 118.702 37.0576C118.702 35.797 118.925 34.6972 119.374 33.7594C119.821 32.8216 120.443 32.0969 121.237 31.5866C122.031 31.0762 122.935 30.821 123.949 30.821Z" fill="white"/>
<path d="M133.3 41.8295C133.711 41.8295 134.098 41.7095 134.458 41.4697C134.819 41.2298 135.152 40.8687 135.461 40.389V35.908C135.3 36.1492 135.065 36.3546 134.756 36.5281C134.448 36.7004 134.116 36.8764 133.763 37.0563C133.41 37.2362 133.075 37.4429 132.759 37.6764C132.443 37.9086 132.183 38.2047 131.977 38.5657C131.771 38.9255 131.668 39.3836 131.668 39.9386C131.668 40.5242 131.816 40.9861 132.109 41.3229C132.403 41.6611 132.8 41.8295 133.3 41.8295ZM132.242 42.9102C131.624 42.9102 131.094 42.7902 130.653 42.5504C130.212 42.3105 129.882 41.98 129.661 41.559C129.441 41.1392 129.331 40.6582 129.331 40.1185C129.331 39.4589 129.477 38.9217 129.772 38.5083C130.066 38.0962 130.445 37.7619 130.907 37.5067C131.371 37.2516 131.863 37.0385 132.385 36.865C132.907 36.6927 133.399 36.5281 133.863 36.3699C134.325 36.213 134.707 36.0292 135.009 35.8187C135.31 35.6082 135.461 35.3313 135.461 34.9856V33.4545C135.461 32.9135 135.376 32.4835 135.207 32.1607C135.039 31.8379 134.811 31.6083 134.524 31.473C134.238 31.3378 133.895 31.2702 133.499 31.2702C133.16 31.2702 132.8 31.3199 132.418 31.4169C132.036 31.5151 131.734 31.7065 131.514 31.991C131.837 32.0816 132.105 32.2577 132.319 32.5205C132.532 32.7834 132.638 33.1087 132.638 33.4991C132.638 33.9202 132.503 34.2506 132.23 34.4905C131.958 34.7304 131.617 34.8503 131.206 34.8503C130.75 34.8503 130.411 34.7036 130.191 34.4114C129.971 34.118 129.86 33.7773 129.86 33.3869C129.86 32.9811 129.958 32.6519 130.157 32.3968C130.356 32.1416 130.617 31.9017 130.941 31.6759C131.293 31.436 131.746 31.2332 132.297 31.0686C132.848 30.9027 133.461 30.8198 134.139 30.8198C134.77 30.8198 135.319 30.8925 135.781 31.0341C136.245 31.177 136.63 31.4054 136.938 31.7205C137.306 32.0663 137.548 32.4976 137.667 33.0156C137.784 33.5336 137.843 34.1601 137.843 34.895V41.1086C137.843 41.485 137.891 41.7516 137.986 41.9086C138.082 42.0668 138.239 42.1446 138.46 42.1446C138.607 42.1446 138.75 42.1076 138.89 42.0323C139.03 41.9571 139.195 41.8448 139.387 41.6942L139.606 42.077C139.298 42.3322 138.987 42.535 138.67 42.6843C138.354 42.8349 137.953 42.9102 137.468 42.9102C136.997 42.9102 136.616 42.8349 136.321 42.6843C136.027 42.535 135.81 42.3181 135.671 42.0323C135.531 41.7478 135.461 41.3944 135.461 40.9733C135.079 41.6049 134.624 42.0847 134.094 42.4151C133.565 42.7456 132.948 42.9102 132.242 42.9102Z" fill="white"/>
<path d="M144.128 27.4208V31.1579H147.171V31.6083H144.128V40.4566C144.128 41.0716 144.238 41.5067 144.458 41.7618C144.679 42.017 144.995 42.1446 145.406 42.1446C145.789 42.1446 146.131 41.9877 146.432 41.6725C146.733 41.3574 146.995 40.8241 147.215 40.0738L147.633 40.2308C147.457 41.0269 147.145 41.698 146.697 42.2467C146.248 42.794 145.59 43.0684 144.723 43.0684C144.223 43.0684 143.804 43.0033 143.465 42.877C143.128 42.7494 142.833 42.5644 142.584 42.3245C142.261 41.98 142.039 41.5666 141.922 41.0869C141.804 40.6059 141.746 39.9692 141.746 39.173V31.6083H139.717V31.1579H141.746V27.8712C142.201 27.8558 142.628 27.815 143.024 27.7474C143.422 27.6798 143.789 27.5713 144.128 27.4208Z" fill="white"/>
<path d="M150.699 25.462C151.154 25.462 151.538 25.6087 151.847 25.9009C152.155 26.1943 152.309 26.558 152.309 26.9931C152.309 27.4281 152.155 27.7918 151.847 28.0852C151.538 28.3774 151.154 28.5241 150.699 28.5241C150.243 28.5241 149.861 28.3774 149.552 28.0852C149.243 27.7918 149.09 27.4281 149.09 26.9931C149.09 26.558 149.243 26.1943 149.552 25.9009C149.861 25.6087 150.243 25.462 150.699 25.462ZM152.023 30.8884V40.6592C152.023 41.2895 152.144 41.7169 152.387 41.9427C152.629 42.1673 153.036 42.2796 153.61 42.2796V42.7529C153.36 42.7376 152.974 42.7185 152.453 42.6968C151.93 42.6738 151.398 42.6623 150.853 42.6623C150.338 42.6623 149.81 42.6738 149.266 42.6968C148.722 42.7185 148.317 42.7376 148.054 42.7529V42.2796C148.626 42.2796 149.035 42.1673 149.277 41.9427C149.52 41.7169 149.641 41.2895 149.641 40.6592V33.5894C149.641 32.9145 149.531 32.4156 149.31 32.0928C149.09 31.77 148.671 31.608 148.054 31.608V31.1359C148.524 31.1806 148.98 31.2035 149.421 31.2035C149.92 31.2035 150.387 31.1767 150.821 31.1244C151.254 31.0721 151.654 30.993 152.023 30.8884Z" fill="white"/>
<path d="M160.181 31.2704C159.416 31.2704 158.793 31.717 158.307 32.6101C157.822 33.5033 157.579 34.9552 157.579 36.966C157.579 38.9781 157.822 40.4224 158.307 41.3003C158.793 42.1781 159.416 42.617 160.181 42.617C160.931 42.617 161.552 42.1781 162.045 41.3003C162.537 40.4224 162.783 38.9781 162.783 36.966C162.783 34.9552 162.537 33.5033 162.045 32.6101C161.552 31.717 160.931 31.2704 160.181 31.2704ZM160.181 30.8201C161.166 30.8201 162.041 31.0306 162.806 31.4503C163.569 31.8714 164.18 32.531 164.636 33.4318C165.091 34.3326 165.319 35.5115 165.319 36.966C165.319 38.4231 165.091 39.5969 164.636 40.4901C164.18 41.3832 163.569 42.0365 162.806 42.4486C162.041 42.862 161.166 43.0674 160.181 43.0674C159.211 43.0674 158.337 42.862 157.557 42.4486C156.777 42.0365 156.164 41.3832 155.716 40.4901C155.267 39.5969 155.043 38.4231 155.043 36.966C155.043 35.5115 155.267 34.3326 155.716 33.4318C156.164 32.531 156.777 31.8714 157.557 31.4503C158.337 31.0306 159.211 30.8201 160.181 30.8201Z" fill="white"/>
<path d="M174.559 30.8198C175.147 30.8198 175.628 30.8989 176.003 31.0558C176.378 31.214 176.691 31.4271 176.941 31.6976C177.206 31.9834 177.393 32.3508 177.503 32.8012C177.613 33.2516 177.668 33.859 177.668 34.6245V40.6582C177.668 41.2885 177.789 41.7159 178.032 41.9418C178.274 42.1663 178.683 42.2786 179.255 42.2786V42.752C179.007 42.7379 178.617 42.7188 178.087 42.6958C177.558 42.6728 177.036 42.6626 176.522 42.6626C176.021 42.6626 175.526 42.6728 175.032 42.6958C174.54 42.7188 174.169 42.7379 173.919 42.752V42.2786C174.419 42.2786 174.772 42.1663 174.977 41.9418C175.184 41.7159 175.286 41.2885 175.286 40.6582V33.9942C175.286 33.5591 175.25 33.1649 175.176 32.8127C175.102 32.4593 174.949 32.1748 174.714 31.9566C174.477 31.7397 174.125 31.63 173.655 31.63C173.11 31.63 172.629 31.7882 172.21 32.1033C171.791 32.4185 171.461 32.8497 171.218 33.3971C170.976 33.9457 170.854 34.5569 170.854 35.2331V40.6582C170.854 41.2885 170.961 41.7159 171.173 41.9418C171.387 42.1663 171.736 42.2786 172.222 42.2786V42.752C171.985 42.7379 171.629 42.7188 171.152 42.6958C170.673 42.6728 170.177 42.6626 169.663 42.6626C169.164 42.6626 168.641 42.6728 168.098 42.6958C167.554 42.7188 167.149 42.7379 166.885 42.752V42.2786C167.458 42.2786 167.866 42.1663 168.109 41.9418C168.351 41.7159 168.472 41.2885 168.472 40.6582V33.5885C168.472 32.9135 168.362 32.4146 168.141 32.0918C167.921 31.769 167.503 31.6083 166.885 31.6083V31.1349C167.355 31.1796 167.811 31.2025 168.252 31.2025C168.751 31.2025 169.219 31.177 169.652 31.1234C170.086 31.0711 170.487 30.992 170.854 30.8874V33.3409C171.236 32.4108 171.762 31.7576 172.43 31.3824C173.1 31.0073 173.809 30.8198 174.559 30.8198Z" fill="white"/>
<path d="M86.6156 51.5129C87.5854 51.5129 88.3828 51.6597 89.0077 51.9519C89.6325 52.244 90.1874 52.586 90.6736 52.9764C90.9673 53.2022 91.191 53.2277 91.3459 53.0555C91.4996 52.8833 91.6071 52.4737 91.6659 51.8281H92.1733C92.1433 52.3984 92.1208 53.0848 92.107 53.8887C92.092 54.6912 92.0845 55.7604 92.0845 57.0963H91.5771C91.4747 56.4366 91.3747 55.8956 91.2797 55.4759C91.1835 55.0548 91.0585 54.695 90.9048 54.3952C90.7498 54.0941 90.5411 53.8019 90.2761 53.5174C89.85 52.9764 89.3276 52.586 88.7102 52.3461C88.0928 52.1062 87.4392 51.9863 86.7481 51.9863C85.9983 51.9863 85.3372 52.1777 84.7635 52.5605C84.1899 52.9432 83.7087 53.4868 83.3188 54.1923C82.9289 54.8979 82.6315 55.7311 82.4252 56.6918C82.2203 57.6526 82.1166 58.7026 82.1166 59.8433C82.1166 61.0133 82.2278 62.0761 82.4477 63.0292C82.6677 63.9823 82.9876 64.8001 83.4075 65.4827C83.8262 66.1653 84.3336 66.691 84.9285 67.0585C85.5234 67.4272 86.1895 67.6096 86.9243 67.6096C87.5267 67.6096 88.1516 67.4872 88.7989 67.2384C89.4451 66.9908 89.96 66.6119 90.3424 66.1015C90.7535 65.6524 91.0372 65.1446 91.191 64.5819C91.3459 64.0193 91.4747 63.2499 91.5771 62.2739H92.0845C92.0845 63.6556 92.092 64.7695 92.107 65.618C92.1208 66.4664 92.1433 67.1822 92.1733 67.7679H91.6659C91.6071 67.1235 91.5071 66.7178 91.3672 66.5519C91.2285 66.3873 90.996 66.409 90.6736 66.6196C90.1287 67.01 89.5525 67.3519 88.9427 67.6441C88.3315 67.9376 87.5492 68.083 86.5931 68.083C85.1384 68.083 83.8662 67.7602 82.7789 67.1146C81.6904 66.4703 80.8456 65.5389 80.2432 64.3229C79.6396 63.107 79.3384 61.6436 79.3384 59.9326C79.3384 58.2522 79.6508 56.7811 80.2757 55.5205C80.9006 54.2599 81.7566 53.2775 82.8452 52.5707C83.9324 51.8664 85.1897 51.5129 86.6156 51.5129Z" fill="white"/>
<path d="M99.6484 56.2861C98.8836 56.2861 98.26 56.7326 97.7738 57.6258C97.2889 58.5189 97.0465 59.9709 97.0465 61.9817C97.0465 63.9938 97.2889 65.4381 97.7738 66.3159C98.26 67.1937 98.8836 67.6326 99.6484 67.6326C100.398 67.6326 101.019 67.1937 101.512 66.3159C102.004 65.4381 102.25 63.9938 102.25 61.9817C102.25 59.9709 102.004 58.5189 101.512 57.6258C101.019 56.7326 100.398 56.2861 99.6484 56.2861ZM99.6484 55.8357C100.633 55.8357 101.508 56.0462 102.273 56.466C103.037 56.887 103.648 57.5467 104.104 58.4474C104.559 59.3482 104.786 60.5259 104.786 61.9817C104.786 63.4375 104.559 64.6126 104.104 65.5057C103.648 66.3988 103.037 67.0521 102.273 67.4642C101.508 67.8763 100.633 68.083 99.6484 68.083C98.6786 68.083 97.8038 67.8763 97.024 67.4642C96.2441 67.0521 95.6318 66.3988 95.1831 65.5057C94.7344 64.6126 94.5107 63.4375 94.5107 61.9817C94.5107 60.5259 94.7344 59.3482 95.1831 58.4474C95.6318 57.5467 96.2441 56.887 97.024 56.466C97.8038 56.0462 98.6786 55.8357 99.6484 55.8357Z" fill="white"/>
<path d="M114.026 55.8364C114.615 55.8364 115.096 55.9142 115.471 56.0724C115.846 56.2306 116.158 56.4437 116.408 56.7142C116.673 57 116.86 57.3674 116.97 57.8178C117.08 58.2682 117.135 58.8756 117.135 59.6411V65.6748C117.135 66.3051 117.257 66.7325 117.499 66.9584C117.741 67.1829 118.15 67.2952 118.723 67.2952V67.7686C118.474 67.7532 118.084 67.7341 117.554 67.7124C117.025 67.6894 116.503 67.678 115.989 67.678C115.489 67.678 114.993 67.6894 114.5 67.7124C114.007 67.7341 113.636 67.7532 113.386 67.7686V67.2952C113.886 67.2952 114.24 67.1829 114.445 66.9584C114.651 66.7325 114.753 66.3051 114.753 65.6748V59.0108C114.753 58.5757 114.717 58.1815 114.643 57.828C114.57 57.4759 114.416 57.1901 114.181 56.9732C113.945 56.755 113.592 56.6466 113.122 56.6466C112.578 56.6466 112.096 56.8048 111.678 57.1199C111.259 57.4351 110.928 57.8663 110.685 58.4137C110.443 58.9623 110.322 59.5735 110.322 60.2484V65.6748C110.322 66.3051 110.428 66.7325 110.64 66.9584C110.854 67.1829 111.203 67.2952 111.689 67.2952V67.7686C111.453 67.7532 111.097 67.7341 110.619 67.7124C110.141 67.6894 109.646 67.678 109.131 67.678C108.631 67.678 108.108 67.6894 107.565 67.7124C107.021 67.7341 106.616 67.7532 106.353 67.7686V67.2952C106.925 67.2952 107.334 67.1829 107.576 66.9584C107.818 66.7325 107.94 66.3051 107.94 65.6748V58.6051C107.94 57.9301 107.83 57.4312 107.609 57.1084C107.389 56.7856 106.97 56.6236 106.353 56.6236V56.1515C106.822 56.1962 107.279 56.2191 107.72 56.2191C108.218 56.2191 108.686 56.1936 109.119 56.14C109.553 56.0877 109.954 56.0086 110.322 55.904V58.3575C110.703 57.4274 111.229 56.7742 111.898 56.399C112.568 56.0239 113.276 55.8364 114.026 55.8364Z" fill="white"/>
<path d="M123.751 55.8357C124.339 55.8357 124.85 55.9288 125.283 56.1164C125.717 56.3052 126.029 56.4736 126.221 56.6229C126.706 57.0133 127.007 56.7582 127.125 55.8574H127.61C127.58 56.2784 127.559 56.7849 127.544 57.3782C127.529 57.9715 127.522 58.7549 127.522 59.731H127.037C126.949 59.1747 126.798 58.635 126.586 58.1093C126.372 57.5837 126.063 57.1486 125.66 56.8041C125.255 56.4583 124.728 56.2861 124.082 56.2861C123.597 56.2861 123.193 56.4251 122.869 56.702C122.545 56.9802 122.384 57.3884 122.384 57.9294C122.384 58.3798 122.516 58.7702 122.781 59.1007C123.045 59.4299 123.387 59.7386 123.806 60.0232C124.225 60.309 124.677 60.6165 125.162 60.9456C125.706 61.322 126.196 61.6933 126.629 62.0608C127.062 62.4282 127.408 62.8378 127.665 63.2882C127.923 63.7373 128.052 64.263 128.052 64.8639C128.052 65.5542 127.872 66.1398 127.512 66.6196C127.15 67.1006 126.677 67.4642 126.088 67.7117C125.501 67.9592 124.853 68.083 124.149 68.083C123.795 68.083 123.465 68.0486 123.155 67.9822C122.846 67.9146 122.56 67.8278 122.295 67.7232C122.134 67.6326 121.977 67.5395 121.822 67.4412C121.668 67.3443 121.517 67.2498 121.369 67.1593C121.223 67.0546 121.09 67.0699 120.973 67.2052C120.854 67.3404 120.767 67.5803 120.708 67.9261H120.223C120.252 67.4451 120.274 66.8594 120.289 66.1692C120.303 65.4789 120.311 64.5628 120.311 63.4222H120.797C120.899 64.2477 121.053 64.9762 121.259 65.6065C121.465 66.2368 121.77 66.7293 122.174 67.0814C122.579 67.4336 123.134 67.6096 123.84 67.6096C124.119 67.6096 124.397 67.5471 124.677 67.4183C124.956 67.292 125.188 67.0853 125.372 66.7995C125.556 66.5149 125.647 66.1322 125.647 65.6511C125.647 64.9915 125.423 64.4467 124.975 64.0193C124.527 63.5919 123.95 63.1376 123.244 62.6566C122.744 62.2968 122.27 61.9408 121.822 61.5874C121.373 61.2353 121.009 60.8372 120.731 60.3945C120.451 59.9517 120.311 59.4235 120.311 58.8072C120.311 58.1323 120.469 57.5773 120.786 57.1409C121.1 56.7058 121.524 56.3792 122.053 56.1623C122.583 55.9441 123.148 55.8357 123.751 55.8357Z" fill="white"/>
<path d="M139.959 55.9033V65.3373C139.959 66.0122 140.073 66.5111 140.302 66.8339C140.529 67.1567 140.944 67.3175 141.546 67.3175V67.7908C141.091 67.7449 140.635 67.7232 140.179 67.7232C139.694 67.7232 139.232 67.7449 138.791 67.7908C138.349 67.8355 137.945 67.9184 137.577 68.0384V65.5848C137.21 66.4843 136.699 67.1261 136.045 67.5089C135.391 67.8916 134.703 68.083 133.983 68.083C133.439 68.083 132.976 68.0039 132.593 67.847C132.212 67.6888 131.896 67.4833 131.646 67.2282C131.381 66.9283 131.197 66.5417 131.095 66.0684C130.991 65.5963 130.94 64.9992 130.94 64.2783V58.6044C130.94 57.9294 130.83 57.4306 130.609 57.1077C130.389 56.7849 129.97 56.6242 129.353 56.6242V56.1508C129.822 56.1968 130.279 56.2184 130.72 56.2184C131.205 56.2184 131.667 56.1929 132.108 56.1393C132.549 56.087 132.954 56.0079 133.322 55.9033V64.9086C133.322 65.3449 133.35 65.7417 133.409 66.1028C133.468 66.4626 133.608 66.7471 133.829 66.9577C134.049 67.1682 134.403 67.2728 134.888 67.2728C135.401 67.2728 135.861 67.1146 136.265 66.7995C136.67 66.4843 136.99 66.0569 137.225 65.5172C137.46 64.9762 137.577 64.3689 137.577 63.6926V58.6044C137.577 57.9294 137.467 57.4306 137.247 57.1077C137.026 56.7849 136.607 56.6242 135.99 56.6242V56.1508C136.46 56.1968 136.916 56.2184 137.357 56.2184C137.842 56.2184 138.306 56.1929 138.747 56.1393C139.188 56.087 139.592 56.0079 139.959 55.9033Z" fill="white"/>
<path d="M146.443 50.1178V65.6748C146.443 66.3051 146.564 66.7325 146.806 66.9584C147.049 67.1829 147.458 67.2952 148.03 67.2952V67.7686C147.78 67.7545 147.391 67.7354 146.861 67.7124C146.333 67.6894 145.803 67.678 145.274 67.678C144.744 67.678 144.212 67.6894 143.676 67.7124C143.138 67.7354 142.739 67.7545 142.474 67.7686V67.2952C143.047 67.2952 143.455 67.1829 143.697 66.9584C143.94 66.7325 144.061 66.3051 144.061 65.6748V52.8189C144.061 52.1439 143.951 51.6451 143.731 51.3223C143.51 50.9995 143.091 50.8387 142.474 50.8387V50.3653C142.944 50.4113 143.4 50.433 143.841 50.433C144.326 50.433 144.788 50.4074 145.229 50.3538C145.67 50.3015 146.075 50.2224 146.443 50.1178Z" fill="white"/>
<path d="M152.948 52.4364V56.1735H155.991V56.6239H152.948V65.4722C152.948 66.0872 153.058 66.5223 153.278 66.7775C153.499 67.0326 153.815 67.1602 154.226 67.1602C154.609 67.1602 154.951 67.0033 155.252 66.6882C155.554 66.373 155.815 65.8397 156.035 65.0895L156.453 65.2464C156.277 66.0426 155.965 66.7137 155.517 67.2623C155.069 67.8097 154.41 68.084 153.543 68.084C153.043 68.084 152.624 68.0189 152.286 67.8926C151.948 67.765 151.653 67.58 151.405 67.3401C151.081 66.9956 150.86 66.5823 150.742 66.1025C150.625 65.6228 150.566 64.9848 150.566 64.1887V56.6239H148.538V56.1735H150.566V52.8868C151.021 52.8715 151.448 52.8306 151.844 52.763C152.242 52.6954 152.609 52.5869 152.948 52.4364Z" fill="white"/>
<path d="M161.041 66.8451C161.452 66.8451 161.838 66.7252 162.198 66.4853C162.559 66.2454 162.893 65.8843 163.202 65.4046V60.9237C163.041 61.1648 162.806 61.3702 162.497 61.5437C162.188 61.716 161.857 61.8921 161.503 62.072C161.151 62.2531 160.816 62.4586 160.5 62.6921C160.184 62.9243 159.924 63.2203 159.717 63.5814C159.511 63.9412 159.409 64.3992 159.409 64.9542C159.409 65.5399 159.556 66.0017 159.85 66.3386C160.144 66.6767 160.541 66.8451 161.041 66.8451ZM159.982 67.9258C159.365 67.9258 158.835 67.8058 158.394 67.566C157.953 67.3261 157.623 66.9957 157.402 66.5746C157.182 66.1548 157.072 65.6738 157.072 65.1341C157.072 64.4745 157.218 63.9373 157.513 63.5239C157.807 63.1118 158.185 62.7775 158.648 62.5224C159.111 62.2672 159.604 62.0541 160.126 61.8806C160.647 61.7083 161.14 61.5437 161.603 61.3855C162.066 61.2286 162.448 61.0449 162.749 60.8344C163.051 60.6238 163.202 60.347 163.202 60.0012V58.4701C163.202 57.9291 163.117 57.4992 162.948 57.1764C162.779 56.8536 162.552 56.6239 162.264 56.4886C161.978 56.3534 161.636 56.2871 161.24 56.2871C160.901 56.2871 160.541 56.3355 160.159 56.4325C159.776 56.5308 159.475 56.7221 159.255 57.0067C159.578 57.0973 159.846 57.2733 160.06 57.5362C160.272 57.799 160.379 58.1243 160.379 58.5148C160.379 58.9358 160.244 59.2663 159.971 59.5061C159.699 59.746 159.358 59.8659 158.946 59.8659C158.49 59.8659 158.152 59.7192 157.932 59.427C157.71 59.1336 157.6 58.7929 157.6 58.4025C157.6 57.998 157.699 57.6676 157.898 57.4124C158.097 57.1572 158.358 56.9173 158.681 56.6915C159.034 56.4516 159.486 56.2488 160.037 56.0842C160.589 55.9183 161.202 55.8367 161.88 55.8367C162.511 55.8367 163.059 55.9081 163.522 56.0497C163.985 56.1926 164.37 56.421 164.679 56.7362C165.046 57.0819 165.289 57.5132 165.408 58.0312C165.525 58.5492 165.584 59.1757 165.584 59.9106V66.1242C165.584 66.5006 165.631 66.7673 165.726 66.9242C165.822 67.0824 165.98 67.1602 166.201 67.1602C166.347 67.1602 166.491 67.1232 166.631 67.048C166.771 66.9727 166.936 66.8604 167.127 66.7099L167.347 67.0926C167.038 67.3478 166.726 67.5507 166.411 67.7012C166.095 67.8505 165.694 67.9258 165.209 67.9258C164.738 67.9258 164.357 67.8505 164.062 67.7012C163.768 67.5507 163.55 67.3338 163.412 67.048C163.272 66.7634 163.202 66.41 163.202 65.9902C162.819 66.6205 162.364 67.1003 161.835 67.4307C161.306 67.7612 160.689 67.9258 159.982 67.9258Z" fill="white"/>
<path d="M175.684 55.8364C176.272 55.8364 176.753 55.9142 177.128 56.0724C177.503 56.2306 177.816 56.4437 178.066 56.7142C178.331 57 178.518 57.3674 178.628 57.8178C178.738 58.2682 178.793 58.8756 178.793 59.6411V65.6748C178.793 66.3051 178.914 66.7325 179.157 66.9584C179.399 67.1829 179.808 67.2952 180.38 67.2952V67.7686C180.132 67.7532 179.742 67.7341 179.212 67.7124C178.683 67.6894 178.161 67.678 177.647 67.678C177.146 67.678 176.651 67.6894 176.157 67.7124C175.665 67.7341 175.294 67.7532 175.044 67.7686V67.2952C175.544 67.2952 175.897 67.1829 176.102 66.9584C176.309 66.7325 176.411 66.3051 176.411 65.6748V59.0108C176.411 58.5757 176.375 58.1815 176.301 57.828C176.227 57.4759 176.074 57.1901 175.839 56.9732C175.602 56.755 175.25 56.6466 174.78 56.6466C174.235 56.6466 173.754 56.8048 173.335 57.1199C172.916 57.4351 172.586 57.8663 172.343 58.4137C172.101 58.9623 171.979 59.5735 171.979 60.2484V65.6748C171.979 66.3051 172.086 66.7325 172.298 66.9584C172.512 67.1829 172.861 67.2952 173.347 67.2952V67.7686C173.11 67.7532 172.754 67.7341 172.277 67.7124C171.798 67.6894 171.302 67.678 170.788 67.678C170.289 67.678 169.766 67.6894 169.223 67.7124C168.679 67.7341 168.274 67.7532 168.01 67.7686V67.2952C168.583 67.2952 168.991 67.1829 169.234 66.9584C169.476 66.7325 169.597 66.3051 169.597 65.6748V58.6051C169.597 57.9301 169.487 57.4312 169.266 57.1084C169.046 56.7856 168.628 56.6236 168.01 56.6236V56.1515C168.48 56.1962 168.936 56.2191 169.377 56.2191C169.876 56.2191 170.344 56.1936 170.777 56.14C171.211 56.0877 171.611 56.0086 171.979 55.904V58.3575C172.361 57.4274 172.887 56.7742 173.555 56.399C174.225 56.0239 174.934 55.8364 175.684 55.8364Z" fill="white"/>
<path d="M186.908 55.8357C187.408 55.8357 187.886 55.8995 188.342 56.0271C188.798 56.1547 189.194 56.3307 189.533 56.5566C189.885 56.7811 190.154 57.0516 190.338 57.3668C190.521 57.6819 190.614 58.0277 190.614 58.4015C190.614 58.8519 190.488 59.2053 190.238 59.4605C189.988 59.7157 189.665 59.8433 189.268 59.8433C188.872 59.8433 188.54 59.731 188.276 59.5052C188.011 59.2806 187.878 58.9578 187.878 58.5368C187.878 58.1476 187.989 57.8274 188.209 57.5811C188.431 57.3323 188.687 57.1715 188.982 57.0963C188.849 56.8717 188.618 56.679 188.287 56.5221C187.956 56.3639 187.599 56.2861 187.217 56.2861C186.82 56.2861 186.442 56.3907 186.081 56.6012C185.721 56.8117 185.401 57.1333 185.122 57.5683C184.842 58.0047 184.619 58.5674 184.45 59.2576C184.28 59.9479 184.196 60.7811 184.196 61.7571C184.196 63.0177 184.34 64.0193 184.626 64.7618C184.912 65.5044 185.291 66.0339 185.762 66.3491C186.232 66.6642 186.74 66.8224 187.283 66.8224C187.636 66.8224 188.001 66.7548 188.376 66.6196C188.749 66.4843 189.11 66.2598 189.455 65.9446C189.8 65.6295 190.106 65.2008 190.37 64.6611L190.79 64.818C190.628 65.3143 190.374 65.817 190.029 66.3274C189.683 66.8377 189.232 67.2575 188.673 67.588C188.113 67.9171 187.431 68.083 186.622 68.083C185.696 68.083 184.857 67.8508 184.108 67.3851C183.358 66.9194 182.763 66.2406 182.322 65.3475C181.881 64.4544 181.661 63.3635 181.661 62.0723C181.661 60.8117 181.884 59.7119 182.333 58.7741C182.782 57.835 183.402 57.1116 184.196 56.6012C184.99 56.0909 185.894 55.8357 186.908 55.8357Z" fill="white"/>
<path d="M197.604 67.7232L196.81 69.8399C196.663 70.2137 196.513 70.5289 196.358 70.7853C196.203 71.0405 196.038 71.2498 195.862 71.4156C195.64 71.6262 195.369 71.7754 195.046 71.866C194.722 71.9553 194.398 72 194.076 72C193.767 72 193.476 71.9439 193.203 71.8316C192.932 71.7193 192.709 71.5509 192.531 71.3251C192.355 71.1005 192.267 70.8223 192.267 70.4919C192.267 70.1015 192.392 69.7863 192.642 69.5465C192.892 69.3066 193.222 69.1866 193.635 69.1866C194.001 69.1866 194.311 69.2874 194.561 69.4903C194.811 69.6932 194.936 69.9892 194.936 70.3796C194.936 70.6501 194.866 70.8823 194.726 71.0775C194.586 71.2727 194.406 71.4233 194.186 71.5279C194.23 71.5432 194.274 71.5509 194.318 71.5509H194.428C194.839 71.5509 195.208 71.4118 195.53 71.1337C195.854 70.8568 196.127 70.409 196.347 69.794L197.14 67.6326L197.604 67.7232ZM202.499 56.1508V56.6012C202.219 56.6459 201.963 56.7926 201.728 57.0401C201.492 57.2876 201.264 57.7125 201.044 58.3122L197.604 67.7232L197.075 68.2629L192.775 57.8848C192.495 57.2991 192.226 56.9431 191.969 56.8156C191.713 56.688 191.495 56.6242 191.319 56.6242V56.1508C191.686 56.1967 192.076 56.2299 192.487 56.2529C192.899 56.2746 193.326 56.2861 193.767 56.2861C194.266 56.2861 194.769 56.272 195.277 56.2414C195.784 56.2108 196.259 56.1814 196.699 56.1508V56.6242C196.347 56.6242 196.034 56.6497 195.763 56.7033C195.49 56.7556 195.313 56.8985 195.233 57.1307C195.152 57.3629 195.222 57.7572 195.443 58.3122L198.177 65.1791L198.022 65.2467L200.25 59.213C200.471 58.6133 200.558 58.1285 200.514 57.761C200.471 57.3935 200.316 57.1154 200.051 56.9278C199.787 56.7403 199.397 56.6318 198.882 56.6012V56.1508C199.132 56.1661 199.363 56.1776 199.577 56.1853C199.79 56.1929 200 56.1993 200.206 56.207C200.412 56.2146 200.617 56.2184 200.823 56.2184C201.147 56.2184 201.452 56.2108 201.738 56.1967C202.025 56.1814 202.279 56.1661 202.499 56.1508Z" fill="white"/>
<path d="M60.7627 22.7871L57.1172 19.064L53.4717 22.7871V6.89582L60.7627 4.38869V22.7871Z" fill="white"/>
<path d="M34.9366 12.9857V34.6045H0.0124977C0.00624901 34.3085 0 34.0074 0 33.7114V0.00601578L34.9366 12.9857Z" fill="white"/>
<path d="M34.9369 36.463V69.3799C20.5198 65.5917 7.03505 57.7858 2.03857 44.912L3.78072 44.3672L23.3492 38.2353C27.1234 37.0538 31.0339 36.463 34.9369 36.463Z" fill="white"/>
<path d="M69.8794 0.000473022V33.7122C69.8794 34.0069 69.8731 34.3093 69.8669 34.6041C69.8281 36.056 69.6932 37.4468 69.4807 38.8132C69.172 40.7424 68.6896 42.581 68.0535 44.3277C67.9823 44.5241 67.911 44.7143 67.8348 44.912C62.8446 57.7858 49.3598 65.5917 34.9365 69.3799V67.4558C35.5152 67.3053 36.1263 67.1343 36.7624 66.9442C37.3798 66.7605 38.0171 66.5627 38.6658 66.3535C39.1294 66.2016 39.5918 66.0447 40.068 65.8801C40.4154 65.7627 40.7628 65.6377 41.1103 65.5063C41.5339 65.3557 41.9588 65.1975 42.3825 65.0342C42.7812 64.8824 43.1736 64.7254 43.5723 64.5672C43.7722 64.4881 43.9709 64.4039 44.1709 64.3184C44.3633 64.2393 44.5621 64.1474 44.762 64.0619C44.8395 64.0288 44.9095 63.9969 44.987 63.9637C45.2832 63.8387 45.5718 63.7072 45.8618 63.5758C46.2155 63.4125 46.5691 63.2479 46.9228 63.077C47.1215 62.9851 47.3152 62.8932 47.5077 62.795C47.5527 62.7746 47.5852 62.7554 47.6302 62.7299C47.8289 62.6368 48.0288 62.5385 48.2213 62.4339C48.3563 62.3676 48.4913 62.2961 48.6275 62.2234C48.9349 62.0664 49.2374 61.9019 49.546 61.7309C49.5723 61.7245 49.591 61.7117 49.611 61.699C49.9834 61.4948 50.3634 61.2843 50.7295 61.0751C50.7683 61.0547 50.8008 61.0355 50.8258 61.0151C51.0507 60.885 51.2832 60.7472 51.5144 60.6017C51.7393 60.4703 51.9643 60.3325 52.1892 60.1883C52.8841 59.7558 53.5652 59.3029 54.2338 58.8295C54.3888 58.7185 54.5488 58.6062 54.7037 58.4888C55.5461 57.8777 56.3696 57.241 57.167 56.5584C57.4819 56.2956 57.7906 56.02 58.0993 55.738C58.408 55.4611 58.7092 55.1728 59.0054 54.8844C59.0766 54.8181 59.1403 54.753 59.2053 54.6803C59.4365 54.457 59.6615 54.2337 59.8864 53.9977C59.9827 53.8994 60.0801 53.7948 60.1689 53.6953C60.4713 53.3738 60.7612 53.0522 61.0374 52.718C61.0762 52.6784 61.1087 52.6388 61.1399 52.5993C61.4174 52.2778 61.6811 51.9562 61.9373 51.6207C62.066 51.4574 62.1885 51.2928 62.3172 51.1295C62.4646 50.9381 62.6071 50.748 62.7483 50.5515C62.8508 50.3996 62.9608 50.2491 63.0633 50.0922C63.1858 49.9148 63.307 49.7375 63.4232 49.5601C63.5394 49.3828 63.6544 49.2054 63.7644 49.0217C63.8794 48.838 63.9893 48.6606 64.0981 48.4769C64.323 48.1094 64.523 47.7343 64.7292 47.3541C64.8317 47.164 64.9279 46.9726 65.0241 46.7761C65.1204 46.5796 65.2178 46.3882 65.3141 46.1854C65.3841 46.0348 65.4615 45.8766 65.5328 45.7197C65.5715 45.6342 65.609 45.5487 65.6478 45.4568C65.8027 45.0957 65.9564 44.7411 66.0989 44.3736V44.3672L46.5117 38.2353C42.7362 37.0538 38.8395 36.463 34.9365 36.463V34.6041H68.0335C68.0473 34.3093 68.0535 34.0069 68.0535 33.7122V2.65944L34.9365 14.9693V12.9865L68.0535 0.683075L69.8794 0.000473022Z" fill="white"/>
</svg>
