<svg width="180" height="64" viewBox="0 0 180 64" fill="none" xmlns="http://www.w3.org/2000/svg">
<path d="M77.6394 5.80012C77.5871 6.56113 77.5638 7.14067 77.5705 7.54102C77.5771 7.94137 77.5805 8.30883 77.5805 8.64227C77.5805 8.9757 77.5871 9.34203 77.6005 9.74238C77.6127 10.1427 77.646 10.7234 77.6982 11.4833H77.2472C77.1817 11.0432 77.0972 10.6202 76.9928 10.213C76.8873 9.80589 76.7018 9.47586 76.434 9.22181C76.1652 8.9689 75.7508 8.84187 75.1887 8.84187V8.44152C75.6075 8.44152 75.9375 8.35533 76.1785 8.18181C76.4207 8.00828 76.6062 7.78146 76.7373 7.50133C76.8684 7.22119 76.9628 6.93086 77.0217 6.63031C77.0806 6.3309 77.1361 6.05417 77.1883 5.80012H77.6394ZM77.0706 8.84187H73.5224V8.44152H77.0706V8.84187ZM80.3244 1.59701C80.2722 2.10511 80.2366 2.59505 80.2166 3.06799C80.1977 3.54206 80.1877 3.90611 80.1877 4.15903C80.1877 4.41307 80.1933 4.65238 80.2066 4.8792C80.22 5.10716 80.2333 5.29316 80.2466 5.43947H79.7956C79.7034 4.5866 79.5634 3.91292 79.3735 3.41844C79.1846 2.92509 78.9035 2.57464 78.5314 2.36823C78.1581 2.16181 77.6394 2.05747 76.9728 2.05747H75.6198C75.2021 2.05747 74.8855 2.0949 74.6688 2.16749C74.4544 2.2412 74.3067 2.38864 74.2289 2.60866C74.1501 2.82869 74.1112 3.17233 74.1112 3.63846V13.7255C74.1112 14.1791 74.1501 14.5194 74.2289 14.7462C74.3067 14.973 74.4544 15.1227 74.6688 15.1964C74.8855 15.269 75.2021 15.3064 75.6198 15.3064H76.8939C77.6394 15.3064 78.2304 15.1862 78.668 14.9458C79.1057 14.7054 79.439 14.3118 79.6678 13.7652C79.8967 13.2185 80.07 12.4711 80.1877 11.5241H80.6376C80.5988 11.9108 80.5799 12.4178 80.5799 13.045C80.5799 13.3115 80.5888 13.6982 80.6088 14.2052C80.6288 14.7122 80.6643 15.2327 80.7165 15.7669C80.05 15.7397 79.299 15.7227 78.4625 15.7159C77.626 15.7102 76.8817 15.7068 76.2274 15.7068H75.071C74.6011 15.7068 74.0945 15.7102 73.5524 15.7159C73.0092 15.7227 72.4604 15.7295 71.9061 15.7363C71.3495 15.7431 70.8174 15.7533 70.3086 15.7669V15.3666C70.7518 15.3393 71.0851 15.286 71.3073 15.2055C71.5295 15.1261 71.6772 14.9662 71.7494 14.7258C71.8205 14.4853 71.8561 14.1258 71.8561 13.6449V3.71898C71.8561 3.22563 71.8205 2.86158 71.7494 2.62794C71.6772 2.39545 71.5261 2.2344 71.2984 2.1482C71.0696 2.06088 70.7396 2.01097 70.3086 1.9985V1.59701C70.8174 1.61062 71.3495 1.62083 71.9061 1.62764C72.4604 1.63444 73.0092 1.64125 73.5524 1.64805C74.0945 1.65486 74.6011 1.65712 75.071 1.65712H76.2274C76.8284 1.65712 77.5116 1.65486 78.2759 1.64805C79.0402 1.64125 79.7234 1.62423 80.3244 1.59701Z" fill="#682B82"/>
<path d="M87.7924 1.59754V1.99789C87.348 2.0115 87.0114 2.0614 86.7826 2.14759C86.5537 2.23492 86.4004 2.39484 86.3216 2.62847C86.2438 2.8621 86.2049 3.22616 86.2049 3.71837V13.7249C86.2049 14.1785 86.2405 14.5187 86.3127 14.7456C86.3838 14.9724 86.5282 15.1232 86.7437 15.1958C86.9592 15.2695 87.2692 15.3058 87.6746 15.3058H88.9488C89.5109 15.3058 89.9842 15.2264 90.3696 15.0665C90.7551 14.9055 91.0784 14.6662 91.3406 14.3452C91.6016 14.0254 91.8038 13.6114 91.9482 13.1045C92.0915 12.5975 92.2026 12.0044 92.2815 11.3239H92.7314C92.6925 11.7503 92.6736 12.3117 92.6736 13.0047C92.6736 13.2712 92.6825 13.6625 92.7025 14.1751C92.7225 14.6889 92.7581 15.2196 92.8103 15.7663C92.1437 15.7402 91.3928 15.7232 90.5563 15.7164C89.7198 15.7096 88.9755 15.7062 88.3212 15.7062H87.1647C86.6948 15.7062 86.1883 15.7096 85.6461 15.7164C85.1029 15.7232 84.5541 15.73 83.9998 15.7368C83.4432 15.7436 82.9111 15.7538 82.4023 15.7663V15.3659C82.8456 15.3399 83.1789 15.2866 83.401 15.206C83.6232 15.1255 83.771 14.9656 83.8432 14.7263C83.9143 14.4859 83.9498 14.1252 83.9498 13.6455V3.71837C83.9498 3.22616 83.9143 2.8621 83.8432 2.62847C83.771 2.39484 83.6199 2.23492 83.3921 2.14759C83.1633 2.0614 82.8334 2.0115 82.4023 1.99789V1.59754C82.7023 1.61115 83.0911 1.62476 83.5688 1.63723C84.0454 1.65084 84.5575 1.65765 85.1074 1.65765C85.6028 1.65765 86.0961 1.65084 86.5871 1.63723C87.077 1.62476 87.4791 1.61115 87.7924 1.59754Z" fill="#682B82"/>
<path d="M106.807 1.31755C107.656 1.31755 108.362 1.55798 108.925 2.03772C109.486 2.5186 109.767 3.19227 109.767 4.05875C109.767 4.59293 109.659 5.05339 109.443 5.44013C109.228 5.82687 108.927 6.16031 108.541 6.44044C108.157 6.72057 107.709 6.9474 107.199 7.12092C106.937 7.24114 106.598 7.37156 106.18 7.51106C105.762 7.6517 105.317 7.7946 104.846 7.94203C104.377 8.08834 103.929 8.22897 103.505 8.36166C103.079 8.49549 102.73 8.61571 102.456 8.72232C101.802 8.92193 101.273 9.15896 100.867 9.43229C100.462 9.70675 100.26 10.0697 100.26 10.5233C100.26 10.8704 100.361 11.1641 100.564 11.4034C100.766 11.6439 101.015 11.8242 101.308 11.9444C101.603 12.0646 101.887 12.1247 102.161 12.1247C102.266 12.1247 102.397 12.1111 102.554 12.0839C102.71 12.0578 102.85 12.0181 102.975 11.9637C103.099 11.9115 103.173 11.8446 103.2 11.7641C102.951 11.7108 102.732 11.594 102.544 11.4136C102.354 11.2333 102.259 10.977 102.259 10.6435C102.259 10.2965 102.38 10.0232 102.621 9.82243C102.864 9.62282 103.161 9.52302 103.513 9.52302C103.88 9.52302 104.171 9.62963 104.387 9.84285C104.602 10.0561 104.71 10.3362 104.71 10.6832C104.71 11.0711 104.585 11.3977 104.337 11.6643C104.089 11.9308 103.774 12.1281 103.396 12.254C103.017 12.381 102.625 12.4446 102.22 12.4446C101.802 12.4446 101.394 12.3618 100.995 12.1939C100.596 12.0272 100.27 11.7675 100.015 11.4136C99.7597 11.0609 99.6331 10.597 99.6331 10.0232C99.6331 9.47652 99.7564 9.00585 100.005 8.61231C100.253 8.21876 100.623 7.87512 101.113 7.58138C101.603 7.28877 102.194 7.04834 102.887 6.8612C103.239 6.74098 103.661 6.61396 104.151 6.48127C104.641 6.34744 105.141 6.20454 105.651 6.05029C106.161 5.89719 106.631 5.72707 107.062 5.53994C107.807 5.24733 108.342 4.94678 108.669 4.63943C108.996 4.33321 109.159 3.98617 109.159 3.59943C109.159 3.21269 109.055 2.87585 108.846 2.58891C108.637 2.30198 108.359 2.07175 108.012 1.89822C107.666 1.7247 107.297 1.63737 106.905 1.63737C106.761 1.63737 106.641 1.64758 106.543 1.668C106.444 1.68841 106.376 1.73151 106.337 1.79729C106.558 1.89142 106.728 2.03772 106.846 2.23847C106.964 2.43807 107.023 2.63201 107.023 2.81914C107.023 3.15258 106.898 3.4157 106.651 3.6085C106.402 3.80244 106.107 3.89884 105.768 3.89884C105.454 3.89884 105.173 3.80584 104.925 3.61871C104.676 3.43271 104.553 3.15825 104.553 2.79873C104.553 2.45168 104.664 2.16815 104.885 1.94813C105.109 1.7281 105.392 1.56819 105.739 1.46725C106.085 1.36745 106.442 1.31755 106.807 1.31755ZM99.4953 1.65779C99.9919 1.65779 100.4 1.70769 100.721 1.80749C101.041 1.90843 101.312 2.03772 101.534 2.19877C101.717 2.31786 101.87 2.45849 101.995 2.6184C102.119 2.77831 102.22 2.94503 102.298 3.11856C102.377 3.29208 102.416 3.4724 102.416 3.65954C102.416 4.01906 102.289 4.30259 102.034 4.51014C101.779 4.71655 101.495 4.81976 101.182 4.81976C100.867 4.81976 100.596 4.72676 100.367 4.53963C100.139 4.3525 100.025 4.08597 100.025 3.73893C100.025 3.43271 100.13 3.16165 100.338 2.92802C100.547 2.69552 100.808 2.55829 101.123 2.5186C101.057 2.37116 100.897 2.24527 100.643 2.13866C100.387 2.03092 100.076 1.97761 99.7108 1.97761C99.031 1.97761 98.4722 2.18516 98.0356 2.59799C97.5968 3.01195 97.3779 3.62551 97.3779 4.43982C97.3779 4.78687 97.4402 5.14639 97.5646 5.52065C97.689 5.89379 97.9334 6.26805 98.3 6.64118C98.5222 6.60149 98.741 6.56746 98.9565 6.54138C99.172 6.51416 99.3453 6.50055 99.4764 6.50055C99.7108 6.50055 99.8974 6.54478 100.034 6.63097C100.172 6.7183 100.241 6.84079 100.241 7.0007C100.241 7.12092 100.187 7.21505 100.083 7.28083C99.9785 7.34775 99.8486 7.38177 99.6908 7.38177C99.4431 7.38177 99.1887 7.32506 98.9276 7.21165C98.6655 7.09824 98.4633 7.0007 98.3189 6.92131C97.6001 7.17422 97.0225 7.5587 96.5848 8.07133C96.146 8.58509 95.9282 9.28939 95.9282 10.1831C95.9282 11.0904 96.1626 11.8537 96.6337 12.474C97.1036 13.0944 97.7445 13.5651 98.5544 13.886C99.3642 14.2059 100.293 14.3658 101.338 14.3658C102.017 14.3658 102.671 14.2853 103.298 14.1253C103.926 13.9654 104.484 13.7284 104.974 13.4154C105.464 13.1024 105.853 12.7247 106.141 12.2846C106.428 11.8446 106.572 11.3376 106.572 10.7638C106.572 10.5233 106.526 10.216 106.435 9.84285C106.343 9.46972 106.151 9.10226 105.856 8.7416C105.562 8.38208 105.109 8.09514 104.494 7.88193L104.69 7.68118C105.565 7.96132 106.2 8.42177 106.592 9.06256C106.984 9.70221 107.179 10.4235 107.179 11.2242C107.179 12.0646 106.928 12.8551 106.425 13.5957C105.922 14.3352 105.206 14.9294 104.279 15.3763C103.35 15.8231 102.233 16.0466 100.926 16.0466C99.9985 16.0466 99.1332 15.9332 98.3289 15.7063C97.5257 15.4795 96.8225 15.1495 96.2215 14.7162C95.6205 14.283 95.1506 13.759 94.8107 13.1443C94.4707 12.5319 94.3008 11.8378 94.3008 11.0632C94.3008 10.3305 94.4419 9.70675 94.7218 9.19299C95.0029 8.67922 95.3528 8.25165 95.7716 7.91141C96.1893 7.57117 96.607 7.31145 97.0258 7.13113C97.4435 6.9508 97.7834 6.82831 98.0445 6.7614C97.6135 6.57427 97.2446 6.35084 96.938 6.08999C96.6303 5.83027 96.3948 5.53767 96.2315 5.2099C96.0682 4.88327 95.986 4.54643 95.986 4.19939C95.986 3.83873 96.0715 3.50643 96.2415 3.19908C96.4115 2.89173 96.6503 2.6218 96.9569 2.38817C97.2635 2.15454 97.6301 1.97535 98.0545 1.84832C98.4788 1.7213 98.9599 1.65779 99.4953 1.65779Z" fill="#682B82"/>
<path d="M126.8 1.59758V1.99793C126.356 2.01154 126.023 2.06144 125.8 2.14764C125.578 2.23497 125.431 2.39488 125.359 2.62851C125.287 2.86214 125.252 3.2262 125.252 3.71842V13.6455C125.252 14.1252 125.287 14.4859 125.359 14.7263C125.431 14.9656 125.578 15.1256 125.8 15.2061C126.023 15.2866 126.356 15.3399 126.8 15.366V15.7663C126.474 15.7403 126.068 15.7232 125.585 15.7164C125.102 15.7096 124.611 15.7062 124.115 15.7062C123.565 15.7062 123.049 15.7096 122.566 15.7164C122.082 15.7232 121.697 15.7403 121.409 15.7663V15.366C121.853 15.3399 122.19 15.2866 122.419 15.2061C122.648 15.1256 122.801 14.9656 122.88 14.7263C122.958 14.4859 122.998 14.1252 122.998 13.6455V2.69883L123.095 2.73852L118.273 15.8469H117.96L112.902 2.87802V13.1249C112.902 13.6852 112.941 14.1218 113.02 14.436C113.099 14.749 113.269 14.9724 113.53 15.1063C113.791 15.2401 114.189 15.3263 114.725 15.366V15.7663C114.477 15.7403 114.159 15.7232 113.775 15.7164C113.389 15.7096 113.026 15.7062 112.686 15.7062C112.36 15.7062 112.033 15.7096 111.707 15.7164C111.38 15.7232 111.111 15.7403 110.902 15.7663V15.366C111.334 15.3263 111.66 15.2435 111.883 15.1165C112.104 14.9895 112.255 14.7728 112.334 14.4655C112.412 14.1593 112.451 13.7385 112.451 13.2043V3.71842C112.451 3.2262 112.412 2.86214 112.334 2.62851C112.255 2.39488 112.104 2.23497 111.883 2.14764C111.66 2.06144 111.334 2.01154 110.902 1.99793V1.59758C111.111 1.61119 111.38 1.6248 111.707 1.63728C112.033 1.65089 112.36 1.65769 112.686 1.65769C113.065 1.65769 113.447 1.65089 113.833 1.63728C114.218 1.6248 114.549 1.61119 114.824 1.59758L119.155 12.965L118.783 13.2247L123.037 1.65769H123.565H124.115C124.611 1.65769 125.102 1.65089 125.585 1.63728C126.068 1.6248 126.474 1.61119 126.8 1.59758Z" fill="#682B82"/>
<path d="M77.6394 28.0361C77.5871 28.7971 77.5638 29.3767 77.5705 29.777C77.5771 30.1774 77.5805 30.5449 77.5805 30.8783C77.5805 31.2117 77.5871 31.5781 77.6005 31.9784C77.6127 32.3788 77.646 32.9594 77.6982 33.7193H77.2472C77.1817 33.2793 77.0972 32.8562 76.9928 32.4491C76.8873 32.0419 76.7018 31.7119 76.434 31.459C76.1652 31.2049 75.7508 31.0779 75.1887 31.0779V30.6775C75.6075 30.6775 75.9375 30.5914 76.1785 30.4178C76.4207 30.2443 76.6062 30.0175 76.7373 29.7373C76.8684 29.4572 76.9628 29.1669 77.0217 28.8675C77.0806 28.5669 77.1361 28.2902 77.1883 28.0361H77.6394ZM77.0706 31.0779H73.5224V30.6775H77.0706V31.0779ZM80.3244 23.833C80.2722 24.3411 80.2366 24.8311 80.2166 25.304C80.1977 25.7781 80.1877 26.1421 80.1877 26.3951C80.1877 26.6491 80.1933 26.8884 80.2066 27.1152C80.22 27.3432 80.2333 27.5292 80.2466 27.6755H79.7956C79.7034 26.8226 79.5634 26.1489 79.3735 25.6545C79.1846 25.1611 78.9035 24.8107 78.5314 24.6042C78.1581 24.3978 77.6394 24.2935 76.9728 24.2935H75.6198C75.2021 24.2935 74.8855 24.3309 74.6688 24.4035C74.4544 24.4772 74.3067 24.6247 74.2289 24.8447C74.1501 25.0647 74.1112 25.4084 74.1112 25.8745V35.9615C74.1112 36.4151 74.1501 36.7554 74.2289 36.9811C74.3067 37.209 74.4544 37.3587 74.6688 37.4325C74.8855 37.505 75.2021 37.5425 75.6198 37.5425H76.8939C77.6394 37.5425 78.2304 37.4223 78.668 37.1818C79.1057 36.9414 79.439 36.549 79.6678 36.0012C79.8967 35.4545 80.07 34.7071 80.1877 33.7601H80.6376C80.5988 34.1469 80.5799 34.6538 80.5799 35.281C80.5799 35.5475 80.5888 35.9343 80.6088 36.4412C80.6288 36.9482 80.6643 37.4688 80.7165 38.0029C80.05 37.9757 79.299 37.9587 78.4625 37.953C77.626 37.9462 76.8817 37.9417 76.2274 37.9417H75.071C74.6011 37.9417 74.0945 37.9462 73.5524 37.953C73.0092 37.9587 72.4604 37.9655 71.9061 37.9723C71.3495 37.9791 70.8174 37.9893 70.3086 38.0029V37.6026C70.7518 37.5754 71.0851 37.5221 71.3073 37.4415C71.5295 37.3621 71.6772 37.2022 71.7494 36.9618C71.8205 36.7214 71.8561 36.3618 71.8561 35.881V25.955C71.8561 25.4617 71.8205 25.0976 71.7494 24.864C71.6772 24.6315 71.5261 24.4704 71.2984 24.3842C71.0696 24.2969 70.7396 24.247 70.3086 24.2345V23.833C70.8174 23.8466 71.3495 23.8569 71.9061 23.8637C72.4604 23.8705 73.0092 23.8773 73.5524 23.8841C74.0945 23.8909 74.6011 23.8931 75.071 23.8931H76.2274C76.8284 23.8931 77.5116 23.8909 78.2759 23.8841C79.0402 23.8773 79.7234 23.8603 80.3244 23.833Z" fill="#682B82"/>
<path d="M91.3205 22.3128V35.8215C91.3205 36.4214 91.4216 36.8649 91.6248 37.1518C91.827 37.4387 92.1958 37.5816 92.7313 37.5816V38.0024C92.3269 37.9627 91.9215 37.9423 91.516 37.9423C91.0716 37.9423 90.6573 37.9627 90.2718 38.0024C89.8863 38.0421 89.5297 38.1158 89.2031 38.2224V24.7149C89.2031 24.1138 89.102 23.6703 88.8998 23.3834C88.6965 23.0965 88.3277 22.9536 87.7923 22.9536V22.5328C88.21 22.5725 88.6154 22.5929 89.0076 22.5929C89.4386 22.5929 89.8496 22.5702 90.2418 22.5226C90.6339 22.4761 90.9939 22.4058 91.3205 22.3128ZM86.9102 27.396C87.4846 27.396 88.0111 27.523 88.4877 27.7759C88.9654 28.0299 89.3009 28.4564 89.4975 29.0563L89.262 29.2775C89.0787 28.7966 88.811 28.4462 88.4588 28.2261C88.1056 28.0061 87.7067 27.8961 87.2624 27.8961C86.5181 27.8961 85.9104 28.2999 85.4394 29.1074C84.9695 29.9137 84.7407 31.1579 84.754 32.8387C84.754 33.9467 84.8451 34.8506 85.0284 35.5504C85.2106 36.2513 85.4816 36.7685 85.8416 37.1019C86.2004 37.4353 86.6358 37.602 87.1457 37.602C87.6545 37.602 88.1155 37.382 88.5266 36.942C88.9387 36.5019 89.1842 35.868 89.262 35.0412L89.4386 35.4608C89.3075 36.3681 88.9943 37.0656 88.4977 37.5521C88.0011 38.0387 87.3346 38.2825 86.4981 38.2825C85.7005 38.2825 84.9984 38.0852 84.3907 37.6916C83.7831 37.2992 83.3154 36.6981 82.9899 35.8906C82.6622 35.0843 82.5 34.0669 82.5 32.8387C82.5 31.6252 82.6988 30.6146 83.0977 29.8071C83.4954 29.0008 84.0286 28.3963 84.6951 27.9959C85.3617 27.5956 86.0993 27.396 86.9102 27.396Z" fill="#682B82"/>
<path d="M102.846 27.456V35.8418C102.846 36.4417 102.947 36.8852 103.15 37.1721C103.353 37.459 103.721 37.6019 104.257 37.6019V38.0227C103.853 37.9819 103.447 37.9626 103.042 37.9626C102.611 37.9626 102.2 37.9819 101.807 38.0227C101.415 38.0624 101.055 38.1361 100.729 38.2427V36.0618C100.402 36.8613 99.9478 37.4318 99.3668 37.772C98.7858 38.1123 98.1737 38.2824 97.5338 38.2824C97.0506 38.2824 96.6384 38.2121 96.2985 38.0726C95.9597 37.932 95.6786 37.7494 95.4565 37.5225C95.2209 37.256 95.0576 36.9124 94.9665 36.4916C94.8743 36.072 94.8288 35.5412 94.8288 34.9004V29.8569C94.8288 29.257 94.731 28.8135 94.5344 28.5266C94.3389 28.2396 93.9667 28.0967 93.418 28.0967V27.676C93.8357 27.7157 94.2411 27.7361 94.6333 27.7361C95.0643 27.7361 95.4753 27.7134 95.8675 27.6658C96.2596 27.6193 96.6196 27.549 96.9462 27.456V35.4607C96.9462 35.8486 96.9717 36.2013 97.0239 36.5222C97.0761 36.8421 97.2005 37.095 97.3972 37.2821C97.5927 37.4692 97.9071 37.5622 98.3381 37.5622C98.7947 37.5622 99.2035 37.4216 99.5623 37.1415C99.9222 36.8613 100.207 36.4814 100.415 36.0017C100.624 35.5208 100.729 34.9809 100.729 34.3798V29.8569C100.729 29.257 100.631 28.8135 100.435 28.5266C100.239 28.2396 99.8667 28.0967 99.3179 28.0967V27.676C99.7356 27.7157 100.141 27.7361 100.533 27.7361C100.964 27.7361 101.376 27.7134 101.769 27.6658C102.161 27.6193 102.519 27.549 102.846 27.456Z" fill="#682B82"/>
<path d="M110.178 27.3958C110.623 27.3958 111.047 27.4525 111.452 27.566C111.857 27.6794 112.21 27.8359 112.511 28.0366C112.824 28.2362 113.063 28.4767 113.227 28.7568C113.39 29.0369 113.472 29.3443 113.472 29.6777C113.472 30.0781 113.36 30.3911 113.138 30.6179C112.916 30.8447 112.629 30.9582 112.276 30.9582C111.924 30.9582 111.629 30.8584 111.394 30.6576C111.158 30.458 111.04 30.1711 111.04 29.7979C111.04 29.4509 111.139 29.1674 111.335 28.9473C111.531 28.7262 111.759 28.5833 112.021 28.5164C111.904 28.3168 111.698 28.1466 111.404 28.006C111.109 27.8665 110.793 27.7962 110.453 27.7962C110.099 27.7962 109.763 27.8892 109.443 28.0763C109.123 28.2635 108.839 28.5504 108.591 28.9371C108.342 29.3239 108.143 29.824 107.993 30.4376C107.842 31.0512 107.768 31.7918 107.768 32.6594C107.768 33.7799 107.894 34.6702 108.15 35.3314C108.404 35.9915 108.741 36.461 109.159 36.7411C109.577 37.0213 110.028 37.1619 110.512 37.1619C110.825 37.1619 111.148 37.1018 111.482 36.9816C111.815 36.8613 112.136 36.6617 112.442 36.3816C112.749 36.1015 113.021 35.7215 113.255 35.2407L113.629 35.3813C113.484 35.8213 113.259 36.2682 112.952 36.7218C112.644 37.1755 112.243 37.5486 111.747 37.8424C111.249 38.1361 110.643 38.2824 109.924 38.2824C109.101 38.2824 108.355 38.076 107.689 37.662C107.022 37.2492 106.493 36.6447 106.101 35.8508C105.709 35.0569 105.514 34.0872 105.514 32.9395C105.514 31.819 105.713 30.8413 106.111 30.0078C106.509 29.1742 107.061 28.53 107.768 28.0763C108.473 27.6227 109.276 27.3958 110.178 27.3958Z" fill="#682B82"/>
<path d="M118.489 37.1818C118.855 37.1818 119.198 37.0752 119.518 36.862C119.839 36.6487 120.135 36.3278 120.41 35.9013V31.9183C120.267 32.1326 120.058 32.3152 119.783 32.4694C119.509 32.6226 119.215 32.7791 118.9 32.939C118.587 33.0989 118.289 33.2826 118.008 33.4902C117.727 33.6966 117.496 33.9597 117.313 34.2807C117.129 34.6005 117.038 35.0076 117.038 35.501C117.038 36.0216 117.169 36.4321 117.43 36.7315C117.692 37.0321 118.045 37.1818 118.489 37.1818ZM117.548 38.1424C116.999 38.1424 116.528 38.0358 116.136 37.8226C115.744 37.6094 115.451 37.3156 115.254 36.9413C115.059 36.5682 114.961 36.1406 114.961 35.6609C114.961 35.0746 115.091 34.5971 115.353 34.2296C115.614 33.8633 115.951 33.5662 116.362 33.3393C116.774 33.1125 117.212 32.9231 117.676 32.7689C118.139 32.6158 118.577 32.4694 118.989 32.3288C119.4 32.1893 119.74 32.026 120.008 31.8389C120.275 31.6517 120.41 31.4056 120.41 31.0983V29.7373C120.41 29.2564 120.334 28.8742 120.184 28.5873C120.034 28.3004 119.832 28.0962 119.577 27.976C119.322 27.8558 119.018 27.7957 118.666 27.7957C118.365 27.7957 118.045 27.8399 117.705 27.9261C117.365 28.0134 117.097 28.1835 116.902 28.4365C117.188 28.517 117.427 28.6735 117.617 28.9071C117.806 29.1408 117.9 29.43 117.9 29.777C117.9 30.1513 117.78 30.445 117.538 30.6582C117.296 30.8715 116.993 30.9781 116.627 30.9781C116.222 30.9781 115.921 30.8476 115.725 30.5879C115.53 30.3271 115.431 30.0243 115.431 29.6772C115.431 29.3166 115.519 29.0239 115.695 28.7971C115.872 28.5703 116.104 28.3571 116.392 28.1563C116.705 27.9431 117.107 27.7628 117.597 27.6165C118.087 27.469 118.632 27.3953 119.235 27.3953C119.796 27.3953 120.283 27.46 120.694 27.5859C121.106 27.7129 121.449 27.9159 121.723 28.196C122.05 28.5034 122.265 28.8867 122.371 29.3472C122.475 29.8076 122.527 30.3645 122.527 31.0178V36.541C122.527 36.8756 122.569 37.1126 122.654 37.2521C122.739 37.3927 122.879 37.4619 123.076 37.4619C123.206 37.4619 123.334 37.429 123.458 37.3621C123.583 37.2952 123.729 37.1954 123.899 37.0616L124.095 37.4018C123.82 37.6286 123.544 37.809 123.263 37.9417C122.982 38.0755 122.625 38.1424 122.194 38.1424C121.775 38.1424 121.436 38.0755 121.174 37.9417C120.913 37.809 120.72 37.6162 120.596 37.3621C120.472 37.1092 120.41 36.795 120.41 36.4208C120.07 36.9822 119.666 37.4086 119.195 37.7024C118.725 37.9961 118.176 38.1424 117.548 38.1424Z" fill="#682B82"/>
<path d="M128.114 24.374V27.6959H130.819V28.0962H128.114V35.9614C128.114 36.5081 128.211 36.8948 128.407 37.1217C128.604 37.3485 128.885 37.4619 129.25 37.4619C129.59 37.4619 129.894 37.3224 130.162 37.0423C130.43 36.7621 130.662 36.2881 130.858 35.6212L131.23 35.7607C131.073 36.4684 130.795 37.065 130.398 37.5526C129.999 38.0392 129.413 38.283 128.642 38.283C128.198 38.283 127.826 38.2252 127.525 38.1129C127.225 37.9995 126.963 37.835 126.742 37.6218C126.454 37.3156 126.257 36.9481 126.153 36.5217C126.049 36.0941 125.996 35.5282 125.996 34.8205V28.0962H124.193V27.6959H125.996V24.7743C126.401 24.7607 126.781 24.7244 127.133 24.6643C127.486 24.6042 127.813 24.5078 128.114 24.374Z" fill="#682B82"/>
<path d="M133.955 22.6328C134.36 22.6328 134.701 22.7632 134.975 23.023C135.249 23.2838 135.386 23.607 135.386 23.9938C135.386 24.3805 135.249 24.7037 134.975 24.9646C134.701 25.2243 134.36 25.3547 133.955 25.3547C133.55 25.3547 133.21 25.2243 132.935 24.9646C132.661 24.7037 132.524 24.3805 132.524 23.9938C132.524 23.607 132.661 23.2838 132.935 23.023C133.21 22.7632 133.55 22.6328 133.955 22.6328ZM135.132 27.4563V36.1415C135.132 36.7018 135.239 37.0817 135.455 37.2824C135.67 37.4821 136.033 37.5819 136.543 37.5819V38.0026C136.32 37.989 135.977 37.972 135.514 37.9527C135.049 37.9323 134.576 37.9221 134.092 37.9221C133.634 37.9221 133.164 37.9323 132.681 37.9527C132.198 37.972 131.838 37.989 131.604 38.0026V37.5819C132.112 37.5819 132.476 37.4821 132.691 37.2824C132.907 37.0817 133.014 36.7018 133.014 36.1415V29.8573C133.014 29.2573 132.917 28.8139 132.72 28.5269C132.524 28.24 132.152 28.0959 131.604 28.0959V27.6763C132.021 27.716 132.427 27.7364 132.819 27.7364C133.262 27.7364 133.678 27.7126 134.063 27.6661C134.449 27.6196 134.804 27.5493 135.132 27.4563Z" fill="#682B82"/>
<path d="M142.383 27.796C141.703 27.796 141.149 28.193 140.717 28.9868C140.286 29.7807 140.07 31.0714 140.07 32.8588C140.07 34.6473 140.286 35.9312 140.717 36.7114C141.149 37.4917 141.703 37.8819 142.383 37.8819C143.05 37.8819 143.602 37.4917 144.04 36.7114C144.477 35.9312 144.696 34.6473 144.696 32.8588C144.696 31.0714 144.477 29.7807 144.04 28.9868C143.602 28.193 143.05 27.796 142.383 27.796ZM142.383 27.3957C143.259 27.3957 144.036 27.5828 144.716 27.9559C145.395 28.3302 145.938 28.9165 146.344 29.7172C146.748 30.5179 146.95 31.5659 146.95 32.8588C146.95 34.154 146.748 35.1974 146.344 35.9913C145.938 36.7852 145.395 37.3658 144.716 37.7322C144.036 38.0996 143.259 38.2822 142.383 38.2822C141.521 38.2822 140.744 38.0996 140.05 37.7322C139.357 37.3658 138.813 36.7852 138.414 35.9913C138.015 35.1974 137.816 34.154 137.816 32.8588C137.816 31.5659 138.015 30.5179 138.414 29.7172C138.813 28.9165 139.357 28.3302 140.05 27.9559C140.744 27.5828 141.521 27.3957 142.383 27.3957Z" fill="#682B82"/>
<path d="M155.165 27.3958C155.688 27.3958 156.116 27.4661 156.449 27.6056C156.782 27.7463 157.06 27.9357 157.282 28.1761C157.517 28.4302 157.684 28.7568 157.782 29.1571C157.88 29.5575 157.929 30.0973 157.929 30.7778V36.1411C157.929 36.7014 158.036 37.0813 158.252 37.2821C158.467 37.4817 158.831 37.5815 159.339 37.5815V38.0023C159.118 37.9898 158.772 37.9728 158.301 37.9524C157.831 37.9319 157.366 37.9229 156.91 37.9229C156.464 37.9229 156.024 37.9319 155.586 37.9524C155.148 37.9728 154.818 37.9898 154.596 38.0023V37.5815C155.04 37.5815 155.355 37.4817 155.537 37.2821C155.72 37.0813 155.811 36.7014 155.811 36.1411V30.2176C155.811 29.8308 155.779 29.4804 155.713 29.1673C155.648 28.8532 155.511 28.6003 155.302 28.4063C155.092 28.2135 154.779 28.116 154.361 28.116C153.877 28.116 153.449 28.2566 153.077 28.5368C152.704 28.8169 152.411 29.2002 152.195 29.6868C151.98 30.1745 151.872 30.7177 151.872 31.3188V36.1411C151.872 36.7014 151.966 37.0813 152.155 37.2821C152.345 37.4817 152.655 37.5815 153.087 37.5815V38.0023C152.877 37.9898 152.561 37.9728 152.136 37.9524C151.711 37.9319 151.27 37.9229 150.813 37.9229C150.369 37.9229 149.905 37.9319 149.421 37.9524C148.938 37.9728 148.578 37.9898 148.344 38.0023V37.5815C148.853 37.5815 149.216 37.4817 149.431 37.2821C149.647 37.0813 149.755 36.7014 149.755 36.1411V29.8569C149.755 29.2569 149.657 28.8135 149.46 28.5266C149.265 28.2396 148.893 28.0967 148.344 28.0967V27.676C148.761 27.7156 149.167 27.7361 149.559 27.7361C150.002 27.7361 150.418 27.7134 150.803 27.6657C151.189 27.6192 151.545 27.5489 151.872 27.4559V29.6369C152.211 28.8101 152.678 28.2294 153.273 27.896C153.868 27.5625 154.498 27.3958 155.165 27.3958Z" fill="#682B82"/>
<path d="M76.9921 45.7893C77.8542 45.7893 78.5629 45.9198 79.1184 46.1795C79.6738 46.4392 80.1671 46.7432 80.5992 47.0902C80.8603 47.2909 81.0591 47.3136 81.1969 47.1605C81.3335 47.0074 81.429 46.6434 81.4813 46.0695H81.9323C81.9056 46.5764 81.8856 47.1866 81.8734 47.9011C81.8601 48.6145 81.8534 49.5649 81.8534 50.7523H81.4024C81.3113 50.166 81.2224 49.6851 81.138 49.312C81.0525 48.9377 80.9414 48.6179 80.8047 48.3514C80.667 48.0837 80.4815 47.824 80.2459 47.5711C79.8671 47.0902 79.4028 46.7432 78.854 46.5299C78.3052 46.3167 77.7242 46.2101 77.1099 46.2101C76.4434 46.2101 75.8557 46.3802 75.3458 46.7205C74.8359 47.0607 74.4082 47.5439 74.0616 48.171C73.715 48.7982 73.4506 49.5388 73.2673 50.3928C73.0851 51.2468 72.9929 52.1802 72.9929 53.1941C72.9929 54.2341 73.0918 55.1789 73.2873 56.0261C73.4828 56.8733 73.7672 57.6002 74.1405 58.207C74.5126 58.8138 74.9637 59.281 75.4924 59.6077C76.0212 59.9354 76.6133 60.0976 77.2665 60.0976C77.802 60.0976 78.3574 59.9887 78.9329 59.7676C79.5072 59.5476 79.9649 59.2107 80.3048 58.7571C80.6703 58.3578 80.9225 57.9065 81.0591 57.4063C81.1969 56.9061 81.3113 56.2223 81.4024 55.3547H81.8534C81.8534 56.5829 81.8601 57.573 81.8734 58.3272C81.8856 59.0814 81.9056 59.7177 81.9323 60.2382H81.4813C81.429 59.6655 81.3402 59.3048 81.2158 59.1574C81.0924 59.0111 80.8858 59.0304 80.5992 59.2175C80.1149 59.5646 79.6027 59.8685 79.0606 60.1282C78.5174 60.3891 77.822 60.5184 76.9722 60.5184C75.6791 60.5184 74.5482 60.2314 73.5817 59.6576C72.6141 59.0848 71.8632 58.2569 71.3277 57.1761C70.7912 56.0952 70.5234 54.7944 70.5234 53.2735C70.5234 51.7799 70.8012 50.4722 71.3566 49.3517C71.912 48.2311 72.673 47.3579 73.6406 46.7295C74.6071 46.1035 75.7246 45.7893 76.9921 45.7893Z" fill="#682B82"/>
<path d="M88.5766 50.0322C87.8968 50.0322 87.3424 50.4291 86.9103 51.223C86.4793 52.0169 86.2638 53.3075 86.2638 55.0949C86.2638 56.8835 86.4793 58.1673 86.9103 58.9476C87.3424 59.7279 87.8968 60.118 88.5766 60.118C89.2432 60.118 89.7953 59.7279 90.233 58.9476C90.6707 58.1673 90.8895 56.8835 90.8895 55.0949C90.8895 53.3075 90.6707 52.0169 90.233 51.223C89.7953 50.4291 89.2432 50.0322 88.5766 50.0322ZM88.5766 49.6318C89.452 49.6318 90.2296 49.8189 90.9095 50.1921C91.5883 50.5663 92.1315 51.1527 92.537 51.9534C92.9413 52.7541 93.1435 53.8009 93.1435 55.0949C93.1435 56.389 92.9413 57.4335 92.537 58.2274C92.1315 59.0213 91.5883 59.602 90.9095 59.9683C90.2296 60.3346 89.452 60.5184 88.5766 60.5184C87.7146 60.5184 86.937 60.3346 86.2438 59.9683C85.5506 59.602 85.0062 59.0213 84.6074 58.2274C84.2086 57.4335 84.0098 56.389 84.0098 55.0949C84.0098 53.8009 84.2086 52.7541 84.6074 51.9534C85.0062 51.1527 85.5506 50.5663 86.2438 50.1921C86.937 49.8189 87.7146 49.6318 88.5766 49.6318Z" fill="#682B82"/>
<path d="M101.356 49.632C101.879 49.632 102.307 49.7012 102.64 49.8418C102.973 49.9825 103.251 50.1719 103.473 50.4123C103.709 50.6664 103.876 50.993 103.973 51.3933C104.071 51.7937 104.12 52.3335 104.12 53.014V58.3773C104.12 58.9376 104.228 59.3175 104.443 59.5183C104.659 59.7179 105.022 59.8177 105.531 59.8177V60.2385C105.31 60.2249 104.963 60.2078 104.492 60.1886C104.022 60.1681 103.558 60.1579 103.101 60.1579C102.657 60.1579 102.216 60.1681 101.777 60.1886C101.339 60.2078 101.009 60.2249 100.787 60.2385V59.8177C101.232 59.8177 101.546 59.7179 101.728 59.5183C101.911 59.3175 102.003 58.9376 102.003 58.3773V52.4538C102.003 52.067 101.97 51.7166 101.905 51.4024C101.839 51.0894 101.703 50.8353 101.494 50.6425C101.284 50.4486 100.971 50.3522 100.553 50.3522C100.068 50.3522 99.6408 50.4928 99.2687 50.773C98.8965 51.0531 98.6021 51.4364 98.3866 51.923C98.1711 52.4107 98.0633 52.9539 98.0633 53.5539V58.3773C98.0633 58.9376 98.1578 59.3175 98.3466 59.5183C98.5366 59.7179 98.8465 59.8177 99.2787 59.8177V60.2385C99.0687 60.2249 98.7521 60.2078 98.3277 60.1886C97.9023 60.1681 97.4624 60.1579 97.0047 60.1579C96.5603 60.1579 96.096 60.1681 95.6127 60.1886C95.1295 60.2078 94.7696 60.2249 94.5352 60.2385V59.8177C95.0439 59.8177 95.4072 59.7179 95.6227 59.5183C95.8382 59.3175 95.946 58.9376 95.946 58.3773V52.0931C95.946 51.4931 95.8482 51.0497 95.6516 50.7628C95.4561 50.4758 95.0839 50.3318 94.5352 50.3318V49.9122C94.9529 49.9519 95.3583 49.9723 95.7505 49.9723C96.1937 49.9723 96.6092 49.9496 96.9947 49.902C97.3801 49.8555 97.7367 49.7851 98.0633 49.6921V51.8731C98.4022 51.0463 98.8698 50.4656 99.4642 50.1322C100.06 49.7987 100.689 49.632 101.356 49.632Z" fill="#682B82"/>
<path d="M110.001 49.632C110.523 49.632 110.978 49.7148 111.363 49.8815C111.749 50.0493 112.026 50.1991 112.196 50.3317C112.627 50.6788 112.895 50.452 113.001 49.6513H113.432C113.405 50.0255 113.386 50.4758 113.373 51.0032C113.359 51.5305 113.353 52.2269 113.353 53.0945H112.922C112.844 52.6 112.71 52.1203 112.521 51.653C112.331 51.1858 112.056 50.799 111.698 50.4928C111.338 50.1854 110.87 50.0323 110.296 50.0323C109.865 50.0323 109.505 50.156 109.217 50.4021C108.929 50.6493 108.786 51.0122 108.786 51.4931C108.786 51.8935 108.904 52.2405 109.139 52.5342C109.374 52.8268 109.678 53.1013 110.05 53.3542C110.422 53.6083 110.824 53.8816 111.255 54.1742C111.739 54.5088 112.174 54.8388 112.56 55.1654C112.944 55.4921 113.252 55.8561 113.481 56.2565C113.709 56.6557 113.824 57.123 113.824 57.6571C113.824 58.2707 113.664 58.7913 113.344 59.2177C113.023 59.6453 112.602 59.9685 112.079 60.1885C111.557 60.4085 110.981 60.5186 110.355 60.5186C110.04 60.5186 109.747 60.4879 109.471 60.429C109.197 60.3688 108.943 60.2917 108.707 60.1987C108.564 60.1182 108.424 60.0354 108.286 59.9481C108.149 59.8619 108.015 59.778 107.884 59.6974C107.754 59.6044 107.636 59.6181 107.532 59.7383C107.426 59.8585 107.348 60.0717 107.296 60.3791H106.865C106.891 59.9515 106.911 59.4309 106.924 58.8174C106.936 58.2038 106.943 57.3895 106.943 56.3756H107.375C107.466 57.1093 107.603 57.7569 107.786 58.3172C107.969 58.8775 108.241 59.3152 108.599 59.6283C108.959 59.9413 109.452 60.0978 110.08 60.0978C110.328 60.0978 110.576 60.0422 110.824 59.9277C111.072 59.8154 111.279 59.6317 111.442 59.3776C111.605 59.1247 111.686 58.7845 111.686 58.3569C111.686 57.7705 111.488 57.2863 111.089 56.9063C110.691 56.5264 110.178 56.1226 109.55 55.6951C109.106 55.3752 108.685 55.0588 108.286 54.7447C107.887 54.4316 107.564 54.0778 107.316 53.6843C107.067 53.2907 106.943 52.8212 106.943 52.2734C106.943 51.6734 107.084 51.1801 107.365 50.7922C107.645 50.4055 108.022 50.1151 108.492 49.9223C108.963 49.7284 109.465 49.632 110.001 49.632Z" fill="#682B82"/>
<path d="M124.409 49.6918V58.0776C124.409 58.6775 124.51 59.121 124.713 59.4079C124.915 59.6949 125.284 59.8378 125.819 59.8378V60.2585C125.415 60.2177 125.01 60.1984 124.604 60.1984C124.173 60.1984 123.762 60.2177 123.37 60.2585C122.978 60.2982 122.618 60.3719 122.291 60.4786V58.2976C121.965 59.0972 121.51 59.6676 120.929 60.0079C120.348 60.3481 119.736 60.5182 119.096 60.5182C118.613 60.5182 118.201 60.4479 117.861 60.3084C117.522 60.1678 117.241 59.9852 117.019 59.7584C116.783 59.4919 116.62 59.1482 116.529 58.7274C116.437 58.3078 116.391 57.777 116.391 57.1363V52.0928C116.391 51.4928 116.294 51.0494 116.097 50.7624C115.901 50.4755 115.529 50.3326 114.98 50.3326V49.9118C115.398 49.9526 115.804 49.9719 116.196 49.9719C116.627 49.9719 117.038 49.9492 117.43 49.9016C117.822 49.8551 118.182 49.7848 118.509 49.6918V57.6965C118.509 58.0844 118.534 58.4371 118.586 58.7581C118.639 59.0779 118.763 59.3308 118.96 59.5179C119.155 59.7051 119.47 59.7981 119.901 59.7981C120.357 59.7981 120.766 59.6574 121.125 59.3773C121.485 59.0972 121.769 58.7172 121.978 58.2375C122.187 57.7566 122.291 57.2168 122.291 56.6157V52.0928C122.291 51.4928 122.193 51.0494 121.998 50.7624C121.801 50.4755 121.429 50.3326 120.88 50.3326V49.9118C121.298 49.9526 121.704 49.9719 122.096 49.9719C122.527 49.9719 122.939 49.9492 123.331 49.9016C123.723 49.8551 124.082 49.7848 124.409 49.6918Z" fill="#682B82"/>
<path d="M130.173 44.5486V58.3772C130.173 58.9374 130.28 59.3174 130.496 59.5181C130.711 59.7177 131.075 59.8175 131.584 59.8175V60.2383C131.361 60.2258 131.016 60.2088 130.545 60.1884C130.075 60.168 129.604 60.1578 129.134 60.1578C128.663 60.1578 128.19 60.168 127.713 60.1884C127.236 60.2088 126.88 60.2258 126.645 60.2383V59.8175C127.154 59.8175 127.517 59.7177 127.732 59.5181C127.948 59.3174 128.055 58.9374 128.055 58.3772V46.9496C128.055 46.3497 127.958 45.9062 127.762 45.6193C127.565 45.3323 127.193 45.1894 126.645 45.1894V44.7687C127.062 44.8095 127.468 44.8288 127.86 44.8288C128.291 44.8288 128.702 44.8061 129.094 44.7585C129.486 44.712 129.846 44.6416 130.173 44.5486Z" fill="#682B82"/>
<path d="M135.955 46.6102V49.9321H138.661V50.3324H135.955V58.1977C135.955 58.7443 136.053 59.131 136.249 59.3579C136.445 59.5847 136.726 59.6981 137.092 59.6981C137.432 59.6981 137.736 59.5586 138.004 59.2785C138.272 58.9984 138.504 58.5243 138.699 57.8574L139.072 57.9969C138.915 58.7046 138.637 59.3012 138.239 59.7888C137.841 60.2754 137.255 60.5192 136.484 60.5192C136.04 60.5192 135.668 60.4614 135.367 60.3491C135.067 60.2357 134.805 60.0712 134.584 59.858C134.296 59.5518 134.099 59.1843 133.995 58.7579C133.89 58.3315 133.838 57.7644 133.838 57.0567V50.3324H132.035V49.9321H133.838V47.0105C134.242 46.9969 134.622 46.9606 134.975 46.9005C135.328 46.8404 135.654 46.744 135.955 46.6102Z" fill="#682B82"/>
<path d="M143.149 59.4176C143.515 59.4176 143.858 59.311 144.178 59.0978C144.499 58.8846 144.796 58.5636 145.07 58.1372V54.1541C144.927 54.3684 144.718 54.551 144.443 54.7053C144.169 54.8584 143.875 55.0149 143.56 55.1748C143.247 55.3359 142.949 55.5185 142.668 55.726C142.387 55.9324 142.156 56.1955 141.973 56.5165C141.79 56.8363 141.698 57.2435 141.698 57.7368C141.698 58.2574 141.83 58.668 142.091 58.9674C142.352 59.2679 142.705 59.4176 143.149 59.4176ZM142.208 60.3782C141.66 60.3782 141.189 60.2716 140.796 60.0584C140.404 59.8452 140.111 59.5514 139.914 59.1772C139.719 58.8041 139.621 58.3765 139.621 57.8967C139.621 57.3104 139.751 56.8329 140.013 56.4655C140.274 56.0991 140.611 55.802 141.022 55.5752C141.434 55.3483 141.872 55.1589 142.336 55.0047C142.799 54.8516 143.237 54.7053 143.649 54.5647C144.06 54.4252 144.4 54.2618 144.668 54.0747C144.936 53.8876 145.07 53.6415 145.07 53.3341V51.9732C145.07 51.4923 144.994 51.1101 144.844 50.8231C144.695 50.5362 144.492 50.3321 144.237 50.2118C143.982 50.0916 143.678 50.0326 143.326 50.0326C143.025 50.0326 142.705 50.0757 142.365 50.1619C142.025 50.2493 141.757 50.4194 141.562 50.6723C141.848 50.7528 142.087 50.9093 142.277 51.143C142.466 51.3766 142.561 51.6658 142.561 52.0128C142.561 52.3871 142.441 52.6809 142.198 52.8941C141.956 53.1073 141.653 53.2139 141.287 53.2139C140.882 53.2139 140.581 53.0835 140.385 52.8238C140.189 52.5629 140.091 52.2601 140.091 51.913C140.091 51.5535 140.179 51.2598 140.355 51.033C140.532 50.8061 140.764 50.5929 141.052 50.3922C141.365 50.179 141.767 49.9986 142.257 49.8523C142.747 49.7049 143.293 49.6323 143.895 49.6323C144.456 49.6323 144.943 49.6958 145.354 49.8217C145.767 49.9487 146.109 50.1517 146.383 50.4319C146.71 50.7392 146.925 51.1226 147.031 51.583C147.135 52.0435 147.187 52.6003 147.187 53.2536V58.7768C147.187 59.1114 147.23 59.3484 147.314 59.4879C147.4 59.6286 147.54 59.6978 147.736 59.6978C147.866 59.6978 147.994 59.6649 148.118 59.5979C148.243 59.531 148.389 59.4312 148.559 59.2974L148.755 59.6376C148.48 59.8645 148.203 60.0448 147.923 60.1786C147.642 60.3113 147.285 60.3782 146.854 60.3782C146.435 60.3782 146.096 60.3113 145.834 60.1786C145.573 60.0448 145.38 59.852 145.257 59.5979C145.132 59.345 145.07 59.0309 145.07 58.6578C144.73 59.218 144.326 59.6444 143.855 59.9382C143.385 60.2319 142.836 60.3782 142.208 60.3782Z" fill="#682B82"/>
<path d="M156.165 49.632C156.688 49.632 157.116 49.7012 157.449 49.8418C157.782 49.9825 158.06 50.1719 158.282 50.4123C158.517 50.6664 158.684 50.993 158.782 51.3933C158.88 51.7937 158.929 52.3335 158.929 53.014V58.3773C158.929 58.9376 159.036 59.3175 159.252 59.5183C159.467 59.7179 159.831 59.8177 160.339 59.8177V60.2385C160.118 60.2249 159.772 60.2078 159.301 60.1886C158.831 60.1681 158.366 60.1579 157.91 60.1579C157.464 60.1579 157.024 60.1681 156.586 60.1886C156.148 60.2078 155.818 60.2249 155.596 60.2385V59.8177C156.04 59.8177 156.355 59.7179 156.537 59.5183C156.72 59.3175 156.811 58.9376 156.811 58.3773V52.4538C156.811 52.067 156.779 51.7166 156.713 51.4024C156.648 51.0894 156.511 50.8353 156.302 50.6425C156.092 50.4486 155.779 50.3522 155.361 50.3522C154.877 50.3522 154.449 50.4928 154.077 50.773C153.704 51.0531 153.411 51.4364 153.195 51.923C152.98 52.4107 152.872 52.9539 152.872 53.5539V58.3773C152.872 58.9376 152.966 59.3175 153.155 59.5183C153.345 59.7179 153.655 59.8177 154.087 59.8177V60.2385C153.877 60.2249 153.561 60.2078 153.136 60.1886C152.711 60.1681 152.27 60.1579 151.813 60.1579C151.369 60.1579 150.905 60.1681 150.421 60.1886C149.938 60.2078 149.578 60.2249 149.344 60.2385V59.8177C149.853 59.8177 150.216 59.7179 150.431 59.5183C150.647 59.3175 150.755 58.9376 150.755 58.3773V52.0931C150.755 51.4931 150.657 51.0497 150.46 50.7628C150.265 50.4758 149.893 50.3318 149.344 50.3318V49.9122C149.761 49.9519 150.167 49.9723 150.559 49.9723C151.002 49.9723 151.418 49.9496 151.803 49.902C152.189 49.8555 152.544 49.7851 152.872 49.6921V51.8731C153.211 51.0463 153.678 50.4656 154.273 50.1322C154.868 49.7987 155.498 49.632 156.165 49.632Z" fill="#682B82"/>
<path d="M166.141 49.632C166.586 49.632 167.01 49.6887 167.415 49.8021C167.821 49.9155 168.173 50.072 168.474 50.2728C168.787 50.4724 169.026 50.7128 169.189 50.9929C169.353 51.2731 169.435 51.5804 169.435 51.9127C169.435 52.3131 169.323 52.6272 169.101 52.8541C168.878 53.0809 168.592 53.1943 168.239 53.1943C167.886 53.1943 167.592 53.0945 167.357 52.8938C167.121 52.6942 167.003 52.4072 167.003 52.033C167.003 51.687 167.102 51.4024 167.298 51.1835C167.494 50.9623 167.722 50.8194 167.984 50.7525C167.866 50.5529 167.661 50.3816 167.367 50.2422C167.072 50.1015 166.756 50.0323 166.416 50.0323C166.062 50.0323 165.727 50.1253 165.406 50.3125C165.086 50.4996 164.801 50.7854 164.554 51.1721C164.305 51.56 164.106 52.0602 163.956 52.6737C163.805 53.2873 163.731 54.0279 163.731 54.8955C163.731 56.016 163.858 56.9063 164.113 57.5664C164.367 58.2265 164.704 58.6971 165.123 58.9773C165.54 59.2574 165.991 59.398 166.474 59.398C166.788 59.398 167.112 59.3379 167.445 59.2177C167.778 59.0975 168.099 58.8979 168.405 58.6177C168.712 58.3376 168.984 57.9565 169.218 57.4768L169.592 57.6163C169.447 58.0575 169.222 58.5043 168.915 58.958C168.607 59.4116 168.206 59.7848 167.71 60.0785C167.212 60.3711 166.606 60.5186 165.887 60.5186C165.064 60.5186 164.318 60.3121 163.652 59.8982C162.985 59.4842 162.456 58.8809 162.064 58.087C161.672 57.2931 161.477 56.3234 161.477 55.1756C161.477 54.0551 161.675 53.0775 162.074 52.2439C162.473 51.4092 163.024 50.7661 163.731 50.3125C164.436 49.8588 165.239 49.632 166.141 49.632Z" fill="#682B82"/>
<path d="M175.649 60.1984L174.944 62.0799C174.813 62.4122 174.679 62.6923 174.542 62.9203C174.404 63.1471 174.257 63.3331 174.101 63.4806C173.904 63.6677 173.663 63.8004 173.375 63.8809C173.087 63.9603 172.8 64 172.513 64C172.239 64 171.98 63.9501 171.738 63.8503C171.497 63.7505 171.298 63.6008 171.14 63.4C170.983 63.2004 170.906 62.9532 170.906 62.6595C170.906 62.3124 171.017 62.0323 171.239 61.8191C171.461 61.6058 171.754 61.4992 172.121 61.4992C172.446 61.4992 172.722 61.5888 172.944 61.7692C173.166 61.9495 173.277 62.2126 173.277 62.5596C173.277 62.8001 173.215 63.0065 173.091 63.18C172.966 63.3535 172.806 63.4874 172.611 63.5804C172.65 63.594 172.69 63.6008 172.729 63.6008H172.826C173.192 63.6008 173.52 63.4772 173.806 63.2299C174.094 62.9838 174.336 62.5857 174.532 62.0391L175.237 60.1179L175.649 60.1984ZM180.001 49.9118V50.3121C179.752 50.3518 179.524 50.4822 179.315 50.7023C179.105 50.9223 178.903 51.2999 178.707 51.833L175.649 60.1984L175.179 60.6781L171.357 51.4531C171.108 50.9325 170.869 50.6161 170.64 50.5027C170.412 50.3892 170.219 50.3325 170.062 50.3325V49.9118C170.389 49.9526 170.736 49.9821 171.101 50.0025C171.467 50.0218 171.847 50.032 172.239 50.032C172.682 50.032 173.13 50.0195 173.581 49.9923C174.032 49.9651 174.454 49.939 174.845 49.9118V50.3325C174.532 50.3325 174.254 50.3552 174.013 50.4028C173.771 50.4493 173.613 50.5764 173.542 50.7828C173.47 50.9892 173.532 51.3396 173.728 51.833L176.159 57.9369L176.021 57.997L178.001 52.6337C178.198 52.1006 178.275 51.6697 178.236 51.343C178.198 51.0164 178.06 50.7692 177.824 50.6025C177.59 50.4357 177.243 50.3393 176.786 50.3121V49.9118C177.008 49.9254 177.213 49.9356 177.403 49.9424C177.592 49.9492 177.779 49.9549 177.962 49.9617C178.145 49.9685 178.328 49.9719 178.511 49.9719C178.799 49.9719 179.07 49.9651 179.324 49.9526C179.579 49.939 179.805 49.9254 180.001 49.9118Z" fill="#682B82"/>
<path d="M54.0122 20.2546L50.7717 16.9452L47.5312 20.2546V6.12892L54.0122 3.90034V20.2546Z" fill="#682B82"/>
<path d="M31.0549 11.5428V30.7596H0.0111092C0.0055547 30.4965 0 30.2288 0 29.9657V0.00522423L31.0549 11.5428Z" fill="#682B82"/>
<path d="M31.0556 32.411V61.6706C18.2403 58.3033 6.25384 51.3647 1.8125 39.9213L3.36108 39.437L20.7554 33.9863C24.1103 32.9361 27.5863 32.411 31.0556 32.411Z" fill="#682B82"/>
<path d="M62.1152 0V29.9661C62.1152 30.2281 62.1096 30.4969 62.1041 30.7589C62.0696 32.0495 61.9496 33.2858 61.7608 34.5004C61.4864 36.2152 61.0576 37.8495 60.4922 39.4021C60.4288 39.5768 60.3655 39.7458 60.2978 39.9216C55.862 51.365 43.8755 58.3036 31.0547 61.6709V59.9606C31.569 59.8268 32.1123 59.6748 32.6777 59.5058C33.2265 59.3425 33.793 59.1667 34.3696 58.9807C34.7817 58.8458 35.1928 58.7063 35.616 58.56C35.9248 58.4556 36.2337 58.3445 36.5425 58.2277C36.9191 58.0938 37.2968 57.9532 37.6734 57.808C38.0277 57.6731 38.3766 57.5336 38.7309 57.3929C38.9087 57.3226 39.0853 57.2478 39.2631 57.1718C39.4341 57.1015 39.6108 57.0198 39.7885 56.9438C39.8574 56.9143 39.9196 56.886 39.9885 56.8565C40.2517 56.7453 40.5084 56.6285 40.7661 56.5117C41.0805 56.3665 41.3949 56.2202 41.7092 56.0683C41.8859 55.9866 42.0581 55.905 42.2291 55.8176C42.2691 55.7995 42.298 55.7825 42.338 55.7598C42.5146 55.677 42.6924 55.5897 42.8634 55.4967C42.9834 55.4377 43.1034 55.3742 43.2245 55.3095C43.4978 55.17 43.7666 55.0237 44.041 54.8718C44.0643 54.8661 44.081 54.8547 44.0988 54.8434C44.4298 54.6619 44.7675 54.4748 45.093 54.2888C45.1274 54.2707 45.1563 54.2537 45.1785 54.2355C45.3785 54.1198 45.5851 53.9973 45.7906 53.868C45.9906 53.7512 46.1906 53.6287 46.3905 53.5006C47.0082 53.1161 47.6136 52.7135 48.2079 52.2927C48.3457 52.1941 48.4879 52.0943 48.6256 51.9899C49.3744 51.4467 50.1064 50.8807 50.8152 50.274C51.0951 50.0403 51.3695 49.7954 51.6439 49.5447C51.9183 49.2986 52.186 49.0423 52.4493 48.786C52.5126 48.727 52.5693 48.6692 52.6271 48.6045C52.8326 48.406 53.0325 48.2076 53.2325 47.9978C53.318 47.9104 53.4047 47.8174 53.4836 47.729C53.7524 47.4432 54.0101 47.1574 54.2556 46.8602C54.2901 46.8251 54.3189 46.7899 54.3467 46.7547C54.5933 46.4689 54.8277 46.1831 55.0555 45.8849C55.1699 45.7397 55.2788 45.5934 55.3932 45.4482C55.5243 45.2781 55.6509 45.1091 55.7764 44.9345C55.8675 44.7995 55.9653 44.6657 56.0564 44.5262C56.1652 44.3685 56.273 44.2109 56.3763 44.0532C56.4796 43.8956 56.5818 43.7379 56.6796 43.5746C56.7818 43.4113 56.8795 43.2537 56.9762 43.0904C57.1762 42.7637 57.3539 42.4303 57.5372 42.0923C57.6283 41.9233 57.7138 41.7532 57.7994 41.5786C57.8849 41.4039 57.9715 41.2338 58.0571 41.0534C58.1193 40.9196 58.1882 40.779 58.2515 40.6395C58.2859 40.5635 58.3193 40.4875 58.3537 40.4059C58.4914 40.0849 58.6281 39.7696 58.7547 39.443V39.4373L41.3437 33.9866C37.9878 32.9364 34.524 32.4113 31.0547 32.4113V30.7589H60.4744C60.4866 30.4969 60.4922 30.2281 60.4922 29.9661V2.36354L31.0547 13.3057V11.5432L60.4922 0.606766L62.1152 0Z" fill="#682B82"/>
</svg>
