<svg width="25" height="24" viewBox="0 0 25 24" fill="none" xmlns="http://www.w3.org/2000/svg">
<path fill-rule="evenodd" clip-rule="evenodd" d="M11.2705 9.29146V9.29146C12.9688 10.0122 13.8644 11.8849 13.3595 13.6593L13.3275 13.7722C13.2591 14.0139 13.0901 14.2145 12.8636 14.3231C12.6371 14.4316 12.3749 14.4375 12.1437 14.3394L7.03307 12.1697C6.80236 12.0718 6.62472 11.8796 6.54521 11.6419C6.46569 11.4042 6.49192 11.1438 6.61725 10.9268L6.67776 10.8221C7.60375 9.22685 9.57265 8.57067 11.2705 9.29146V9.29146Z" stroke="#36394A" stroke-width="1.5" stroke-linecap="round" stroke-linejoin="round"/>
<path d="M9.61192 13.2643L8.02832 17" stroke="#36394A" stroke-width="1.5" stroke-linecap="round" stroke-linejoin="round"/>
<rect x="2.5" y="6" width="15" height="15" rx="2" stroke="#36394A" stroke-width="1.5" stroke-linecap="round" stroke-linejoin="round"/>
<path d="M2.5 17H17.5" stroke="#36394A" stroke-width="1.5" stroke-linecap="round" stroke-linejoin="round"/>
<path d="M8.26855 6L8.68242 3.65308C8.87423 2.56529 9.91154 1.83895 10.9993 2.03075L20.8474 3.76721C21.9352 3.95901 22.6615 4.99632 22.4697 6.08411L20.5596 16.917C20.4675 17.4394 20.1716 17.9038 19.7371 18.208C19.3026 18.5123 18.7651 18.6315 18.2427 18.5393L17.5004 18.4084" stroke="#36394A" stroke-width="1.5" stroke-linecap="round" stroke-linejoin="round"/>
</svg>
