<svg width="196" height="141" viewBox="0 0 196 141" fill="none" xmlns="http://www.w3.org/2000/svg">
<path d="M103.737 101.939C103.737 79.7095 110.27 59.3851 123.337 40.9662C136.085 22.8649 153.454 9.20946 175.444 0L177.834 8.57434C164.767 13.973 152.976 22.3885 142.459 33.8209C131.941 45.2534 126.205 58.5912 125.249 73.8345C129.711 69.0709 134.81 65.4189 140.546 62.8784C146.283 60.3379 152.338 59.0676 158.712 59.0676C170.504 59.0676 179.746 61.7669 186.439 67.1656C192.813 72.5642 196 80.3446 196 90.5068C196 100.351 193.769 109.084 189.307 116.706C184.527 124.328 178.153 130.203 170.185 134.331C161.899 138.777 152.657 141 142.459 141C130.348 141 120.946 137.983 114.254 131.949C107.242 125.916 103.737 115.912 103.737 101.939ZM0 101.939C0 79.7095 6.53334 59.3851 19.6 40.9662C32.348 22.8649 49.7171 9.20946 71.7073 0L74.0975 8.57434C61.0309 13.973 49.239 22.3885 38.7219 33.8209C28.2049 45.2534 22.4683 58.5912 21.5122 73.8345C25.974 69.0709 31.0732 65.4189 36.8097 62.8784C42.5463 60.3379 48.6016 59.0676 54.9756 59.0676C66.7675 59.0676 76.0098 61.7669 82.7024 67.1656C89.0764 72.5642 92.2634 80.3446 92.2634 90.5068C92.2634 100.351 90.0325 109.084 85.5707 116.706C80.7902 124.328 74.4163 130.203 66.4488 134.331C58.1626 138.777 48.9203 141 38.7219 141C26.6114 141 17.2097 137.983 10.5171 131.949C3.50569 125.916 0 115.912 0 101.939Z" fill="#EBD9F2"/>
</svg>
