<svg width="187" height="127" viewBox="0 0 187 127" fill="none" xmlns="http://www.w3.org/2000/svg">
<path d="M111.094 4.31395C111.094 30.9606 103.29 55.3233 87.6826 77.4019C72.456 99.0999 51.7096 115.469 25.4436 126.508L22.5886 116.23C38.196 109.759 52.2806 99.6709 64.8426 85.9669C77.4046 72.2629 84.2566 56.2749 85.3986 38.0029C80.0693 43.7129 73.9786 48.0906 67.1266 51.1359C60.2746 54.1813 53.042 55.7039 45.4286 55.7039C31.344 55.7039 20.3046 52.4683 12.3106 45.9969C4.69728 39.5256 0.890625 30.1993 0.890625 18.0179C0.890625 6.21727 3.55528 -4.25106 8.88461 -13.3871C14.5946 -22.5231 22.208 -29.5654 31.7246 -34.5141C41.622 -39.8434 52.6613 -42.5081 64.8426 -42.5081C79.308 -42.5081 90.5377 -38.8917 98.5316 -31.6591C106.906 -24.4264 111.094 -12.4354 111.094 4.31395ZM235.001 4.31395C235.001 30.9606 227.197 55.3233 211.59 77.4019C196.363 99.0999 175.617 115.469 149.351 126.508L146.496 116.23C162.103 109.759 176.188 99.6709 188.75 85.9669C201.312 72.2629 208.164 56.2749 209.306 38.0029C203.976 43.7129 197.886 48.0906 191.034 51.1359C184.182 54.1813 176.949 55.7039 169.336 55.7039C155.251 55.7039 144.212 52.4683 136.218 45.9969C128.604 39.5256 124.798 30.1993 124.798 18.0179C124.798 6.21727 127.462 -4.25106 132.792 -13.3871C138.502 -22.5231 146.115 -29.5654 155.632 -34.5141C165.529 -39.8434 176.568 -42.5081 188.75 -42.5081C203.215 -42.5081 214.445 -38.8917 222.439 -31.6591C230.813 -24.4264 235.001 -12.4354 235.001 4.31395Z" fill="#EBD9F2"/>
</svg>
