<svg width="125" height="108" viewBox="0 0 125 108" fill="none" xmlns="http://www.w3.org/2000/svg">
<path d="M125.303 -332.747C122.258 -332.747 118.261 -332.366 113.312 -331.605C108.363 -331.224 103.224 -330.273 97.895 -328.75C92.5657 -327.608 87.617 -325.514 83.049 -322.469C92.5657 -323.23 101.511 -321.708 109.886 -317.901C118.641 -314.094 125.684 -308.765 131.013 -301.913C136.723 -295.061 139.578 -287.067 139.578 -277.931C139.578 -264.227 134.439 -252.236 124.161 -241.958C114.264 -232.061 101.702 -227.112 86.475 -227.112C73.5323 -227.112 61.5413 -231.299 50.502 -239.674C39.8433 -248.049 34.514 -260.04 34.514 -275.647C34.514 -290.112 38.511 -301.913 46.505 -311.049C54.8797 -320.566 65.348 -327.798 77.91 -332.747C90.8527 -338.076 104.557 -341.693 119.022 -343.596C133.868 -345.88 147.572 -347.022 160.134 -347.022C181.451 -347.022 201.627 -344.357 220.66 -339.028C239.693 -333.699 255.301 -325.705 267.482 -315.046C279.663 -304.387 285.754 -290.683 285.754 -273.934C285.754 -262.895 281.947 -251.855 274.334 -240.816C266.721 -229.777 254.92 -217.595 238.932 -204.272C223.325 -190.949 203.149 -175.341 178.406 -157.45C152.901 -139.178 133.487 -124.332 120.164 -112.912C107.221 -101.492 98.466 -91.4043 93.898 -82.649C89.33 -73.8937 87.046 -64.5673 87.046 -54.67C87.046 -45.1533 90.0913 -36.969 96.182 -30.117C102.653 -23.265 112.17 -19.839 124.732 -19.839C130.823 -19.839 136.913 -20.41 143.004 -21.552C149.475 -23.0747 155.566 -25.1683 161.276 -27.833C152.901 -30.8783 144.907 -36.0173 137.294 -43.25C129.681 -50.8633 125.874 -61.1413 125.874 -74.084C125.874 -87.4073 130.252 -98.4467 139.007 -107.202C148.143 -115.957 159.944 -120.335 174.409 -120.335C185.448 -120.335 195.155 -116.338 203.53 -108.344C212.285 -100.731 216.663 -91.214 216.663 -79.794C216.663 -66.09 212.856 -54.4797 205.243 -44.963C197.63 -35.827 187.923 -28.404 176.122 -22.694C164.321 -17.3647 151.759 -13.3677 138.436 -10.703C125.493 -8.419 113.312 -7.277 101.892 -7.277C83.62 -7.277 66.6803 -9.75134 51.073 -14.7C35.8463 -19.6487 23.665 -27.262 14.529 -37.54C5.393 -47.818 0.825002 -60.951 0.825002 -76.939C0.825002 -91.4043 4.63167 -104.537 12.245 -116.338C20.239 -128.519 30.517 -140.13 43.079 -151.169C56.0217 -162.208 69.916 -173.819 84.762 -186C102.653 -200.465 117.88 -213.027 130.442 -223.686C143.385 -234.345 153.092 -244.623 159.563 -254.52C166.415 -264.798 169.841 -275.837 169.841 -287.638C169.841 -300.961 166.034 -311.81 158.421 -320.185C150.808 -328.56 139.768 -332.747 125.303 -332.747ZM22.523 69.808C22.523 51.9167 28.6137 37.4513 40.795 26.412C52.9763 14.992 68.203 9.282 86.475 9.282C100.94 9.282 111.98 12.5177 119.593 18.989C127.587 25.4603 131.584 35.1673 131.584 48.11C131.584 58.388 128.729 68.095 123.019 77.231C117.309 85.9863 109.505 93.219 99.608 98.929C90.0913 104.639 79.2423 107.494 67.061 107.494C52.5957 107.494 41.5563 104.258 33.943 97.787C26.3297 91.3157 22.523 81.9893 22.523 69.808Z" fill="#EBD9F2"/>
</svg>
