<svg width="105" height="117" viewBox="0 0 105 117" fill="none" xmlns="http://www.w3.org/2000/svg">
<path d="M124.158 -4.278H122.445C119.78 -24.4533 116.925 -41.7737 113.88 -56.239C110.835 -70.7043 110.644 -83.2663 113.309 -93.925C116.354 -105.345 121.684 -113.339 129.297 -117.907C137.291 -122.475 145.285 -124.759 153.279 -124.759C161.273 -124.759 168.125 -122.475 173.835 -117.907C179.545 -113.339 180.877 -105.345 177.832 -93.925C175.167 -83.2663 168.886 -70.8947 158.989 -56.81C149.092 -43.106 137.481 -25.5953 124.158 -4.278ZM123.587 -4.84903L122.445 -3.13602C101.889 -6.56202 83.8073 -9.03636 68.2 -10.559C52.9733 -12.0817 41.5533 -15.5077 33.94 -20.837C25.5653 -26.547 21.949 -33.399 23.091 -41.393C24.6137 -49.7677 28.23 -57.381 33.94 -64.233C39.65 -71.4657 46.502 -76.795 54.496 -80.221C62.8707 -83.647 71.2453 -82.505 79.62 -76.795C87.614 -71.4657 94.466 -62.52 100.176 -49.958C105.886 -37.7767 113.69 -22.7404 123.587 -4.84903ZM123.016 -4.278L123.587 -3.13602C105.696 13.6133 90.469 28.4593 77.907 41.402C65.7257 54.3447 54.496 63.4807 44.218 68.81C32.798 74.52 23.662 75.662 16.81 72.236C10.3387 68.4293 6.15134 63.1 4.248 56.248C1.58333 49.0153 1.58333 41.402 4.248 33.408C6.91267 25.414 13.955 18.562 25.375 12.852C36.4143 7.52265 49.5473 4.28699 64.774 3.145C80.3813 1.62233 99.7953 -0.852003 123.016 -4.278ZM122.445 -3.70701L124.729 -4.278C127.394 15.8973 130.249 33.2177 133.294 47.683C136.339 61.7677 136.339 74.3297 133.294 85.369C130.629 96.789 125.3 104.783 117.306 109.351C109.312 113.919 101.508 116.203 93.895 116.203C85.5203 116.203 78.478 113.919 72.768 109.351C67.4387 104.783 66.1063 96.789 68.771 85.369C71.8163 74.3297 78.0973 61.958 87.614 48.254C97.5113 34.55 109.122 17.2297 122.445 -3.70701ZM212.663 55.677C206.953 62.9097 200.101 68.239 192.107 71.665C184.113 75.091 175.738 73.949 166.983 68.239C158.989 62.9096 152.137 53.964 146.427 41.402C140.717 28.84 132.913 13.8037 123.016 -3.70701L124.158 -5.42002C144.714 -1.99402 162.605 0.480314 177.832 2.00298C193.439 3.52565 205.05 6.95165 212.663 12.281C221.418 17.991 225.035 25.0333 223.512 33.408C221.989 41.402 218.373 48.825 212.663 55.677ZM242.355 -64.804C245.02 -57.5713 245.02 -49.958 242.355 -41.964C239.69 -33.97 232.648 -27.118 221.228 -21.408C210.569 -16.0787 197.436 -12.6527 181.829 -11.13C166.602 -9.98801 147.188 -7.51367 123.587 -3.70701L123.016 -5.42002C140.907 -22.1693 155.944 -37.0153 168.125 -49.958C180.687 -62.9007 192.107 -72.0367 202.385 -77.366C213.805 -83.076 222.751 -84.0277 229.222 -80.221C236.074 -76.795 240.452 -71.656 242.355 -64.804Z" fill="#EBD9F2"/>
</svg>
