<svg width="274" height="188" viewBox="0 0 274 188" fill="none" xmlns="http://www.w3.org/2000/svg">
<path d="M318.18 60.161C315.515 66.2517 310.947 72.9133 304.476 80.146C298.385 86.998 290.391 92.8983 280.494 97.847C270.597 102.415 258.986 104.699 245.663 104.699C233.862 104.699 222.252 102.415 210.832 97.847C199.793 92.8983 190.657 85.285 183.424 75.007C176.191 64.3483 172.575 50.6443 172.575 33.895C172.575 10.2937 180.95 -10.4527 197.699 -28.344C214.829 -46.616 240.905 -61.0814 275.926 -71.74C288.488 -75.5467 301.05 -79.3533 313.612 -83.16C326.174 -86.9667 338.736 -90.7733 351.298 -94.58C364.241 -98.3867 376.993 -102.193 389.555 -106C402.117 -109.807 414.679 -113.613 427.241 -117.42C437.9 -120.846 449.129 -124.653 460.93 -128.84C472.731 -133.027 482.818 -138.737 491.193 -145.97C499.568 -153.583 503.755 -163.861 503.755 -176.804C503.755 -191.65 498.235 -203.07 487.196 -211.064C476.157 -219.058 462.833 -223.055 447.226 -223.055C441.135 -223.055 435.996 -222.294 431.809 -220.771C442.848 -216.584 451.033 -210.874 456.362 -203.641C462.072 -196.789 464.927 -188.795 464.927 -179.659C464.927 -169.762 461.882 -161.197 455.791 -153.964C450.081 -146.731 442.658 -141.212 433.522 -137.405C424.386 -133.979 414.869 -132.266 404.972 -132.266C389.745 -132.266 377.183 -136.453 367.286 -144.828C357.769 -153.203 353.011 -163.861 353.011 -176.804C353.011 -188.605 356.627 -198.502 363.86 -206.496C371.473 -214.49 381.18 -220.581 392.981 -224.768C401.356 -228.194 410.111 -230.288 419.247 -231.049C428.764 -232.191 436.567 -232.762 442.658 -232.762C457.885 -232.762 471.589 -230.097 483.77 -224.768C496.332 -219.819 506.229 -211.254 513.462 -199.073C520.695 -187.272 524.311 -170.713 524.311 -149.396C524.311 -124.653 518.982 -104.097 508.323 -87.728C498.045 -71.3593 482.818 -57.6553 462.643 -46.616C442.848 -35.5767 418.676 -25.6793 390.126 -16.924C379.467 -13.498 368.809 -10.072 358.15 -6.646C347.491 -3.60067 336.642 -0.555341 325.603 2.49C314.944 5.53533 304.286 8.77099 293.627 12.197C282.968 15.2423 272.31 18.478 261.651 21.904C250.231 25.33 240.905 29.1367 233.672 33.324C226.439 37.5113 221.11 42.2697 217.684 47.599C214.258 52.9283 212.545 58.8287 212.545 65.3C212.545 75.9587 216.352 83.1913 223.965 86.998C231.578 90.8047 239.572 92.708 247.947 92.708C258.986 92.708 268.503 90.8047 276.497 86.998C284.872 82.8107 291.724 77.862 297.053 72.152C302.382 66.442 306.189 61.1127 308.473 56.164L318.18 60.161ZM258.796 -150.538C266.79 -150.538 273.452 -153.012 278.781 -157.961C284.491 -162.91 287.346 -169 287.346 -176.233C287.346 -182.704 284.491 -188.034 278.781 -192.221C273.452 -196.408 265.838 -198.502 255.941 -198.502C243.76 -198.502 231.769 -195.266 219.968 -188.795C208.548 -182.324 199.031 -173.188 191.418 -161.387C184.185 -149.586 180.569 -135.692 180.569 -119.704C180.569 -117.039 180.759 -114.184 181.14 -111.139C181.521 -108.474 181.901 -105.619 182.282 -102.574C189.134 -103.716 195.986 -104.477 202.838 -104.858C209.69 -105.619 214.829 -106 218.255 -106C231.959 -106 238.811 -102.003 238.811 -94.009C238.811 -89.8217 236.908 -86.7763 233.101 -84.873C229.294 -82.9697 225.297 -82.018 221.11 -82.018C213.877 -82.018 206.454 -83.5407 198.841 -86.586C191.608 -90.012 185.898 -92.6767 181.711 -94.58C170.672 -89.6313 160.584 -81.0663 151.448 -68.885C142.693 -56.7037 135.65 -42.2383 130.321 -25.489C125.372 -9.12034 122.898 8.39032 122.898 27.043C122.898 50.6443 127.466 70.439 136.602 86.427C145.738 102.034 159.252 113.835 177.143 121.829C195.034 129.823 216.923 133.82 242.808 133.82C260.699 133.82 278.4 131.917 295.911 128.11C313.802 123.923 329.981 117.642 344.446 109.267C358.911 100.892 370.522 90.0433 379.277 76.72C388.413 63.016 392.981 46.6473 392.981 27.614C392.981 13.1487 389.555 -0.745677 382.703 -14.069C375.851 -27.3923 363.099 -37.8607 344.446 -45.474L350.727 -51.755C368.238 -44.903 381.561 -34.054 390.697 -19.208C400.214 -4.36201 404.972 12.5777 404.972 31.611C404.972 49.1217 400.594 67.013 391.839 85.285C383.464 103.557 370.331 120.497 352.44 136.104C334.929 151.331 312.47 163.702 285.062 173.219C257.654 182.736 225.107 187.494 187.421 187.494C152.78 187.494 121.185 182.926 92.635 173.79C64.4657 164.273 42.0063 149.998 25.257 130.965C8.50767 111.932 0.133001 87.9497 0.133001 59.019C0.133001 33.1337 6.985 9.53233 20.689 -11.785C34.7737 -33.483 54.7587 -51.755 80.644 -66.601C106.91 -81.8277 138.125 -92.6767 174.288 -99.148C154.113 -104.477 139.457 -112.281 130.321 -122.559C121.566 -132.837 117.188 -143.876 117.188 -155.677C117.188 -170.523 122.517 -182.704 133.176 -192.221C144.215 -202.118 158.11 -209.351 174.859 -213.919C191.608 -218.868 209.119 -221.342 227.391 -221.342C253.276 -221.342 271.929 -217.155 283.349 -208.78C294.769 -200.786 300.479 -190.508 300.479 -177.946C300.479 -165.003 295.721 -155.487 286.204 -149.396C277.068 -143.305 268.122 -140.26 259.367 -140.26L258.796 -150.538Z" fill="#EBD9F2"/>
</svg>
