<svg width="194" height="157" viewBox="0 0 194 157" fill="none" xmlns="http://www.w3.org/2000/svg">
<path d="M206.82 -136.161C209.485 -142.252 214.053 -148.913 220.524 -156.146C226.615 -162.998 234.609 -168.898 244.506 -173.847C254.403 -178.415 266.014 -180.699 279.337 -180.699C291.138 -180.699 302.748 -178.415 314.168 -173.847C325.207 -168.898 334.343 -161.285 341.576 -151.007C348.809 -140.348 352.425 -126.644 352.425 -109.895C352.425 -86.2937 344.05 -65.5473 327.301 -47.656C310.171 -29.384 284.095 -14.9186 249.074 -4.25998C236.512 -0.453321 223.95 3.35334 211.388 7.16C198.826 10.9667 186.264 14.7733 173.702 18.58C160.759 22.3867 148.007 26.1933 135.445 30C122.883 33.8067 110.321 37.6134 97.759 41.42C87.1003 44.846 75.8706 48.6527 64.07 52.84C52.2693 57.0273 42.1816 62.7373 33.807 69.97C25.4323 77.5834 21.245 87.8613 21.245 100.804C21.245 115.65 26.7646 127.07 37.804 135.064C48.8433 143.058 62.1666 147.055 77.774 147.055C83.8646 147.055 89.0037 146.294 93.191 144.771C82.1516 140.584 73.9673 134.874 68.638 127.641C62.928 120.789 60.073 112.795 60.073 103.659C60.073 93.7617 63.1183 85.1967 69.209 77.964C74.919 70.7313 82.342 65.2117 91.478 61.405C100.614 57.979 110.131 56.266 120.028 56.266C135.255 56.266 147.817 60.4533 157.714 68.828C167.231 77.2027 171.989 87.8613 171.989 100.804C171.989 112.605 168.373 122.502 161.14 130.496C153.527 138.49 143.82 144.581 132.019 148.768C123.644 152.194 114.889 154.288 105.753 155.049C96.2363 156.191 88.4326 156.762 82.342 156.762C67.1153 156.762 53.4113 154.097 41.23 148.768C28.668 143.819 18.7706 135.254 11.538 123.073C4.30531 111.272 0.688975 94.7134 0.688975 73.396C0.688975 48.6527 6.01831 28.0967 16.677 11.728C26.955 -4.64066 42.1816 -18.3447 62.357 -29.384C82.1516 -40.4233 106.324 -50.3207 134.874 -59.076C145.533 -62.502 156.191 -65.928 166.85 -69.354C177.509 -72.3993 188.358 -75.4447 199.397 -78.49C210.056 -81.5353 220.714 -84.771 231.373 -88.197C242.032 -91.2423 252.69 -94.478 263.349 -97.904C274.769 -101.33 284.095 -105.137 291.328 -109.324C298.561 -113.511 303.89 -118.27 307.316 -123.599C310.742 -128.928 312.455 -134.829 312.455 -141.3C312.455 -151.959 308.648 -159.191 301.035 -162.998C293.422 -166.805 285.428 -168.708 277.053 -168.708C266.014 -168.708 256.497 -166.805 248.503 -162.998C240.128 -158.811 233.276 -153.862 227.947 -148.152C222.618 -142.442 218.811 -137.113 216.527 -132.164L206.82 -136.161ZM266.204 74.538C258.21 74.538 251.548 77.0123 246.219 81.961C240.509 86.9097 237.654 93.0004 237.654 100.233C237.654 106.704 240.509 112.034 246.219 116.221C251.548 120.408 259.162 122.502 269.059 122.502C281.24 122.502 293.231 119.266 305.032 112.795C316.452 106.324 325.969 97.1877 333.582 85.387C340.815 73.5864 344.431 59.692 344.431 43.704C344.431 41.0394 344.241 38.1843 343.86 35.139C343.479 32.4743 343.099 29.6193 342.718 26.574C335.866 27.716 329.014 28.4773 322.162 28.858C315.31 29.6193 310.171 30 306.745 30C293.041 30 286.189 26.003 286.189 18.009C286.189 13.8217 288.092 10.7763 291.899 8.87302C295.706 6.96969 299.703 6.01802 303.89 6.01802C311.123 6.01802 318.546 7.54068 326.159 10.586C333.392 14.012 339.102 16.6767 343.289 18.58C354.328 13.6313 364.416 5.06634 373.552 -7.11498C382.307 -19.2963 389.35 -33.7617 394.679 -50.511C399.628 -66.8797 402.102 -84.3903 402.102 -103.043C402.102 -126.644 397.534 -146.439 388.398 -162.427C379.262 -178.034 365.748 -189.835 347.857 -197.829C329.966 -205.823 308.077 -209.82 282.192 -209.82C264.301 -209.82 246.6 -207.917 229.089 -204.11C211.198 -199.923 195.019 -193.642 180.554 -185.267C166.089 -176.892 154.478 -166.043 145.723 -152.72C136.587 -139.016 132.019 -122.647 132.019 -103.614C132.019 -89.1487 135.445 -75.2543 142.297 -61.931C149.149 -48.6077 161.901 -38.1393 180.554 -30.526L174.273 -24.245C156.762 -31.097 143.439 -41.946 134.303 -56.792C124.786 -71.638 120.028 -88.5777 120.028 -107.611C120.028 -125.122 124.406 -143.013 133.161 -161.285C141.536 -179.557 154.669 -196.497 172.56 -212.104C190.071 -227.331 212.53 -239.702 239.938 -249.219C267.346 -258.736 299.893 -263.494 337.579 -263.494C372.22 -263.494 403.815 -258.926 432.365 -249.79C460.534 -240.273 482.994 -225.998 499.743 -206.965C516.492 -187.932 524.867 -163.95 524.867 -135.019C524.867 -109.134 518.015 -85.5323 504.311 -64.215C490.226 -42.517 470.241 -24.245 444.356 -9.39899C418.09 5.82768 386.875 16.6767 350.712 23.148C370.887 28.4774 385.543 36.281 394.679 46.559C403.434 56.837 407.812 67.8764 407.812 79.677C407.812 94.523 402.483 106.704 391.824 116.221C380.785 126.118 366.89 133.351 350.141 137.919C333.392 142.868 315.881 145.342 297.609 145.342C271.724 145.342 253.071 141.155 241.651 132.78C230.231 124.786 224.521 114.508 224.521 101.946C224.521 89.0033 229.279 79.4867 238.796 73.396C247.932 67.3053 256.878 64.26 265.633 64.26L266.204 74.538Z" fill="#EBD9F2"/>
</svg>
