<svg width="316" height="315" viewBox="0 0 316 315" fill="none" xmlns="http://www.w3.org/2000/svg">
<path fill-rule="evenodd" clip-rule="evenodd" d="M140.281 263.1C128.023 269.242 113.651 269.742 100.052 267.993C73.7248 264.607 47.1381 251.843 34.0475 228.752C28.4009 218.791 25.5491 207.497 23.5622 196.221C20.9087 181.162 19.8368 164.972 26.5048 151.211C32.126 139.611 42.5579 131.169 52.9511 123.543C63.8438 115.551 75.6437 107.78 89.0593 106.183C127.759 105.416 123.839 119.954 164.255 96.8323C176.004 90.1107 210.935 101.649 222.738 105.416C234.54 109.184 257.83 120.807 273.625 134.615C280.227 140.386 286.316 146.992 290.027 154.937C295.582 166.834 295.313 180.692 292.721 193.564C290.106 206.546 284.43 220.049 272.9 226.565C267.691 229.509 261.684 230.771 255.721 231.254C230.815 233.272 204.321 222.639 181.529 232.881C165.926 239.894 155.575 255.437 140.281 263.1Z" fill="#DABAE8"/>
<path fill-rule="evenodd" clip-rule="evenodd" d="M46.8902 156.236C51.5702 151.626 55.9688 146.873 58.929 142.73C63.0038 137.028 68.9783 131.606 76.0576 130.56C84.3133 129.34 91.8954 135.032 97.8966 140.831C106.187 148.843 113.628 157.734 120.053 167.307C117.476 167.643 111.922 171.487 104.541 171.365C100.197 171.293 95.0061 167.421 89.9887 167.163C86.5037 166.983 82.6991 170.631 79.1898 170.353C73.0541 169.867 67.3153 165.349 62.1394 164.532C59.0559 164.045 54.8945 167.11 52.5243 166.495C46.0104 164.805 44.0801 159.004 46.8902 156.236Z" fill="white"/>
<path fill-rule="evenodd" clip-rule="evenodd" d="M187.233 227.957C207.459 221.287 229.377 229.017 250.673 228.731C260.108 228.605 270.194 226.523 276.689 219.678C262.463 211.302 251.664 197.982 243.799 183.467C235.933 168.952 230.762 153.161 225.633 137.468C218.884 133.621 210.198 140.128 202.791 137.788C199.005 136.592 194.485 133.343 191.768 136.238C190.129 137.985 187.075 136.957 185.48 135.169C183.885 133.38 182.997 131.003 181.198 129.419C179.4 127.836 175.986 127.636 175.071 129.851C173.487 133.685 171.817 137.644 168.78 140.469C165.742 143.294 160.927 144.658 157.369 142.525C154.59 140.859 153.278 137.616 151.66 134.809C150.041 132.003 149.409 129.479 146.191 129.851C135.318 152.759 127.2 175.279 113.824 196.822C108.076 206.08 75.9174 241.369 57.2312 236.821C38.5451 232.273 39.9314 228.731 33.6211 223.139C40.1944 236.512 51.8065 247.034 65.0651 253.835C78.3237 260.636 93.174 263.906 108.028 265.087C113.89 265.553 119.835 265.7 125.604 264.566C149.249 259.919 164.347 235.502 187.233 227.957Z" fill="white"/>
<path fill-rule="evenodd" clip-rule="evenodd" d="M166.954 138.604C169.026 135.928 170.321 132.707 172.455 130.08C174.59 127.453 178.057 125.416 181.287 126.431C184.292 127.375 185.945 130.511 187.285 133.362C187.958 134.793 190.003 134.904 191.477 134.33C192.951 133.756 194.276 132.718 195.848 132.547C199.102 132.192 201.552 135.562 204.731 136.338C209.462 137.493 214.217 132.665 218.893 134.027C220.871 134.604 222.584 136.258 224.64 136.116C220.686 126.638 217.707 116.768 213.556 107.374C209.404 97.9805 203.929 88.914 195.958 82.4375C195.139 81.7716 194.242 81.1123 193.195 80.9787C192.147 80.8451 190.933 81.44 190.75 82.4798C190.204 85.5715 189.659 88.6631 189.113 91.7548C188.843 93.2854 188.129 95.2069 186.575 95.1778C185.54 95.1585 184.745 94.1433 184.602 93.1176C184.46 92.0919 184.803 91.0678 185.142 90.0891C186.204 87.0229 187.265 83.9567 188.326 80.8904C181.045 83.5179 174.733 88.3951 169.501 94.1006C164.269 99.8061 160.038 106.345 155.982 112.939C152.509 118.585 149.146 124.297 145.893 130.072C150.255 129.453 154.054 133.035 156.522 136.684C157.999 138.868 159.757 141.47 162.393 141.46C164.252 141.453 165.816 140.074 166.954 138.604Z" fill="white"/>
<path fill-rule="evenodd" clip-rule="evenodd" d="M195.17 72.6198C194.687 72.4646 194.181 72.2883 193.852 71.9021C193.379 71.3465 193.41 70.5345 193.467 69.8068C194.03 62.6163 194.593 55.4258 195.156 48.2354C195.221 47.4022 196.039 46.7878 196.865 46.6648C197.692 46.5418 198.523 46.7921 199.322 47.0395C204.471 48.6355 209.62 50.2315 214.77 51.8275C216.026 52.217 216.093 53.9614 215.829 55.2503C215.564 56.5391 215.365 58.194 216.49 58.8761C224 63.4288 231.98 67.2055 240.262 70.1266C240.797 70.3154 240.837 71.1294 240.463 71.5565C240.089 71.9836 239.492 72.1215 238.937 72.2399C230.528 74.0341 222.3 76.6733 214.417 80.1049C213.314 80.585 211.874 81.0238 211.041 80.1556C210.449 79.5378 210.506 78.572 210.456 77.7175C210.406 76.863 210.029 75.8398 209.179 75.7319C204.427 75.1279 199.731 74.0847 195.17 72.6198ZM212.812 58.0351C213.964 56.2108 213.143 53.4534 211.18 52.5567C206.527 50.43 201.643 48.8078 196.641 47.7276C197.473 49.01 197.428 50.6504 197.355 52.1769C197.073 58.0385 196.784 63.954 195.253 69.6193C195.121 70.1091 195.751 70.4278 196.246 70.5385C200.682 71.5303 205.151 72.3734 209.643 73.0659C209.273 68.7367 208.903 64.4074 208.533 60.0782C208.492 59.597 208.453 59.0944 208.637 58.6476C208.934 57.9236 209.758 57.5302 210.54 57.508C211.322 57.4857 212.078 57.7624 212.812 58.0351ZM211.849 61.4473C212.202 66.5271 212.555 71.6068 212.908 76.6865C212.939 77.1318 212.992 77.6234 213.321 77.9249C220.481 74.9526 227.899 72.6007 235.464 70.9044C227.266 68.5508 220.351 62.1121 211.849 61.4473Z" fill="#3A1849"/>
<path fill-rule="evenodd" clip-rule="evenodd" d="M140.282 263.1C128.023 269.242 113.652 269.742 100.053 267.993C73.7256 264.607 47.1389 251.843 34.0482 228.752C28.4017 218.791 25.5498 207.497 23.563 196.221C22.4729 190.035 20.356 180.769 24.2323 176.564C25.0984 175.624 49.4296 156.03 58.9337 142.73C63.0085 137.028 68.983 131.606 76.0623 130.56C84.318 129.34 91.9001 135.032 97.9013 140.831C106.192 148.843 113.633 157.734 120.058 167.307C112.977 164.299 107.881 158.048 103.178 151.96C98.4751 145.872 93.6152 139.503 86.7298 136.072C79.8445 132.641 70.2826 133.212 65.8107 139.472C55.1522 154.391 41.6693 167.286 26.2893 177.268C25.1325 178.019 25.028 179.642 25.0496 181.021C25.2996 196.938 27.0792 215.064 39.8125 224.618C50.4477 232.598 65.8864 231.557 77.5363 225.149C89.1862 218.741 97.7064 207.902 105.021 196.799C126.478 164.23 140.41 127.002 163.472 95.5486C168.774 88.3181 175.02 81.0873 183.562 78.3616C189.261 76.5428 190.859 69.2702 190.754 63.2885C190.649 57.3068 190.083 50.5059 194.237 46.2C193.361 56.1473 192.486 66.0945 191.61 76.0418C204.368 82.3754 211.819 95.8605 217.287 109.012C225.408 128.541 230.92 149.096 239.469 168.441C248.018 187.787 260.153 206.375 278.092 217.579C286.395 206.769 291.13 189.464 291.13 179.574C286.395 174.414 279.669 166.34 271.8 162.705C262.419 158.372 252.127 165.969 244.592 173.039C248.757 166.7 253.757 160.026 261.126 158.231C267.076 156.782 273.443 158.943 278.379 162.567C283.315 166.191 287.078 171.15 290.768 176.037C294.499 177.268 295.313 180.692 292.721 193.564C290.107 206.546 284.431 220.049 272.901 226.565C267.692 229.509 261.685 230.771 255.721 231.254C230.815 233.272 204.322 222.639 181.53 232.881C165.927 239.894 155.576 255.437 140.282 263.1ZM187.235 227.957C207.461 221.287 229.379 229.017 250.675 228.731C260.11 228.605 270.196 226.523 276.691 219.678C262.465 211.302 251.666 197.982 243.801 183.467C235.935 168.952 230.764 153.161 225.635 137.468C218.886 133.621 210.2 140.128 202.793 137.788C199.007 136.592 194.487 133.343 191.77 136.238C190.131 137.985 187.077 136.957 185.482 135.169C183.887 133.38 182.999 131.003 181.2 129.419C179.402 127.836 175.988 127.636 175.073 129.851C173.489 133.685 171.819 137.644 168.782 140.469C165.744 143.294 160.928 144.658 157.371 142.525C154.592 140.859 153.28 137.616 151.661 134.809C150.043 132.002 147.362 129.196 144.143 129.568C133.27 152.477 121.107 174.773 107.731 196.316C101.983 205.573 95.9 214.822 87.6677 221.96C79.4354 229.099 68.6851 233.982 57.8339 232.99C49.0774 232.188 41.1233 227.728 33.623 223.139C40.1964 236.512 51.8084 247.034 65.067 253.835C78.3257 260.636 93.1759 263.906 108.03 265.087C113.892 265.553 119.837 265.7 125.606 264.566C149.251 259.919 164.349 235.502 187.235 227.957ZM166.538 136.924C168.61 134.247 169.905 131.027 172.039 128.4C174.174 125.773 177.641 123.736 180.871 124.751C183.876 125.695 185.529 128.831 186.869 131.682C187.542 133.113 189.587 133.224 191.061 132.65C192.535 132.076 193.86 131.038 195.432 130.867C198.686 130.512 201.136 133.882 204.315 134.658C209.046 135.812 213.801 130.985 218.477 132.347C220.455 132.924 222.168 134.578 224.224 134.436C220.27 124.958 217.313 115.625 213.162 106.231C209.01 96.8377 199.992 80.2252 192.779 79.2987C185.483 78.3616 174.317 86.715 169.085 92.4205C163.853 98.126 159.622 104.665 155.566 111.259C152.093 116.905 148.73 122.617 145.477 128.392C149.839 127.773 153.638 131.355 156.106 135.004C157.583 137.188 159.341 139.79 161.977 139.78C163.836 139.773 165.4 138.394 166.538 136.924Z" fill="#682B82"/>
<path fill-rule="evenodd" clip-rule="evenodd" d="M134.379 60.7469C129.796 61.2119 126.058 65.2355 124.169 70.6806C123.679 72.0959 122.067 72.7496 119.24 73.022L119.062 73.0385C112.803 73.5966 108.647 75.2088 106.644 78.8942L106.56 79.0518C106.397 79.3653 106.258 79.6782 106.053 80.1728L105.922 80.4948C105.449 81.6568 105.207 82.1484 104.802 82.6599C103.542 84.2529 101.646 84.7432 97.8516 84.8573L97.4301 84.8682C88.339 85.0707 81.9164 86.4521 76.7139 90.0854C75.2257 91.1248 74.3395 92.1565 74.1411 93.4788C73.9137 94.9944 74.7942 96.5637 76.1999 97.4252C77.3248 98.1147 78.6739 98.3869 80.3588 98.3919C82.4088 98.3979 84.4587 98.041 86.386 97.3426L86.5466 97.2837C86.8368 97.1761 87.1122 97.0664 87.5213 96.8969L88.3877 96.5353C90.165 95.7999 91.0275 95.5392 92.109 95.4825C93.7775 95.395 95.0941 95.8354 97.898 97.2053L98.4877 97.4947C99.098 97.7934 99.5385 98.0016 99.9703 98.1908L100.088 98.242C104.792 100.274 109.601 100.614 117.411 100.018L118.953 99.8936L122.366 99.6049C123.262 99.532 123.903 99.4854 124.642 99.4386L125.355 99.3966C128.397 99.231 131.645 99.2282 136.948 99.3341L140.596 99.4102C147.906 99.5544 151.202 99.5155 154.715 99.1538C158.797 98.7337 161.456 95.8835 162.545 91.6612C163.429 88.2391 163.107 84.2461 161.877 82.3489C159.419 78.5605 155.751 76.2787 152.376 77.3302C151.258 77.6787 149.85 76.8572 149.132 75.5094C148.742 74.7773 148.544 74.1169 148.219 72.6374L148.062 71.9212C147.971 71.5165 147.904 71.2457 147.82 70.9415C146.675 66.7982 143.548 63.2602 139.577 61.6147C137.835 60.8927 136.062 60.5761 134.379 60.7469ZM139.092 62.7787C142.644 64.2503 145.464 67.3989 146.549 71.0859L146.603 71.2771C146.681 71.5597 146.744 71.816 146.832 72.2058L147.026 73.0899C147.353 74.5579 147.574 75.2698 148.018 76.1019C148.974 77.8967 150.893 79.0415 152.644 78.5638L152.749 78.5331C155.456 77.6896 158.631 79.6649 160.817 83.0347C161.832 84.5998 162.125 88.2381 161.323 91.3463C160.354 95.1017 158.079 97.5407 154.584 97.9005L154.192 97.9395C150.974 98.2492 147.773 98.2862 141.171 98.1612L136.351 98.0623C131.379 97.9683 128.243 97.9773 125.282 98.1386L124.121 98.2097C123.292 98.2652 122.502 98.3273 121.211 98.4364L117.651 98.7355C109.942 99.3431 105.255 99.052 100.782 97.1694L100.585 97.0854C100.211 96.9239 99.8379 96.7506 99.348 96.5134L98.2417 95.9725C95.3832 94.5863 93.9497 94.1242 92.0405 94.2243C90.7353 94.2927 89.7593 94.5971 87.7346 95.4411L86.8392 95.8142C86.485 95.9594 86.2376 96.0553 85.9542 96.158C84.1657 96.8062 82.2623 97.1375 80.36 97.1319C78.8854 97.1276 77.7487 96.8982 76.8558 96.351C75.8537 95.7368 75.2385 94.6402 75.3847 93.6658C75.5184 92.7744 76.2029 91.9775 77.4329 91.1185C82.3185 87.7064 88.426 86.3614 97.1025 86.1365L97.4556 86.128C101.907 86.0288 104.16 85.5004 105.788 83.4417C106.249 82.8585 106.521 82.336 106.962 81.2734L107.303 80.4449C107.475 80.0347 107.597 79.7742 107.749 79.496C109.438 76.388 113.079 74.9044 118.666 74.3415L119.171 74.2935C122.519 73.995 124.556 73.2187 125.316 71.2065L125.357 71.0934C127.102 66.0631 130.499 62.4068 134.503 62.0005C135.901 61.8587 137.396 62.1086 138.889 62.6965L139.092 62.7787Z" fill="#682B82"/>
<path fill-rule="evenodd" clip-rule="evenodd" d="M270.94 86.8224L270.785 86.9779C270.666 87.0989 270.549 87.2244 270.404 87.3847L269.828 88.0334C269.278 88.6493 268.981 88.9426 268.592 89.2361C267.745 89.8752 266.731 90.0727 266.056 89.6952C265.785 89.5433 265.583 89.3442 265.193 88.865L264.903 88.5073C264.751 88.3241 264.644 88.2036 264.512 88.0704C262.773 86.3183 259.736 86.2334 257.424 87.6284C255.615 88.72 254.315 90.3922 252.891 93.0526C252.31 94.1394 251.031 94.8909 249.509 95.1207C248.771 95.2323 247.993 95.2406 246.999 95.1669L246.513 95.1263L244.985 94.9714C236.943 94.1782 228.719 95.3145 221.194 98.2584C220.007 98.7229 219.347 99.1393 218.927 99.9146C218.323 101.032 218.936 102.654 220.226 102.726C242.285 103.948 264.434 103.53 286.431 101.478L287.826 101.347L288.845 101.277C288.939 101.27 289.018 101.263 289.115 101.254L289.376 101.228C291.383 101.006 292.485 100.34 292.485 98.6718C292.485 97.06 291.708 96.6193 289.747 96.4193L289.354 96.3781C288.594 96.2952 288.248 96.233 287.779 96.0878C286.116 95.5723 284.134 94.4978 283.702 93.9611C283.062 93.1672 282.79 92.4202 282.401 90.6833L282.278 90.1337C281.87 88.3445 281.545 87.4911 280.775 86.5339C278.527 83.7397 273.731 84.0815 270.94 86.8224ZM279.793 87.3236C280.432 88.1171 280.704 88.8644 281.092 90.5984L281.215 91.1483C281.624 92.9404 281.95 93.7938 282.721 94.7515C283.345 95.526 285.525 96.7084 287.407 97.2913L287.579 97.3431C288.029 97.4728 288.407 97.5389 289.067 97.6139L289.935 97.7073C291.044 97.8385 291.226 97.9962 291.226 98.6718C291.226 99.4937 290.631 99.8386 289.131 99.9875L288.748 100.021L287.789 100.086C287.743 100.089 287.699 100.093 287.657 100.096L287.533 100.108C265.198 102.254 242.7 102.709 220.297 101.468C220.041 101.454 219.83 100.895 220.036 100.514C220.269 100.084 220.73 99.7933 221.654 99.4318C228.868 96.6098 236.742 95.4904 244.456 96.187L245.399 96.2803L246.179 96.3603C246.362 96.3781 246.512 96.3917 246.679 96.4056C247.867 96.5043 248.793 96.5033 249.698 96.3666C251.582 96.0821 253.213 95.1238 254.003 93.6471C255.329 91.1699 256.508 89.6536 258.076 88.7072C259.927 87.5905 262.328 87.6576 263.618 88.958L263.693 89.0359C263.756 89.102 263.818 89.1731 263.895 89.2651L264.137 89.5617C264.677 90.2336 264.965 90.5281 265.442 90.7947C266.615 91.4514 268.143 91.1539 269.352 90.2419C269.795 89.907 270.121 89.5916 270.659 88.9939L271.331 88.2391C271.526 88.0232 271.664 87.8782 271.824 87.7214C274.129 85.4572 278.067 85.1766 279.793 87.3236Z" fill="#682B82"/>
<path fill-rule="evenodd" clip-rule="evenodd" d="M190.75 63.2885C190.645 57.3068 190.079 50.5059 194.232 46.2C193.357 56.1473 192.481 66.0945 191.606 76.0418C193.028 76.7476 190.907 77.9281 189.623 77.9519C185.02 78.0369 190.854 69.2702 190.75 63.2885Z" fill="#3A1849"/>
</svg>
