<svg width="196" height="141" viewBox="0 0 196 141" fill="none" xmlns="http://www.w3.org/2000/svg">
<path id="&#226;&#128;&#156;&#226;&#128;&#157;" d="M92.2634 39.0608C92.2634 61.2905 85.7301 81.6149 72.6634 100.034C59.9154 118.135 42.5464 131.791 20.5561 141L18.1659 132.426C31.2325 127.027 43.0244 118.611 53.5415 107.179C64.0585 95.7466 69.7951 82.4088 70.7512 67.1655C66.2894 71.9291 61.1902 75.5811 55.4537 78.1216C49.7171 80.6621 43.6618 81.9324 37.2878 81.9324C25.4959 81.9324 16.2536 79.2331 9.56096 73.8344C3.18698 68.4358 0 60.6554 0 50.4932C0 40.6486 2.23088 31.9155 6.69267 24.2939C11.4732 16.6723 17.8472 10.7973 25.8146 6.66892C34.1008 2.22297 43.3431 0 53.5415 0C65.652 0 75.0537 3.01689 81.7464 9.05067C88.7577 15.0845 92.2634 25.0878 92.2634 39.0608ZM196 39.0608C196 61.2905 189.467 81.6149 176.4 100.034C163.652 118.135 146.283 131.791 124.293 141L121.902 132.426C134.969 127.027 146.761 118.611 157.278 107.179C167.795 95.7466 173.532 82.4088 174.488 67.1655C170.026 71.9291 164.927 75.5811 159.19 78.1216C153.454 80.6621 147.398 81.9324 141.024 81.9324C129.233 81.9324 119.99 79.2331 113.298 73.8344C106.924 68.4358 103.737 60.6554 103.737 50.4932C103.737 40.6486 105.967 31.9155 110.429 24.2939C115.21 16.6723 121.584 10.7973 129.551 6.66892C137.837 2.22297 147.08 0 157.278 0C169.389 0 178.79 3.01689 185.483 9.05067C192.494 15.0845 196 25.0878 196 39.0608Z" fill="#EBD9F2"/>
</svg>
