<svg width="138" height="99" viewBox="0 0 138 99" fill="none" xmlns="http://www.w3.org/2000/svg">
<path id="&#226;&#128;&#156;&#226;&#128;&#157;" d="M73.039 71.5743C73.039 55.7432 77.5268 41.473 86.5024 28.7635C95.7024 16.0541 108.044 6.46621 123.527 0L125.21 6.02027C116.234 9.81082 107.932 15.7196 100.302 23.7466C92.8976 31.7736 88.8585 41.1385 88.1854 51.8412C91.3268 48.4966 94.9171 45.9324 98.9561 44.1487C102.995 42.3649 107.259 41.473 111.746 41.473C120.273 41.473 126.78 43.3682 131.268 47.1588C135.756 50.9493 138 56.4122 138 63.5473C138 70.4595 136.317 76.5912 132.951 81.9426C129.81 87.2939 125.322 91.5304 119.488 94.652C113.878 97.5507 107.483 99 100.302 99C91.7756 99 85.0439 96.8818 80.1073 92.6453C75.3951 88.4088 73.039 81.3851 73.039 71.5743ZM0 71.5743C0 55.7432 4.48781 41.473 13.4634 28.7635C22.6634 16.0541 35.0049 6.46621 50.4878 0L52.1707 6.02027C43.1951 9.81082 34.8927 15.7196 27.2634 23.7466C19.8585 31.7736 15.8195 41.1385 15.1463 51.8412C18.2878 48.4966 21.878 45.9324 25.9171 44.1487C29.9561 42.3649 34.2195 41.473 38.7073 41.473C47.2341 41.473 53.7415 43.3682 58.2293 47.1588C62.7171 50.9493 64.961 56.4122 64.961 63.5473C64.961 70.4595 63.278 76.5912 59.9122 81.9426C56.7707 87.2939 52.2829 91.5304 46.4488 94.652C40.839 97.5507 34.4439 99 27.2634 99C18.7366 99 12.0049 96.8818 7.06829 92.6453C2.3561 88.4088 0 81.3851 0 71.5743Z" fill="#EBD9F2"/>
</svg>
